<?xml version="1.0" encoding="UTF-8" standalone="no"?>
<svg
   xmlns:dc="http://purl.org/dc/elements/1.1/"
   xmlns:cc="http://creativecommons.org/ns#"
   xmlns:rdf="http://www.w3.org/1999/02/22-rdf-syntax-ns#"
   xmlns:svg="http://www.w3.org/2000/svg"
   xmlns="http://www.w3.org/2000/svg"
   xmlns:xlink="http://www.w3.org/1999/xlink"
   xmlns:sodipodi="http://sodipodi.sourceforge.net/DTD/sodipodi-0.dtd"
   xmlns:inkscape="http://www.inkscape.org/namespaces/inkscape"
   inkscape:version="1.0 (4035a4fb49, 2020-05-01)"
   sodipodi:docname="confirm.svg"
   version="1.1"
   viewBox="0 0 974.54387 648.75813"
   height="648.75812"
   width="974.54382"
   data-name="Layer 1"
   id="94c1f45f-2d92-458e-bbfe-f6c69da92e14">
  <metadata
     id="metadata214">
    <rdf:RDF>
      <cc:Work
         rdf:about="">
        <dc:format>image/svg+xml</dc:format>
        <dc:type
           rdf:resource="http://purl.org/dc/dcmitype/StillImage" />
        <dc:title>envelope</dc:title>
      </cc:Work>
    </rdf:RDF>
  </metadata>
  <sodipodi:namedview
     fit-margin-bottom="0"
     fit-margin-right="0"
     fit-margin-left="0"
     fit-margin-top="0"
     inkscape:current-layer="g1173"
     inkscape:window-maximized="1"
     inkscape:window-y="-8"
     inkscape:window-x="-8"
     inkscape:cy="256.27276"
     inkscape:cx="455.21839"
     inkscape:zoom="0.75516169"
     showgrid="false"
     id="namedview212"
     inkscape:window-height="838"
     inkscape:window-width="1440"
     inkscape:pageshadow="2"
     inkscape:pageopacity="0"
     guidetolerance="10"
     gridtolerance="10"
     objecttolerance="10"
     borderopacity="1"
     bordercolor="#666666"
     pagecolor="#ffffff" />
  <defs
     id="defs9">
    <linearGradient
       gradientUnits="userSpaceOnUse"
       y2="217.05"
       x2="924.48999"
       y1="836.62"
       x1="924.48999"
       id="eb1b6581-0e6c-46f0-8ed9-49203ffc7122">
      <stop
         id="stop2"
         stop-opacity="0.25"
         stop-color="gray"
         offset="0" />
      <stop
         id="stop4"
         stop-opacity="0.12"
         stop-color="gray"
         offset="0.54" />
      <stop
         id="stop6"
         stop-opacity="0.1"
         stop-color="gray"
         offset="1" />
    </linearGradient>
    <radialGradient
       inkscape:collect="always"
       xlink:href="#radial-gradient"
       id="radialGradient1732"
       cx="9.5284243"
       cy="32.135014"
       fx="9.5284243"
       fy="32.135014"
       r="12.180075"
       gradientTransform="matrix(0.91233378,0.11790194,-0.23512559,1.819419,208.09588,-279.14089)"
       gradientUnits="userSpaceOnUse" />
    <radialGradient
       id="radial-gradient"
       cx="572.73102"
       cy="42.395535"
       r="25.57"
       gradientTransform="matrix(-1,0,0,1,581.21015,-0.87985015)"
       gradientUnits="userSpaceOnUse"
       fx="572.73102"
       fy="42.395535">
      <stop
         offset="0"
         stop-color="#e7315e"
         id="stop4-3" />
      <stop
         offset="1"
         stop-color="#81217d"
         id="stop6-6" />
    </radialGradient>
  </defs>
  <title
     id="title11">envelope</title>
  <g
     transform="translate(-21.101825,-182.85184)"
     id="g1138">
    <g
       transform="translate(70.183645,-11.917977)"
       id="g1173">
      <path
         style="stroke-width:0.727641;fill:#81217d;fill-opacity:1;opacity:0.21266968"
         id="path13"
         opacity="0.1"
         fill="#81217d"
         d="m 521.97263,317.09341 c -51.42661,-1.30472 -100.40398,-13.49129 -147.14137,-26.82546 -46.73738,-13.33419 -93.13373,-28.08239 -143.32797,-35.14568 -32.28213,-4.54263 -69.19925,-5.18475 -95.21097,7.51415 -25.03511,12.22071 -33.1192,33.32177 -37.467413,52.90635 -3.278594,14.7277 -5.200792,30.23415 3.766903,44.01918 6.20065,9.56344 17.27656,17.61723 24.91885,26.78448 26.58528,31.90775 7.79731,71.24768 -21.02019,102.39719 -13.517425,14.61157 -29.197314,28.55372 -39.629897,44.10799 -10.432593,15.55425 -15.23809,33.39008 -6.130893,49.23808 9.045201,15.71137 30.600198,27.5359 53.95339,35.84926 47.42721,16.87266 103.3183,21.7022 157.81424,24.44144 120.63361,6.0523 241.9183,3.41552 362.87743,0.80606 44.76093,-0.97 89.72337,-1.95367 133.76349,-7.03596 24.4538,-2.82121 49.69821,-7.29555 67.43202,-18.10224 22.53932,-13.71671 28.11994,-36.94906 13.02129,-54.14961 -25.32952,-28.85427 -95.33488,-36.02003 -113.07648,-66.98511 -9.75051,-17.04342 0.26353,-36.03369 14.42426,-51.84071 30.38317,-33.90924 81.31374,-63.6584 83.99554,-102.41768 1.83698,-26.64103 -22.64013,-53.28206 -60.49508,-65.87849 -39.6764,-13.20438 -94.6994,-11.54445 -124.01297,10.31486 -30.08088,22.50143 -83.04993,31.18368 -128.45418,30.0019 z" />
      <ellipse
         id="ellipse15"
         opacity="0.1"
         fill="#81217d"
         ry="29.32"
         rx="290.75"
         cy="802.28998"
         cx="435.45001" />
      <path
         transform="translate(-82.53,-34.2)"
         id="path17"
         stroke-width="2"
         stroke-miterlimit="10"
         stroke="#535461"
         fill="none"
         d="m 252,833.31 c 0,0 -12.9,-73.09 -60.78,-109.31 -20.09,-15.2 -34.79,-35.87 -41.21,-59.41 a 179.25,179.25 0 0 1 -5.78,-34.1" />
      <path
         transform="translate(-82.53,-34.2)"
         id="path19"
         fill="#81217d"
         d="m 114.21,607.49 c 4,7.83 30.73,23.68 30.73,23.68 0,0 3.36,-29.61 -0.67,-37.45 -4.03,-7.84 -14,-11.11 -22.32,-7.31 -8.32,3.8 -11.77,13.24 -7.74,21.08 z" />
      <path
         transform="translate(-82.53,-34.2)"
         id="path21"
         fill="#81217d"
         d="m 111.66,662.28 c 7.9,4.51 39.44,4.11 39.44,4.11 0,0 -14.23,-26.58 -22.1,-31.09 -7.87,-4.51 -18.16,-2.13 -22.94,5.32 -4.78,7.45 -2.29,17.15 5.6,21.66 z" />
      <path
         transform="translate(-82.53,-34.2)"
         id="path23"
         fill="#81217d"
         d="m 150.87,736 c 9.22,0.13 36.23,-15.25 36.23,-15.25 0,0 -26.49,-16.16 -35.72,-16.3 -9.23,-0.14 -16.82,6.82 -17,15.53 -0.18,8.71 7.26,15.86 16.49,16.02 z" />
      <path
         transform="translate(-82.53,-34.2)"
         id="path25"
         fill="#81217d"
         d="m 193.83,785.43 c 9.06,1.61 38.44,-9.25 38.44,-9.25 0,0 -23.22,-20.18 -32.27,-21.76 -9.05,-1.58 -17.8,4 -19.5,12.6 -1.7,8.6 4.26,16.81 13.33,18.41 z" />
      <path
         transform="translate(-82.53,-34.2)"
         id="path27"
         fill="#81217d"
         d="m 183.44,653.45 c -3.15,8.19 -28,26.55 -28,26.55 0,0 -6.58,-29.12 -3.43,-37.31 3.15,-8.19 12.74,-12.42 21.41,-9.45 8.67,2.97 13.17,12.03 10.02,20.21 z" />
      <path
         transform="translate(-82.53,-34.2)"
         id="path29"
         fill="#81217d"
         d="m 232.91,711.89 c -5.6,6.93 -35.12,17.43 -35.12,17.43 0,0 3,-29.65 8.56,-36.57 a 17.38,17.38 0 0 1 23.42,-3 15.2,15.2 0 0 1 3.14,22.14 z" />
      <path
         transform="translate(-82.53,-34.2)"
         id="path31"
         fill="#81217d"
         d="m 272.73,774.92 c -4.28,7.72 -31.49,22.78 -31.49,22.78 0,0 -2.39,-29.69 1.89,-37.41 4.28,-7.72 14.37,-10.7 22.55,-6.66 8.18,4.04 11.32,13.57 7.05,21.29 z" />
      <path
         transform="translate(-82.53,-34.2)"
         id="path33"
         opacity="0.25"
         d="m 114.21,607.49 c 4,7.83 30.73,23.68 30.73,23.68 0,0 3.36,-29.61 -0.67,-37.45 -4.03,-7.84 -14,-11.11 -22.32,-7.31 -8.32,3.8 -11.77,13.24 -7.74,21.08 z" />
      <path
         transform="translate(-82.53,-34.2)"
         id="path35"
         opacity="0.25"
         d="m 111.66,662.28 c 7.9,4.51 39.44,4.11 39.44,4.11 0,0 -14.23,-26.58 -22.1,-31.09 -7.87,-4.51 -18.16,-2.13 -22.94,5.32 -4.78,7.45 -2.29,17.15 5.6,21.66 z" />
      <path
         transform="translate(-82.53,-34.2)"
         id="path37"
         opacity="0.25"
         d="m 150.87,736 c 9.22,0.13 36.23,-15.25 36.23,-15.25 0,0 -26.49,-16.16 -35.72,-16.3 -9.23,-0.14 -16.82,6.82 -17,15.53 -0.18,8.71 7.26,15.86 16.49,16.02 z" />
      <path
         transform="translate(-82.53,-34.2)"
         id="path39"
         opacity="0.25"
         d="m 193.83,785.43 c 9.06,1.61 38.44,-9.25 38.44,-9.25 0,0 -23.22,-20.18 -32.27,-21.76 -9.05,-1.58 -17.8,4 -19.5,12.6 -1.7,8.6 4.26,16.81 13.33,18.41 z" />
      <path
         transform="translate(-82.53,-34.2)"
         id="path41"
         opacity="0.25"
         d="m 183.44,653.45 c -3.15,8.19 -28,26.55 -28,26.55 0,0 -6.58,-29.12 -3.43,-37.31 3.15,-8.19 12.74,-12.42 21.41,-9.45 8.67,2.97 13.17,12.03 10.02,20.21 z" />
      <path
         transform="translate(-82.53,-34.2)"
         id="path43"
         opacity="0.25"
         d="m 232.91,711.89 c -5.6,6.93 -35.12,17.43 -35.12,17.43 0,0 3,-29.65 8.56,-36.57 a 17.38,17.38 0 0 1 23.42,-3 15.2,15.2 0 0 1 3.14,22.14 z" />
      <path
         transform="translate(-82.53,-34.2)"
         id="path45"
         opacity="0.25"
         d="m 272.73,774.92 c -4.28,7.72 -31.49,22.78 -31.49,22.78 0,0 -2.39,-29.69 1.89,-37.41 4.28,-7.72 14.37,-10.7 22.55,-6.66 8.18,4.04 11.32,13.57 7.05,21.29 z" />
      <path
         transform="translate(-82.53,-34.2)"
         id="path47"
         stroke-width="2"
         stroke-miterlimit="10"
         stroke="#535461"
         fill="none"
         d="m 250.38,831.39 c 0,0 19.57,-71.76 -8.65,-123.2 -11.84,-21.58 -16.41,-46.1 -12.17,-70.08 a 180,180 0 0 1 9.35,-33.38" />
      <path
         transform="translate(-82.53,-34.2)"
         id="path49"
         fill="#81217d"
         d="m 221.33,572.22 c 0.32,8.7 17.93,33.41 17.93,33.41 0,0 15.78,-25.79 15.46,-34.5 -0.32,-8.71 -8.05,-15.52 -17.27,-15.22 -9.22,0.3 -16.45,7.6 -16.12,16.31 z" />
      <path
         transform="translate(-82.53,-34.2)"
         id="path51"
         fill="#81217d"
         d="m 195.49,621.34 c 5.28,7.14 34.28,18.84 34.28,18.84 0,0 -1.6,-29.74 -6.88,-36.89 a 17.35,17.35 0 0 0 -23.26,-3.91 15.23,15.23 0 0 0 -4.14,21.96 z" />
      <path
         transform="translate(-82.53,-34.2)"
         id="path53"
         fill="#81217d"
         d="m 199.69,703.71 c 8.38,3.65 39.68,-0.07 39.68,-0.07 0,0 -17.29,-24.92 -25.67,-28.57 -8.38,-3.65 -18.3,-0.2 -22.17,7.71 -3.87,7.91 -0.21,17.28 8.16,20.93 z" />
      <path
         transform="translate(-82.53,-34.2)"
         id="path55"
         fill="#81217d"
         d="m 217.74,765.36 c 7.61,4.94 39.12,6.25 39.12,6.25 0,0 -12.58,-27.31 -20.18,-32.24 a 17.33,17.33 0 0 0 -23.23,4 15.23,15.23 0 0 0 4.29,21.99 z" />
      <path
         transform="translate(-82.53,-34.2)"
         id="path57"
         fill="#81217d"
         d="m 264.9,640.73 c -6.4,6.28 -37,13.57 -37,13.57 0,0 6.49,-29.15 12.88,-35.43 a 17.42,17.42 0 0 1 23.63,-0.44 15.16,15.16 0 0 1 0.49,22.3 z" />
      <path
         transform="translate(-82.53,-34.2)"
         id="path59"
         fill="#81217d"
         d="m 285,713.08 c -8.09,4.19 -39.58,2.5 -39.58,2.5 0,0 15.43,-26 23.52,-30.16 8.09,-4.16 18.25,-1.39 22.68,6.25 4.43,7.64 1.51,17.22 -6.62,21.41 z" />
      <path
         transform="translate(-82.53,-34.2)"
         id="path61"
         fill="#81217d"
         d="m 294.39,785.94 c -7.23,5.42 -38.57,8.78 -38.57,8.78 0,0 10.56,-28.07 17.79,-33.49 a 17.38,17.38 0 0 1 23.47,2.55 15.19,15.19 0 0 1 -2.69,22.16 z" />
      <path
         transform="translate(-82.53,-34.2)"
         id="path195"
         fill="#dcdfed"
         d="m 582.08,248.59 -261.51,169.66 170.66,307.8 a 11.91,11.91 0 0 0 7.6,5.8 l 154.63,37.72 A 11.92,11.92 0 0 0 667,763.16 l 76.7,-159.35 84.06,-112.37 -199.48,-236 a 35.35,35.35 0 0 0 -46.2,-6.85 z" />
      <path
         transform="translate(-82.53,-34.2)"
         id="path197"
         opacity="0.1"
         d="m 830.42,492.77 -0.74,1 -49.24,65.83 -0.89,1.19 -33.19,44.37 -65.6,136.31 -1.84,3.81 -9.26,19.23 a 11.92,11.92 0 0 1 -13.56,6.41 L 501.47,733.18 a 11.89,11.89 0 0 1 -7.6,-5.8 L 479,700.61 476.33,695.79 369,502.13 l -0.92,-1.65 -44.86,-80.9 5.42,-3.52 41.09,-26.65 0.95,-0.62 86.53,-56.14 5.46,-3.54 122.05,-79.19 a 35.34,35.34 0 0 1 46.22,6.84 l 91,107.7 4,4.8 66.05,78.14 0.36,0.43 33.21,39.28 4.18,4.95 z" />
      <path
         transform="translate(-82.53,-34.2)"
         id="path199"
         opacity="0.1"
         d="m 789.79,446.5 -8.06,56 -2.43,16.9 -1.39,36 -0.11,2.81 -7.23,188.1 a 11.93,11.93 0 0 1 -14.51,11.17 l -77.94,-17.4 -0.84,-0.19 -199.89,-44.61 -3.67,-0.82 -109.89,-24.54 2.52,-169.12 0.08,-5.65 0.76,-51.19 0.84,-56.5 86.53,-56.14 5.46,-3.54 c 80.26,8.23 187,24.06 259.31,35.35 l 4,4.8 66,78.14 z" />
      <path
         transform="translate(-82.53,-34.2)"
         id="path201"
         fill="#81217d"
         d="m 798.92,380.1 -9.49,66 -8.7,60.44 -2.43,16.86 -1.39,36 -7.34,190.91 a 11.93,11.93 0 0 1 -14.51,11.17 l -78.78,-17.59 -199.89,-44.61 -113.56,-25.36 2.6,-174.77 0.76,-51.19 0.89,-59.88 0.91,-61.59 c 18.78,-0.89 49.68,1.12 86.57,4.83 82.6,8.29 195.2,25.06 268.82,36.61 45.08,7.07 75.54,12.17 75.54,12.17 z"
         style="fill:#f8f8f8;fill-opacity:1" />
      <path
         transform="translate(-82.53,-34.2)"
         id="path203"
         opacity="0.1"
         d="M 823,485.78 780.73,506.51 565,612.31 366.19,448 326,414.73 l -5.42,3.52 44.86,80.9 -2.6,174.77 113.56,25.36 14.84,26.77 a 11.89,11.89 0 0 0 7.6,5.8 l 154.63,37.72 A 11.92,11.92 0 0 0 667,763.16 l 9.26,-19.23 78.78,17.59 a 11.93,11.93 0 0 0 14.51,-11.17 l 7.34,-190.91 50.13,-67 0.14,-1.69 z" />
      <path
         transform="translate(-82.53,-34.2)"
         id="path205"
         fill="#dcdfed"
         d="m 320.57,418.25 -17.83,305.33 a 11.92,11.92 0 0 0 9.31,12.33 L 785.57,841.06 A 11.92,11.92 0 0 0 800,830.39 L 827.75,491.44 565,620.31 Z" />
      <path
         transform="translate(-82.53,-34.2)"
         id="path207"
         opacity="0.1"
         d="M 306,730.57 552,578.8 a 18.06,18.06 0 0 1 23,3.6 l 220.18,256.79 c 0.8,0.92 1.19,0.26 0,0 L 306,730.57 c -1.4,-0.31 -1.22,0.73 0,0 z" />
      <path
         transform="translate(-82.53,-34.2)"
         id="path209"
         fill="#e3e5f1"
         d="M 307.76,730.32 551.22,583.25 a 19.09,19.09 0 0 1 24.28,3.82 L 793.69,838 a 2.63,2.63 0 0 1 -2.55,4.29 L 308.55,735.13 a 2.62,2.62 0 0 1 -0.79,-4.81 z" />
    </g>
    <g
       transform="matrix(0.75362346,0,0,0.75362346,351.99861,519.18615)"
       id="g1778">
      <path
         style="fill:url(#radialGradient1732);fill-opacity:1;stroke-width:0.919921"
         id="path11"
         d="m 210.9141,-249.7711 a 22.197684,22.197684 0 0 1 16.53161,-4.4679 l -0.91611,7.08883 a 15.224686,15.224686 0 0 0 -15.93006,21.1306 l -2.43102,6.17884 a 0.72673729,0.72673729 0 0 0 0.80033,0.98461 l 6.70159,-0.89633 a 15.123495,15.123495 0 0 0 6.98987,2.75845 l -0.91491,7.07971 a 22.390868,22.390868 0 0 1 -19.36533,-24.99618 22.197684,22.197684 0 0 1 8.53403,-14.86063 z"
         class="cls-1" />
      <g
         transform="matrix(0.91233378,0.11790194,-0.11790194,0.91233378,204.85724,-254.08013)"
         class="cls-2"
         style="font-weight:700;font-size:24.69px;font-family:FrutigerLTArabic-65Bold, 'Frutiger LT Arabic';fill:#0e273b"
         id="text13"
         aria-label="MUJEEBK">
        <path
           id="path1680"
           style="font-weight:700;font-size:24.69px;font-family:FrutigerLTArabic-65Bold, 'Frutiger LT Arabic';fill:#0b194f;fill-opacity:1"
           d="M 45.609619,29.760149 H 41.004355 V 17.740652 l -3.327363,7.800014 h -3.194751 l -3.327364,-7.800014 v 12.019497 h -4.36415 V 11.809265 h 5.376826 l 4.038648,9.005581 4.026592,-9.005581 h 5.376826 z" />
        <path
           id="path1682"
           style="font-weight:700;font-size:24.69px;font-family:FrutigerLTArabic-65Bold, 'Frutiger LT Arabic';fill:#0b194f;fill-opacity:1"
           d="m 65.899302,23.262146 q 0,3.327363 -2.025351,5.099546 -2.025352,1.772183 -5.967554,1.772183 -3.942202,0 -5.967554,-1.772183 -2.013296,-1.772183 -2.013296,-5.08749 V 11.809265 h 4.653486 v 11.199712 q 0,1.868628 0.783619,2.784858 0.783618,0.916231 2.543745,0.916231 1.736015,0 2.531689,-0.880064 0.80773,-0.880063 0.80773,-2.821025 V 11.809265 h 4.653486 z" />
        <path
           id="path1684"
           style="font-weight:700;font-size:24.69px;font-family:FrutigerLTArabic-65Bold, 'Frutiger LT Arabic';fill:#0b194f;fill-opacity:1"
           d="m 79.594538,24.491824 q 0,1.181455 -0.421948,2.218242 -0.421948,1.024731 -1.253789,1.736016 -0.880063,0.759506 -2.121797,1.181455 -1.241733,0.409892 -3.074194,0.409892 -1.241734,0 -2.338799,-0.09644 -1.097066,-0.08439 -1.928906,-0.253169 v -3.640811 h 0.434004 q 0.578671,0.217002 1.205566,0.409893 0.626895,0.180835 1.603403,0.180835 1.265845,0 1.940962,-0.337559 0.687173,-0.337558 0.976509,-0.940341 0.27728,-0.590728 0.313447,-1.289957 0.03617,-0.711284 0.03617,-1.808349 V 15.112522 H 70.854185 V 11.80927 h 8.740356 z" />
        <path
           id="path1686"
           style="font-weight:700;font-size:24.69px;font-family:FrutigerLTArabic-65Bold, 'Frutiger LT Arabic';fill:#0b194f;fill-opacity:1"
           d="M 96.918526,29.760149 H 83.934575 V 11.809265 h 12.983951 v 3.472031 h -8.378687 v 3.098306 h 7.775904 v 3.472031 h -7.775904 v 4.436485 h 8.378687 z" />
        <path
           id="path1688"
           style="font-weight:700;font-size:24.69px;font-family:FrutigerLTArabic-65Bold, 'Frutiger LT Arabic';fill:#0b194f;fill-opacity:1"
           d="M 113.79645,29.760149 H 100.8125 V 11.809265 h 12.98395 v 3.472031 h -8.37869 v 3.098306 h 7.77591 v 3.472031 h -7.77591 v 4.436485 h 8.37869 z" />
        <path
           id="path1690"
           style="font-weight:700;font-size:24.69px;font-family:FrutigerLTArabic-65Bold, 'Frutiger LT Arabic';fill:#0b194f;fill-opacity:1"
           d="m 133.04935,24.262766 q 0,1.302012 -0.53045,2.326743 -0.5184,1.024732 -1.43463,1.699849 -1.06089,0.795674 -2.33879,1.133232 -1.26585,0.337559 -3.21887,0.337559 h -7.83618 V 11.809265 h 6.96817 q 2.17002,0 3.17064,0.144668 1.01268,0.144668 2.00124,0.63895 1.02474,0.518394 1.51902,1.398457 0.50634,0.868008 0.50634,1.989185 0,1.302011 -0.68718,2.302632 -0.68717,0.988564 -1.94096,1.543125 v 0.09644 q 1.76013,0.349614 2.78486,1.44668 1.03679,1.097065 1.03679,2.893359 z M 127.11796,16.8847 q 0,-0.44606 -0.22906,-0.89212 -0.217,-0.446059 -0.78362,-0.663061 -0.50633,-0.192891 -1.26584,-0.204946 -0.74745,-0.02411 -2.10974,-0.02411 h -0.43401 v 3.797534 h 0.72334 q 1.09707,0 1.86863,-0.03617 0.77156,-0.03617 1.21762,-0.241113 0.6269,-0.27728 0.81979,-0.711284 0.19289,-0.44606 0.19289,-1.02473 z m 1.13323,7.305732 q 0,-0.855952 -0.33756,-1.314067 -0.3255,-0.470171 -1.12117,-0.699229 -0.54251,-0.156723 -1.4949,-0.168779 -0.9524,-0.01206 -1.98919,-0.01206 h -1.01268 v 4.472652 h 0.33756 q 1.95302,0 2.79692,-0.01206 0.84389,-0.01206 1.55518,-0.313447 0.72334,-0.301392 0.98856,-0.795674 0.27728,-0.506338 0.27728,-1.157344 z" />
        <path
           id="path1692"
           style="font-weight:700;font-size:24.69px;font-family:FrutigerLTArabic-65Bold, 'Frutiger LT Arabic';fill:#0b194f;fill-opacity:1"
           d="m 153.25464,29.760149 h -5.67821 l -5.36478,-7.185176 -1.08501,1.314067 v 5.871109 h -4.62937 V 11.809265 h 4.62937 v 8.125518 l 6.41362,-8.125518 h 5.36477 l -7.0164,8.306353 z" />
      </g>
    </g>
  </g>
</svg>
