<?xml version="1.0" encoding="UTF-8" standalone="no"?>
<svg
   xmlns:dc="http://purl.org/dc/elements/1.1/"
   xmlns:cc="http://creativecommons.org/ns#"
   xmlns:rdf="http://www.w3.org/1999/02/22-rdf-syntax-ns#"
   xmlns:svg="http://www.w3.org/2000/svg"
   xmlns="http://www.w3.org/2000/svg"
   xmlns:sodipodi="http://sodipodi.sourceforge.net/DTD/sodipodi-0.dtd"
   xmlns:inkscape="http://www.inkscape.org/namespaces/inkscape"
   inkscape:version="1.0 (4035a4fb49, 2020-05-01)"
   sodipodi:docname="forget.svg"
   version="1.1"
   viewBox="0 0 1032.4687 546.54535"
   height="546.54535"
   width="1032.4686"
   data-name="Layer 1"
   id="fafd2220-3b39-4538-bdd8-5627e33a2e32">
  <metadata
     id="metadata110">
    <rdf:RDF>
      <cc:Work
         rdf:about="">
        <dc:format>image/svg+xml</dc:format>
        <dc:type
           rdf:resource="http://purl.org/dc/dcmitype/StillImage" />
        <dc:title>forgot password</dc:title>
      </cc:Work>
    </rdf:RDF>
  </metadata>
  <sodipodi:namedview
     inkscape:current-layer="fafd2220-3b39-4538-bdd8-5627e33a2e32"
     inkscape:window-maximized="1"
     inkscape:window-y="-8"
     inkscape:window-x="-8"
     inkscape:cy="326.30316"
     inkscape:cx="541.44962"
     inkscape:zoom="0.38679001"
     fit-margin-bottom="0"
     fit-margin-right="0"
     fit-margin-left="0"
     fit-margin-top="0"
     showgrid="false"
     id="namedview108"
     inkscape:window-height="838"
     inkscape:window-width="1440"
     inkscape:pageshadow="2"
     inkscape:pageopacity="0"
     guidetolerance="10"
     gridtolerance="10"
     objecttolerance="10"
     borderopacity="1"
     bordercolor="#666666"
     pagecolor="#ffffff" />
  <defs
     id="defs9">
    <linearGradient
       gradientTransform="matrix(0.60031394,0,0,0.60031394,145.21673,-27.290772)"
       gradientUnits="userSpaceOnUse"
       y2="67.879997"
       x2="593.13"
       y1="855.90002"
       x1="593.13"
       id="1c2fe1a5-71ac-4c34-8a58-b17380e220b9">
      <stop
         id="stop2"
         stop-opacity="0.25"
         stop-color="gray"
         offset="0" />
      <stop
         id="stop4"
         stop-opacity="0.12"
         stop-color="gray"
         offset="0.54" />
      <stop
         id="stop6"
         stop-opacity="0.1"
         stop-color="gray"
         offset="1" />
    </linearGradient>
  </defs>
  <title
     id="title11">forgot password</title>
  <g
     transform="matrix(0.95230698,0,0,0.95230698,-2.4555982,-42.390294)"
     id="g975">
    <path
       d="M 1067.0929,523.09847 H 956.93638 a 9.521473,11.377773 0 1 0 0,22.75554 h 19.04288 a 9.52148,11.377781 0 0 0 0,22.75556 h -13.59785 a 9.521473,11.377773 0 0 0 0,22.75553 h 57.49449 c -12.7579,7.08529 -27.67012,12.12764 -44.84533,14.77281 C 818.2598,630.20423 762.28718,614.28599 742.54261,597.87177 718.18305,577.67871 691.00707,562.82326 661.96337,555.66713 565.22678,531.84879 384.33362,503.15343 220.3785,564.87799 138.89011,595.58084 78.32227,543.71663 42.025052,457.08732 H 1086.2149 c -1.3637,25.17635 -5.445,48.41606 -12.9357,68.7744 a 9.4671211,11.312824 0 0 0 -6.1863,-2.76325 z"
       fill="#81217d"
       opacity="0.1"
       id="path67"
       style="stroke-width:1.08026" />
    <path
       d="M 4.9471412,338.64848 A 485.27395,419.96226 0 0 1 9.2261219,227.93225 L 976.37457,197.32408 a 454.57993,393.39926 0 0 1 67.19873,88.68587 z M 387.46627,259.66931 h -19.04295 a 9.5214743,8.240005 0 0 0 0,-16.48001 H 258.26674 a 9.5214743,8.240005 0 1 0 0,16.48001 h 19.04296 a 9.521477,8.2400074 0 0 0 0,16.48001 h -13.59787 a 9.5214743,8.240005 0 0 0 0,16.48001 H 373.8684 a 9.5214743,8.240005 0 1 0 0,-16.48001 h 13.59787 a 9.521477,8.2400074 0 0 0 0,-16.48001 z"
       fill="#81217d"
       opacity="0.1"
       id="path69"
       style="stroke-width:0.919315" />
    <path
       d="M 1086.2643,456.51433 30.364088,434.27871 C 17.527147,405.70595 9.0581249,373.40446 5.105256,339.92276 H 1067.7649 a 451.08164,390.37179 0 0 1 15.347,60.14732 c 3.1623,19.67852 4.4272,38.71562 3.1524,56.44425 z M 219.46934,383.67559 h -19.04295 a 9.521473,8.2400039 0 0 0 0,-16.48 H 90.269817 a 9.521473,8.2400039 0 1 0 0,16.48 h 19.042943 a 9.52148,8.24001 0 0 0 0,16.48002 H 95.71489 a 9.521473,8.2400039 0 0 0 0,16.48 h 110.15658 a 9.521473,8.2400039 0 1 0 0,-16.48 h 13.59787 a 9.52148,8.24001 0 0 0 0,-16.48002 z"
       fill="#81217d"
       opacity="0.1"
       id="path71"
       style="stroke-width:0.919315" />
    <g
       id="g952"
       transform="translate(56.87842,31.024588)">
      <path
         style="fill:url(#1c2fe1a5-71ac-4c34-8a58-b17380e220b9);stroke-width:0.600314"
         id="path73"
         fill="url(#1c2fe1a5-71ac-4c34-8a58-b17380e220b9)"
         d="m 739.60558,486.21778 c 0,0 -26.75,-146.71673 -77.75867,-170.52518 -43.2226,-20.18856 -89.96305,-33.79768 -103.25399,-37.48961 a 57.396016,57.396016 0 0 0 -6.84959,-8.93868 c -18.1655,-18.96392 -29.0792,-18.60972 -30.84413,-18.3756 a 92.346297,92.346297 0 0 1 -1.80094,-11.40597 c -0.0541,-0.60031 -0.10806,-1.15861 -0.15608,-1.75291 l 0.15608,-0.078 c -0.10806,-1.13459 -0.20411,-2.30521 -0.28815,-3.51184 a 90.407281,90.407281 0 0 0 20.2846,-14.77372 c 0.0781,0.25813 0.14408,0.51626 0.22813,0.78041 q 19.63626,-16.59869 38.46211,-34.09784 c 3.60189,-3.36776 7.38386,-7.02367 8.6085,-11.77215 a 17.277036,17.277036 0 0 0 0.45024,-4.99462 c 0.16208,-3.60188 -0.69036,-7.2818 -0.83444,-10.93171 0,-0.60031 0.066,-1.1586 0.14408,-1.7289 0.84044,-5.97313 4.99461,-10.87769 8.40439,-15.89031 a 74.931187,74.931187 0 0 0 12.74467,-42.898442 72.637988,72.637988 0 0 0 -3.00157,-21.611305 c -2.65939,-8.896653 -8.19429,-18.243534 -17.40911,-20.188559 -3.56586,-0.750384 -7.2698,-0.28214 -10.9077,-0.516262 C 560.92213,54.556032 549.64823,42.309633 537.63596,33.33494 A 101.21894,101.21894 0 0 0 487.46171,13.860753 c -5.67296,-0.600311 -11.53203,-0.642331 -16.92885,1.15861 -12.12034,4.034106 -19.48019,16.490622 -31.1563,21.611296 -8.63251,3.805991 -18.60973,3.187666 -27.61443,6.045163 -13.40501,4.262228 -24.78096,18.009422 -25.08112,32.134803 0,0.522279 0,1.044549 0,1.566819 0,0.09005 0,0.180095 0,0.264144 -0.15008,7.137731 2.40126,14.40753 2.60537,21.71335 q 0,0.990522 0.03,1.987042 c -0.066,7.88813 -1.00853,15.80026 -3.88403,23.21414 -1.54882,3.99209 -3.54186,8.61451 -3.21768,12.6066 -0.1801,2.44328 0.29415,4.73647 1.99303,6.60345 l 2.89952,-2.55734 a 87.645836,87.645836 0 0 0 -1.45876,15.95634 c 0,26.97812 12.27042,51.13475 31.62454,67.39125 q 0.16809,2.69541 0.32417,5.77502 c 0.45624,8.89665 0.81643,20.05649 0.71437,32.21885 l -28.3108,26.02361 -72.78206,33.01727 c 0,0 -66.56282,14.05934 -52.22732,107.57025 l 6.84358,58.06236 h 60.76978 l -0.13807,0.30617 h 90.19717 l 0.0541,-0.30617 h 214.60022 l -0.042,0.30617 h 8.40439 v -0.30617 z M 521.43348,252.37749 a 62.384625,62.384625 0 0 1 4.32226,11.88621 48.691464,48.691464 0 0 1 -4.66444,-12.53456 l 0.09,0.16209 z m -103.14594,12.00627 q 0,1.7169 -0.06,3.46381 l -0.14408,0.20411 a 29.415384,29.415384 0 0 1 0.20411,-3.69794 z" />
      <path
         style="stroke-width:0.600314"
         id="path75"
         fill="#fdc2cc"
         d="m 545.1759,279.10947 -12.00628,114.65995 -64.23359,20.41068 c 0,0 -83.44364,-15.60816 -61.83234,-60.6317 15.37404,-32.02675 14.94782,-89.26069 13.42302,-119.63657 -0.60032,-12.33045 -1.41675,-20.23659 -1.41675,-20.23659 0,0 109.25715,-95.44991 100.25244,-9.60502 -1.74091,16.62269 -1.84297,29.61949 -0.87646,39.7768 4.05212,42.28612 26.68996,35.26245 26.68996,35.26245 z" />
      <path
         style="stroke-width:0.600314"
         id="path77"
         opacity="0.03"
         d="m 545.1759,279.10947 -12.00628,114.65995 -64.23359,20.41068 c 0,0 -83.44364,-15.60816 -61.83234,-60.6317 15.37404,-32.02675 14.94782,-89.26069 13.42302,-119.63657 -0.60032,-12.33045 -1.41675,-20.23659 -1.41675,-20.23659 0,0 109.25715,-95.44991 100.25244,-9.60502 -1.74091,16.62269 -1.84297,29.61949 -0.87646,39.7768 4.05212,42.28612 26.68996,35.26245 26.68996,35.26245 z" />
      <path
         style="stroke-width:0.600314"
         id="path79"
         opacity="0.1"
         d="m 519.3624,202.26927 c -1.74091,16.6227 -1.84297,29.61949 -0.87646,39.77681 a 87.087544,87.087544 0 0 1 -97.95923,-9.93519 c -0.60032,-12.33045 -1.41675,-20.23659 -1.41675,-20.23659 0,0 109.25715,-95.44991 100.25244,-9.60503 z" />
      <circle
         style="stroke-width:0.600314"
         id="circle81"
         fill="#fdc2cc"
         r="87.045525"
         cy="162.05424"
         cx="476.74008" />
      <circle
         style="stroke-width:0.600314"
         id="circle83"
         opacity="0.03"
         r="87.045525"
         cy="162.05424"
         cx="476.74008" />
      <path
         style="stroke-width:0.600314"
         id="path85"
         fill="#81217d"
         d="M 731.27322,486.21778 H 279.83713 l -6.60345,-57.02983 C 259.42646,337.33991 323.66005,323.5327 323.66005,323.5327 l 70.23674,-32.41696 27.91459,-26.11366 c -9.00471,34.2179 59.13093,105.35511 59.13093,105.35511 v 0 a 16.136439,16.136439 0 0 0 1.24265,-1.29068 c 1.83696,-2.00505 6.22525,-7.02367 16.50262,-19.47419 3.67393,-4.46033 8.11024,-9.86916 13.45304,-16.43659 25.69344,-31.57651 12.51054,-68.88603 8.57248,-76.60006 l -0.24612,-0.48025 c -0.15009,-0.27615 -0.26415,-0.49826 -0.35419,-0.65434 a 0.97851176,0.97851176 0 0 0 -0.09,-0.16209 0.95449915,0.95449915 0 0 1 -0.066,-0.12006 l 33.01727,25.8135 c 0,0 1.26667,0.33617 3.60188,0.99652 12.84672,3.60188 57.97833,16.99488 99.65212,36.82325 49.23174,23.37023 75.04525,167.44558 75.04525,167.44558 z" />
      <path
         style="stroke-width:0.600314"
         id="path87"
         fill="#81217d"
         d="m 577.59285,348.74588 c -5.40282,-5.40282 -42.02198,-12.00628 -42.02198,-12.00628 1.20063,14.40753 -43.2226,36.61915 -43.2226,36.61915 L 495.65,486.21778 h -21.29914 l -3.60188,-101.45306 10.20533,-14.40753 v 0 l 1.24265,-1.29068 a 198.1036,198.1036 0 0 0 16.50263,-19.47419 c 3.67392,-4.46033 8.11024,-9.86916 13.45304,-16.43659 25.69344,-31.57651 12.51054,-68.88603 8.57248,-76.60006 l -0.24613,-0.48025 c -0.14407,-0.28215 -0.25813,-0.49826 -0.35419,-0.65434 a 0.97851176,0.97851176 0 0 0 -0.09,-0.16209 0.95449915,0.95449915 0 0 1 -0.066,-0.12006 v 0 c 0,0 10.80565,-2.40126 30.0157,18.00941 a 56.279432,56.279432 0 0 1 6.60345,8.80061 c 15.60816,25.0451 25.76548,71.55742 21.00499,66.79693 z" />
      <path
         style="stroke-width:0.600314"
         id="path89"
         opacity="0.1"
         d="m 577.59285,348.74588 c -5.40282,-5.40282 -42.02198,-12.00628 -42.02198,-12.00628 1.20063,14.40753 -43.2226,36.61915 -43.2226,36.61915 L 495.65,486.21778 h -21.29914 l -3.60188,-101.45306 10.20533,-14.40753 v 0 l 1.24265,-1.29068 a 198.1036,198.1036 0 0 0 16.50263,-19.47419 c 3.67392,-4.46033 8.11024,-9.86916 13.45304,-16.43659 25.69344,-31.57651 12.51054,-68.88603 8.57248,-76.60006 l -0.24613,-0.48025 c -0.14407,-0.28215 -0.25813,-0.49826 -0.35419,-0.65434 a 0.97851176,0.97851176 0 0 0 -0.09,-0.16209 0.95449915,0.95449915 0 0 1 -0.066,-0.12006 v 0 c 0,0 10.80565,-2.40126 30.0157,18.00941 a 56.279432,56.279432 0 0 1 6.60345,8.80061 c 15.60816,25.0451 25.76548,71.55742 21.00499,66.79693 z" />
      <path
         style="stroke-width:0.600314"
         id="path91"
         opacity="0.1"
         d="m 333.26508,394.97005 c 0,0 28.21475,57.63014 29.71553,91.54788" />
      <polygon
         transform="matrix(0.60031395,0,0,0.60031395,176.10288,-0.81692884)"
         id="polygon93"
         opacity="0.1"
         points="773.8,811.81 773.8,714.31 760.3,811.81 " />
      <path
         style="stroke-width:0.600314"
         id="path95"
         opacity="0.1"
         d="m 339.56837,486.51793 44.72339,-101.75321 c 0,0 12.60659,-24.01256 15.60816,-48.02512 3.00157,-24.01255 19.21004,-61.83234 19.21004,-61.83234 0,0 40.22104,-51.02668 58.83077,-43.82292 18.60974,7.20378 -16.20847,34.21791 -16.20847,34.21791 0,0 51.02669,19.81035 16.20847,78.64112 -34.8182,58.83077 -35.41852,48.02511 -35.41852,48.02511 l -17.10895,94.54945 z" />
      <path
         style="stroke-width:0.600314"
         id="path97"
         fill="#fdc2cc"
         d="m 338.36774,486.51793 44.72339,-101.75321 c 0,0 12.6066,-24.01256 15.60816,-48.02512 1.909,-15.26598 9.15479,-36.11489 14.17942,-49.27977 a 75.555513,75.555513 0 0 1 14.23945,-23.41224 c 13.0028,-14.55162 36.61914,-38.01789 49.62194,-32.97525 18.60974,7.20377 -16.20847,34.2179 -16.20847,34.2179 0,0 51.02669,19.81035 16.20847,78.64112 -34.8182,58.83077 -35.41851,48.02511 -35.41851,48.02511 l -17.10896,94.54945 z" />
      <circle
         style="stroke-width:0.600314"
         id="circle99"
         opacity="0.15"
         fill="#ffffff"
         r="1.8009418"
         cy="113.12867"
         cx="503.45407" />
      <circle
         style="stroke-width:0.600314"
         id="circle101"
         opacity="0.15"
         fill="#ffffff"
         r="1.8009418"
         cy="116.73054"
         cx="495.04968" />
      <path
         style="stroke-width:0.600314"
         id="path103"
         opacity="0.1"
         d="m 414.90176,52.35888 c 8.68655,-2.80947 18.3276,-2.203151 26.65995,-5.93711 11.26789,-5.054641 18.36961,-17.289041 30.06372,-21.251114 5.21073,-1.764921 10.86569,-1.698887 16.33455,-1.134588 a 96.692565,96.692565 0 0 1 48.42132,19.132003 c 11.59206,8.818612 22.46975,20.842905 37.00335,21.785391 3.51183,0.228123 7.0837,-0.234122 10.52351,0.504264 8.90865,1.909004 14.24545,11.087798 16.80878,19.810363 a 74.595011,74.595011 0 0 1 -9.40091,61.592211 c -3.28972,4.92257 -7.29982,9.74309 -8.11025,15.60816 -0.79241,5.75101 1.65687,11.71212 0.22813,17.34307 -1.20064,4.66444 -4.80252,8.25432 -8.30835,11.56205 q -18.1595,17.17498 -37.11741,33.4675 c -6.56744,-20.86691 3.0676,-43.33666 1.56682,-65.15807 -0.60032,-8.50045 -3.60189,-17.7813 -11.09981,-21.7914 -7.01767,-3.74596 -15.98636,-1.80094 -23.08808,-5.40283 -7.92413,-3.99208 -11.17784,-13.44703 -17.16897,-19.99045 -10.20533,-11.16584 -27.9206,-12.606594 -42.19006,-7.56395 -14.26947,5.04263 -25.93357,15.41606 -37.21947,25.53135 l -20.51273,18.39962 c -4.00409,-4.51436 -0.96651,-11.44199 1.20063,-17.08494 3.22969,-8.45842 3.93806,-17.57719 3.72195,-26.55788 -0.17409,-7.203768 -2.65939,-14.317495 -2.51532,-21.329158 0.28815,-13.831233 11.2619,-27.350304 24.19865,-31.534492 z" />
      <path
         style="stroke-width:0.600314"
         id="path105"
         fill="#865a61"
         d="m 414.90176,50.557939 c 8.68655,-2.80947 18.3276,-2.203151 26.65995,-5.93711 11.26789,-5.054641 18.36961,-17.289042 30.06372,-21.251114 5.21073,-1.764921 10.86569,-1.698887 16.33455,-1.134588 a 96.692565,96.692565 0 0 1 48.42132,19.132002 c 11.59206,8.818613 22.46975,20.842897 37.00335,21.785392 3.51183,0.228123 7.0837,-0.234122 10.52351,0.504264 8.90865,1.909004 14.24545,11.087797 16.80878,19.810363 a 74.595011,74.595011 0 0 1 -9.40091,61.592212 c -3.28972,4.92257 -7.29982,9.74309 -8.11025,15.60816 -0.79241,5.75101 1.65687,11.71212 0.22813,17.34307 -1.20064,4.66444 -4.80252,8.25432 -8.30835,11.56205 q -18.1595,17.17498 -37.11741,33.4675 c -6.56744,-20.86691 3.0676,-43.33666 1.56682,-65.15808 -0.60032,-8.50044 -3.60189,-17.78129 -11.09981,-21.79139 -7.01767,-3.74596 -15.98636,-1.80095 -23.08808,-5.40283 -7.92413,-3.99208 -11.17784,-13.44703 -17.16897,-19.99045 -10.20533,-11.165844 -27.9206,-12.606596 -42.19006,-7.56396 -14.26947,5.04264 -25.93357,15.41607 -37.21947,25.53136 l -20.51273,18.39962 c -4.00409,-4.51436 -0.96651,-11.44199 1.20063,-17.08494 3.22969,-8.45842 3.93806,-17.57719 3.72195,-26.55788 -0.17409,-7.203779 -2.65939,-14.317496 -2.51532,-21.329159 0.28815,-13.831234 11.2619,-27.350305 24.19865,-31.534492 z" />
    </g>
  </g>
</svg>
