<?xml version="1.0" encoding="UTF-8" standalone="no"?>
<svg
   xmlns:dc="http://purl.org/dc/elements/1.1/"
   xmlns:cc="http://creativecommons.org/ns#"
   xmlns:rdf="http://www.w3.org/1999/02/22-rdf-syntax-ns#"
   xmlns:svg="http://www.w3.org/2000/svg"
   xmlns="http://www.w3.org/2000/svg"
   xmlns:sodipodi="http://sodipodi.sourceforge.net/DTD/sodipodi-0.dtd"
   xmlns:inkscape="http://www.inkscape.org/namespaces/inkscape"
   inkscape:version="1.0 (4035a4fb49, 2020-05-01)"
   sodipodi:docname="register.d30d8700.svg"
   version="1.1"
   viewBox="0 0 972.0042 639.89567"
   height="639.89567"
   width="972.0042"
   data-name="Layer 1"
   id="b944483d-564a-4430-a20f-83b53d0ebb22">
  <metadata
     id="metadata57">
    <rdf:RDF>
      <cc:Work
         rdf:about="">
        <dc:format>image/svg+xml</dc:format>
        <dc:type
           rdf:resource="http://purl.org/dc/dcmitype/StillImage" />
        <dc:title></dc:title>
      </cc:Work>
    </rdf:RDF>
  </metadata>
  <defs
     id="defs55" />
  <sodipodi:namedview
     inkscape:current-layer="b944483d-564a-4430-a20f-83b53d0ebb22"
     inkscape:window-maximized="1"
     inkscape:window-y="-8"
     inkscape:window-x="-8"
     inkscape:cy="34.644034"
     inkscape:cx="394.95377"
     inkscape:zoom="0.98140995"
     showgrid="false"
     id="namedview53"
     inkscape:window-height="838"
     inkscape:window-width="1440"
     inkscape:pageshadow="2"
     inkscape:pageopacity="0"
     guidetolerance="10"
     gridtolerance="10"
     objecttolerance="10"
     borderopacity="1"
     bordercolor="#666666"
     pagecolor="#ffffff" />
  <path
     style="stroke-width:0.995177"
     id="path2"
     fill="#e6e6e6"
     d="m 634.39182,281.11516 q -1.67209,8.7924 -4.01085,17.40567 c -0.1691,0.66676 -0.35813,1.32359 -0.54715,1.99035 H 608.1489 a 6.9739975,6.9739975 0 0 0 -6.96625,6.96625 v 61.82045 c -0.65698,1.22407 -1.32366,2.43818 -1.99035,3.65229 -3.44332,6.26963 -7.02601,12.46959 -10.68845,18.58992 A 706.719,706.719 0 0 1 345.98896,633.91567 l 5.89186,-13.29558 c -2.15995,-0.14928 -4.32911,-0.29855 -6.48856,-0.44778 C 298.3701,616.9579 251.18857,613.39515 205.27093,602.82636 157.23369,591.76993 110.24165,572.59286 72.593993,540.79692 34.936136,508.99104 7.3301405,463.57113 3.4986085,414.42924 a 144.18473,144.18473 0 0 1 5.045861,-50.16691 C 17.371339,332.89432 36.658238,304.67107 64.48342,287.972 c 43.70813,-26.22295 100.72195,-20.87884 146.79844,0.93546 46.06679,21.80435 83.56531,57.89945 120.17794,93.36753 A 464.17204,464.17204 0 0 0 181.27735,225.51458 C 160.81643,212.41804 139.10183,200.75455 121.70615,183.78677 104.32017,166.82894 91.492192,143.05413 94.567638,118.96088 98.060485,91.633304 120.44228,70.893799 142.86341,54.901295 c 8.9566,-6.389051 18.20181,-12.449677 27.73573,-18.022674 26.89944,-15.763624 55.99866,-27.6559983 86.72965,-32.0646455 41.62837,-5.981007 86.59068,3.0950099 118.50586,30.4823045 35.95565,30.860459 50.70402,80.62931 49.30111,128.23862 22.15242,-32.20395 56.31695,-56.85452 94.90002,-57.89944 40.05591,-1.0748 78.13167,24.23258 98.19411,58.92446 20.05322,34.68194 23.65541,77.19598 16.16193,116.55524 z" />
  <path
     id="path4"
     fill="#fff"
     transform="translate(-113.9979 -130.05217)"
     d="M493.714,543.853c23.57462-2.07613,45.35181-4.50171,68.19624-10.966,22.14346-6.26588,43.45115-16.755,59.21453-33.88211,16.95474-18.42154,26.107-42.34547,32.56437-66.16088,3.60029-13.2782,6.55859-26.74191,9.3499-40.21016q4.5429-21.91983,8.0729-44.0334,7.02688-44.01759,10.03312-88.55371.36315-5.406.66589-10.81583c.12515-2.22475-3.33532-2.21765-3.46007,0q-2.46957,43.89984-8.885,87.45746c-4.22061,28.53-9.62074,56.93651-16.4723,84.95519-5.80436,23.73626-13.31957,47.84312-28.20589,67.60251-13.95951,18.5292-34.12179,30.63771-55.89217,37.87744-22.15269,7.36687-45.51013,10.30809-68.65936,12.49516-2.83979.2683-3.68075.524-6.52219.77421-2.20087.19382-2.22133,3.6557,0,3.46007Z" />
  <path
     id="path6"
     fill="#fff"
     transform="translate(-113.9979 -130.05217)"
     d="M121.48935,495.5606a375.00513,375.00513,0,0,1,87.7008,15.45407,379.00972,379.00972,0,0,1,81.67626,35.55178,369.763,369.763,0,0,1,68.78,51.786,378.86155,378.86155,0,0,1,53.72732,64.062A375.10127,375.10127,0,0,1,451.82,736.94738q1.82712,4.81062,3.51989,9.67046c.7291,2.089,4.073,1.19038,3.33647-.91983a378.64264,378.64264,0,0,0-36.72857-76.38714,383.57085,383.57085,0,0,0-52.70037-66.3915A373.9613,373.9613,0,0,0,301.967,549.22721a381.91664,381.91664,0,0,0-169.5742-56.37564q-5.44594-.45642-10.90341-.751c-2.225-.12179-2.21817,3.33866,0,3.46008Z" />
  <path
     id="path8"
     fill="#fff"
     transform="translate(-113.9979 -130.05217)"
     d="M283.26691,168.09379A203.79908,203.79908,0,0,1,336.76826,194.238a251.24589,251.24589,0,0,1,45.67206,40.56014,336.2502,336.2502,0,0,1,37.81981,52.12109,444.66152,444.66152,0,0,1,30.07012,61.13547,553.19446,553.19446,0,0,1,21.8983,66.49512,621.48414,621.48414,0,0,1,14.00264,69.475,620.23132,620.23132,0,0,1,6.0274,69.86938,553.4891,553.4891,0,0,1-1.97945,67.02454,426.91315,426.91315,0,0,1-10.063,61.706,291.56248,291.56248,0,0,1-18.15494,53.35662q-2.69669,5.84088-5.72231,11.52063c-1.04652,1.96452,1.93922,3.71452,2.98767,1.74637A266.70637,266.70637,0,0,0,479.7605,697.819a398.28713,398.28713,0,0,0,12.18558-60.49935,526.37456,526.37456,0,0,0,4.02614-66.88946,613.74369,613.74369,0,0,0-4.18784-70.28791,633.10727,633.10727,0,0,0-12.19009-70.23182,573.11338,573.11338,0,0,0-20.38091-68.39936,475.91036,475.91036,0,0,0-28.34164-62.94527,364.89738,364.89738,0,0,0-36.34133-54.851A270.58336,270.58336,0,0,0,350.134,199.71859a214.68529,214.68529,0,0,0-52.06528-30.03253q-6.8463-2.725-13.882-4.92875c-2.129-.66982-3.04,2.66945-.91983,3.33648Z" />
  <ellipse
     id="ellipse10"
     fill="#e6e6e6"
     ry="10"
     rx="247.5"
     cy="629.89567"
     cx="374.5042" />
  <path
     id="path12"
     fill="#ffb8b8"
     d="m 700.45806,314.09106 a 10.52585,10.52585 0 0 0 -0.2393,1.64013 l -42.95745,24.782 -10.44141,-6.01094 -11.13117,14.57228 22.33714,15.92056 49.00792,-38.66268 a 10.4958,10.4958 0 1 0 -6.57573,-12.24133 z" />
  <path
     id="path14"
     fill="#81217d"
     d="m 602.62535,329.29532 33.82412,24.10721 15.128,-18.96712 -32.88021,-26.38264 a 13.32413,13.32413 0 0 0 -19.18895,2.659 v 0 a 13.32412,13.32412 0 0 0 3.11704,18.58355 z" />
  <polygon
     transform="translate(107.2849,-2.59406)"
     id="polygon16"
     fill="#ffb8b8"
     points="437.379,610.064 455.009,565.8 437.506,561.213 425.519,606.957 " />
  <path
     id="path18"
     fill="#2f2e41"
     d="m 564.64996,624.47566 -37.27243,-9.76642 3.77339,-14.40071 22.87173,5.99304 a 14.88686,14.88686 0 0 1 10.62731,18.17408 v 0 z" />
  <polygon
     transform="translate(107.2849,-2.59406)"
     id="polygon20"
     fill="#ffb8b8"
     points="543.011,613.245 540.439,565.668 522.627,568.85 530.942,615.401 " />
  <path
     id="path22"
     fill="#2f2e41"
     d="m 675.57326,617.70024 -37.93033,6.77545 -2.61779,-14.6549 23.27543,-4.15766 a 14.88687,14.88687 0 0 1 17.27269,12.03711 v 0 z" />
  <path
     id="path24"
     fill="#2f2e41"
     d="m 614.46229,262.91439 c 2.97389,0.7239 5.39344,3.75427 6.84643,7.26492 a 50.67542,50.67542 0 0 1 2.70406,11.41446 c 1.14169,7.25673 2.2381,15.11271 -0.12326,21.83369 -2.76764,7.87732 -10.14212,12.00315 -16.53891,10.06427 -6.39679,-1.93888 -11.48427,-9.21664 -13.22252,-17.59408 a 42.6097,42.6097 0 0 1 2.92436,-25.08432 c 1.81714,-4.13706 4.32184,-7.95379 7.6504,-9.82035 a 7.54966,7.54966 0 0 1 10.06835,2.098" />
  <path
     id="path26"
     fill="#2f2e41"
     d="m 631.2891,394.3016 22.97681,205.79407 -18.97681,7.20593 -35,-138 -48.7282,126.17811 -20.7718,1.154 c 0,0 28.5,-196.3321 49.62152,-200.79406 z" />
  <circle
     id="circle28"
     fill="#ffb8b8"
     r="24.561029"
     cy="264.61658"
     cx="611.98987" />
  <path
     id="path30"
     fill="#81217d"
     d="m 622.53129,299.4816 -26.54182,-3.462 c 0,0 -17.30983,20.7718 -16.15584,56.54546 1.15399,35.77366 -2.885,46.73654 -2.885,46.73654 l 55.34045,1 c -7.99998,-11 25.46145,-74.17712 -9.75779,-100.82 z" />
  <path
     id="path32"
     fill="#ffb8b8"
     d="m 636.7891,405.3016 a 10.52608,10.52608 0 0 0 -1.65137,0.1424 l -33.95508,-36.14612 3.46192,-11.53992 -16.73291,-7.50091 -10.38623,25.38772 48.852,38.85943 a 10.49579,10.49579 0 1 0 10.41162,-9.20264 z" />
  <path
     id="path34"
     fill="#81217d"
     d="m 599.59944,313.54465 -15.72685,38.44341 21.92579,10.3859 18.158,-38.04525 a 13.32414,13.32414 0 0 0 -6.97982,-18.0712 v 0 a 13.32412,13.32412 0 0 0 -17.37712,7.28714 z" />
  <path
     id="path36"
     fill="#2f2e41"
     d="m 605.56517,286.94577 c 3.84844,-2.22012 4.259,-7.57567 3.736,-11.98768 -0.523,-4.41201 -1.39666,-9.33053 1.19673,-12.938 3.09522,-4.30552 9.31374,-4.39124 14.61451,-4.53178 5.30077,-0.14054 11.75595,-1.69268 13.1294,-6.81435 0.90752,-3.3842 -1.03415,-7.01583 -3.82049,-9.14014 -2.78634,-2.12431 -6.2722,-3.0635 -9.66037,-3.95608 -7.57934,-1.99671 -15.4055,-4.01025 -23.16624,-2.91282 a 29.5352,29.5352 0 0 0 -25.16265,32.98007 c 1.25611,9.851 3.07792,14.15262 1.88212,18.49613 -2.22732,8.09027 -11.831,13.2875 -12.02224,21.6766 -0.1496,6.562 5.64658,11.62417 11.30167,14.95607 4.48561,2.64287 9.32664,4.88544 14.496,5.50415 5.16936,0.61871 10.73488,-0.56586 14.58577,-4.0696 4.96672,-4.519 6.1953,-12.06877 4.77109,-18.63088 -1.42421,-6.56211 -5.07749,-12.38957 -8.69149,-18.04895" />
  <path
     style="fill:#cccccc;stroke-width:0.677654"
     id="path38"
     fill="#3f3d56"
     d="M 952.95504,294.3016 H 712.38798 a 6.1080789,6.1080789 0 0 0 -6.09888,6.09888 v 154.50504 a 6.1080789,6.1080789 0 0 0 6.09888,6.09889 h 240.56706 a 6.1080789,6.1080789 0 0 0 6.09888,-6.09889 V 300.40048 a 6.1080789,6.1080789 0 0 0 -6.09888,-6.09888 z m 4.74358,160.60392 a 4.7488479,4.7488479 0 0 1 -4.74358,4.74358 H 712.38798 a 4.7488479,4.7488479 0 0 1 -4.74357,-4.74358 V 300.40048 a 4.7488547,4.7488547 0 0 1 4.74357,-4.74357 h 240.56706 a 4.7488547,4.7488547 0 0 1 4.74358,4.74357 z" />
  <path
     style="fill:#cccccc;stroke-width:0.677654"
     id="path40"
     fill="#81217d"
     d="m 763.73735,371.21226 h -37.9486 a 5.7669277,5.7669277 0 0 1 -5.76006,-5.76005 V 327.5036 a 5.7669277,5.7669277 0 0 1 5.76006,-5.76006 h 37.9486 a 5.7669209,5.7669209 0 0 1 5.76006,5.76006 v 37.94861 a 5.7669209,5.7669209 0 0 1 -5.76006,5.76005 z" />
  <path
     style="stroke-width:0.677654"
     id="path42"
     fill="#cccccc"
     d="M 940.42606,411.539 H 724.9321 a 4.40475,4.40475 0 1 1 0,-8.8095 h 215.49396 a 4.40475,4.40475 0 0 1 0,8.8095 z" />
  <path
     style="stroke-width:0.677654"
     id="path44"
     fill="#cccccc"
     d="M 940.57065,390.19291 H 725.07678 a 4.40475,4.40475 0 0 1 0,-8.8095 h 215.49387 a 4.40475,4.40475 0 0 1 0,8.8095 z" />
  <path
     style="stroke-width:0.677654"
     id="path46"
     fill="#cccccc"
     d="M 834.17903,361.04721 H 802.3293 a 4.4047489,4.4047489 0 0 1 0,-8.80949 h 31.84973 a 4.4047489,4.4047489 0 0 1 0,8.80949 z" />
  <path
     style="stroke-width:0.677654"
     id="path48"
     fill="#cccccc"
     d="M 940.57065,339.36888 H 802.3293 a 4.4047489,4.4047489 0 0 1 0,-8.80949 h 138.24135 a 4.4047489,4.4047489 0 0 1 0,8.80949 z" />
  <path
     style="stroke-width:0.677654"
     id="path50"
     fill="#cccccc"
     d="M 828.7578,433.22392 H 724.9321 a 4.40475,4.40475 0 1 1 0,-8.8095 h 103.8257 a 4.40475,4.40475 0 1 1 0,8.8095 z" />
</svg>
