<svg data-v-0bfbaaa4="" id="ekka38acq961" xmlns="http://www.w3.org/2000/svg" xmlns:xlink="http://www.w3.org/1999/xlink" viewBox="0 0 280 132" shape-rendering="geometricPrecision" text-rendering="geometricPrecision" width="280"  height="132" ><defs><clipPath id="ekka38acq962"><rect id="ekka38acq963" width="280" height="106.110000" rx="0" ry="0" fill="none" stroke="none" stroke-width="1"></rect></clipPath> <radialGradient id="ekka38acq9615-fill" cx="-29.165202" cy="98.615406" r="35.600000" spreadMethod="pad" gradientUnits="userSpaceOnUse"><stop id="ekka38acq9615-fill-0" offset="0%" stop-color="rgba(83,95,120,0.3)"></stop> <stop id="ekka38acq9615-fill-1" offset="100%" stop-color="rgba(255,255,255,0)"></stop></radialGradient> <radialGradient id="ekka38acq9616-fill" cx="-29.165202" cy="98.615406" r="35.600000" spreadMethod="pad" gradientUnits="userSpaceOnUse"><stop id="ekka38acq9616-fill-0" offset="0%" stop-color="rgba(83,95,120,0.3)"></stop> <stop id="ekka38acq9616-fill-1" offset="100%" stop-color="rgba(255,255,255,0)"></stop></radialGradient> <radialGradient id="ekka38acq9618-fill" cx="51.119487" cy="82.350999" r="35.600000" spreadMethod="pad" gradientUnits="userSpaceOnUse"><stop id="ekka38acq9618-fill-0" offset="0%" stop-color="rgba(83,95,120,0.6)"></stop> <stop id="ekka38acq9618-fill-1" offset="100%" stop-color="rgba(255,255,255,0)"></stop></radialGradient> <radialGradient id="ekka38acq9619-fill" cx="79.436175" cy="84.195395" r="35.600000" spreadMethod="pad" gradientUnits="userSpaceOnUse"><stop id="ekka38acq9619-fill-0" offset="0%" stop-color="rgba(83,95,120,0.6)"></stop> <stop id="ekka38acq9619-fill-1" offset="100%" stop-color="rgba(255,255,255,0)"></stop></radialGradient> <radialGradient id="ekka38acq9622-fill" cx="0" cy="0" r="18.990000" spreadMethod="pad" gradientUnits="userSpaceOnUse"><stop id="ekka38acq9622-fill-0" offset="0%" stop-color="rgb(62,76,104)"></stop> <stop id="ekka38acq9622-fill-1" offset="100%" stop-color="rgba(230,250,255,0)"></stop></radialGradient> <radialGradient id="ekka38acq9624-fill" cx="0" cy="0" r="18.990000" spreadMethod="pad" gradientUnits="userSpaceOnUse"><stop id="ekka38acq9624-fill-0" offset="0%" stop-color="rgb(62,76,104)"></stop> <stop id="ekka38acq9624-fill-1" offset="100%" stop-color="rgba(230,250,255,0)"></stop></radialGradient> <radialGradient id="ekka38acq9626-fill" cx="0" cy="0" r="18.990000" spreadMethod="pad" gradientUnits="userSpaceOnUse"><stop id="ekka38acq9626-fill-0" offset="0%" stop-color="rgb(62,76,104)"></stop> <stop id="ekka38acq9626-fill-1" offset="100%" stop-color="rgba(230,250,255,0)"></stop></radialGradient> <linearGradient id="ekka38acq9630-fill" x1="128.019976" y1="90.100000" x2="111.029976" y2="97.140000" spreadMethod="pad" gradientUnits="userSpaceOnUse"><stop id="ekka38acq9630-fill-0" offset="0%" stop-color="rgb(255,255,255)"></stop> <stop id="ekka38acq9630-fill-1" offset="67%" stop-color="rgb(208,221,235)"></stop> <stop id="ekka38acq9630-fill-2" offset="100%" stop-color="rgb(99,144,184)"></stop></linearGradient> <linearGradient id="ekka38acq9630-stroke" x1="116.990000" y1="112.060000" x2="116.990000" y2="75.020000" spreadMethod="pad" gradientUnits="userSpaceOnUse"><stop id="ekka38acq9630-stroke-0" offset="18%" stop-color="rgb(98,143,183)"></stop> <stop id="ekka38acq9630-stroke-1" offset="100%" stop-color="rgb(207,222,239)"></stop></linearGradient> <radialGradient id="ekka38acq9631-fill" cx="117.869976" cy="93.540000" r="13.100000" spreadMethod="pad" gradientUnits="userSpaceOnUse"><stop id="ekka38acq9631-fill-0" offset="0%" stop-color="rgb(255,255,255)"></stop> <stop id="ekka38acq9631-fill-1" offset="100%" stop-color="rgba(255,255,255,0.3)"></stop></radialGradient> <linearGradient id="ekka38acq9632-fill" x1="120.419976" y1="111.700000" x2="120.419976" y2="75.370000" spreadMethod="pad" gradientUnits="userSpaceOnUse"><stop id="ekka38acq9632-fill-0" offset="0%" stop-color="rgb(154,183,209)"></stop> <stop id="ekka38acq9632-fill-1" offset="29%" stop-color="rgb(208,221,235)"></stop> <stop id="ekka38acq9632-fill-2" offset="87%" stop-color="rgb(255,255,255)"></stop> <stop id="ekka38acq9632-fill-3" offset="100%" stop-color="rgb(223,232,241)"></stop></linearGradient> <linearGradient id="ekka38acq9632-stroke" x1="120.420000" y1="112.060000" x2="120.420000" y2="75.020000" spreadMethod="pad" gradientUnits="userSpaceOnUse"><stop id="ekka38acq9632-stroke-0" offset="0%" stop-color="rgb(98,143,183)"></stop> <stop id="ekka38acq9632-stroke-1" offset="67%" stop-color="rgb(203,218,233)"></stop> <stop id="ekka38acq9632-stroke-2" offset="100%" stop-color="rgb(209,222,240)"></stop></linearGradient> <linearGradient id="ekka38acq9644-fill" x1="128.019976" y1="90.100000" x2="111.029976" y2="97.140000" spreadMethod="pad" gradientUnits="userSpaceOnUse"><stop id="ekka38acq9644-fill-0" offset="0%" stop-color="rgb(255,255,255)"></stop> <stop id="ekka38acq9644-fill-1" offset="67%" stop-color="rgb(208,221,235)"></stop> <stop id="ekka38acq9644-fill-2" offset="100%" stop-color="rgb(99,144,184)"></stop></linearGradient> <linearGradient id="ekka38acq9644-stroke" x1="116.990000" y1="112.060000" x2="116.990000" y2="75.020000" spreadMethod="pad" gradientUnits="userSpaceOnUse"><stop id="ekka38acq9644-stroke-0" offset="18%" stop-color="rgb(98,143,183)"></stop> <stop id="ekka38acq9644-stroke-1" offset="100%" stop-color="rgb(207,222,239)"></stop></linearGradient> <radialGradient id="ekka38acq9645-fill" cx="117.869976" cy="93.540000" r="13.100000" spreadMethod="pad" gradientUnits="userSpaceOnUse"><stop id="ekka38acq9645-fill-0" offset="0%" stop-color="rgb(255,255,255)"></stop> <stop id="ekka38acq9645-fill-1" offset="100%" stop-color="rgba(255,255,255,0.3)"></stop></radialGradient> <linearGradient id="ekka38acq9646-fill" x1="120.419976" y1="111.700000" x2="120.419976" y2="75.370000" spreadMethod="pad" gradientUnits="userSpaceOnUse"><stop id="ekka38acq9646-fill-0" offset="0%" stop-color="rgb(154,183,209)"></stop> <stop id="ekka38acq9646-fill-1" offset="29%" stop-color="rgb(208,221,235)"></stop> <stop id="ekka38acq9646-fill-2" offset="87%" stop-color="rgb(255,255,255)"></stop> <stop id="ekka38acq9646-fill-3" offset="100%" stop-color="rgb(223,232,241)"></stop></linearGradient> <linearGradient id="ekka38acq9646-stroke" x1="120.420000" y1="112.060000" x2="120.420000" y2="75.020000" spreadMethod="pad" gradientUnits="userSpaceOnUse"><stop id="ekka38acq9646-stroke-0" offset="0%" stop-color="rgb(98,143,183)"></stop> <stop id="ekka38acq9646-stroke-1" offset="67%" stop-color="rgb(203,218,233)"></stop> <stop id="ekka38acq9646-stroke-2" offset="100%" stop-color="rgb(209,222,240)"></stop></linearGradient> <radialGradient id="ekka38acq9656-fill" cx="140.110000" cy="91.450000" r="32.460000" spreadMethod="pad" gradientUnits="userSpaceOnUse"><stop id="ekka38acq9656-fill-0" offset="0%" stop-color="rgb(255,255,255)"></stop> <stop id="ekka38acq9656-fill-1" offset="36%" stop-color="rgb(245,248,251)"></stop> <stop id="ekka38acq9656-fill-2" offset="67%" stop-color="rgb(208,221,235)"></stop> <stop id="ekka38acq9656-fill-3" offset="100%" stop-color="rgb(99,144,184)"></stop></radialGradient> <linearGradient id="ekka38acq9656-stroke" x1="140" y1="122" x2="140" y2="65.080000" spreadMethod="pad" gradientUnits="userSpaceOnUse"><stop id="ekka38acq9656-stroke-0" offset="0%" stop-color="rgb(99,144,184)"></stop> <stop id="ekka38acq9656-stroke-1" offset="100%" stop-color="rgb(207,222,239)"></stop></linearGradient> <linearGradient id="ekka38acq9660-fill" x1="140" y1="109.120000" x2="140" y2="96.320000" spreadMethod="pad" gradientUnits="userSpaceOnUse"><stop id="ekka38acq9660-fill-0" offset="0%" stop-color="rgb(255,255,255)"></stop> <stop id="ekka38acq9660-fill-1" offset="36%" stop-color="rgb(245,248,251)"></stop> <stop id="ekka38acq9660-fill-2" offset="67%" stop-color="rgb(208,221,235)"></stop> <stop id="ekka38acq9660-fill-3" offset="100%" stop-color="rgb(154,183,209)"></stop></linearGradient> <radialGradient id="ekka38acq9665-fill" cx="140.240000" cy="96.080000" r="18.500000" spreadMethod="pad" gradientUnits="userSpaceOnUse"><stop id="ekka38acq9665-fill-0" offset="0%" stop-color="rgb(29,88,150)"></stop> <stop id="ekka38acq9665-fill-1" offset="16%" stop-color="rgb(24,78,137)"></stop> <stop id="ekka38acq9665-fill-2" offset="47%" stop-color="rgb(12,53,101)"></stop> <stop id="ekka38acq9665-fill-3" offset="88%" stop-color="rgb(0,13,45)"></stop> <stop id="ekka38acq9665-fill-4" offset="100%" stop-color="rgb(0,0,27)"></stop></radialGradient> <radialGradient id="ekka38acq9671-fill" cx="0" cy="0" r="18.990000" spreadMethod="pad" gradientUnits="userSpaceOnUse"><stop id="ekka38acq9671-fill-0" offset="28%" stop-color="rgb(62,76,104)"></stop> <stop id="ekka38acq9671-fill-1" offset="43%" stop-color="rgba(37,71,112,0.5)"></stop> <stop id="ekka38acq9671-fill-2" offset="69%" stop-color="rgba(76,107,151,0.2)"></stop> <stop id="ekka38acq9671-fill-3" offset="100%" stop-color="rgba(230,250,255,0)"></stop></radialGradient> <radialGradient id="ekka38acq9672-fill" cx="142.389976" cy="61.640000" r="55.740000" spreadMethod="pad" gradientUnits="userSpaceOnUse"><stop id="ekka38acq9672-fill-0" offset="0%" stop-color="rgb(25,66,114)"></stop> <stop id="ekka38acq9672-fill-1" offset="100%" stop-color="rgb(0,13,40)"></stop></radialGradient> <radialGradient id="ekka38acq9673-fill" cx="140.099976" cy="54.390000" r="33.350000" spreadMethod="pad" gradientUnits="userSpaceOnUse"><stop id="ekka38acq9673-fill-0" offset="0%" stop-color="rgb(255,255,255)"></stop> <stop id="ekka38acq9673-fill-1" offset="26%" stop-color="rgb(247,249,252)"></stop> <stop id="ekka38acq9673-fill-2" offset="67%" stop-color="rgb(208,221,235)"></stop> <stop id="ekka38acq9673-fill-3" offset="100%" stop-color="rgb(143,175,204)"></stop></radialGradient> <linearGradient id="ekka38acq9674-stroke" x1="110.520000" y1="47.400000" x2="169.480000" y2="47.400000" spreadMethod="pad" gradientUnits="userSpaceOnUse"><stop id="ekka38acq9674-stroke-0" offset="0%" stop-color="rgb(232,238,245)"></stop> <stop id="ekka38acq9674-stroke-1" offset="40%" stop-color="rgb(255,255,255)"></stop> <stop id="ekka38acq9674-stroke-2" offset="60%" stop-color="rgb(255,255,255)"></stop> <stop id="ekka38acq9674-stroke-3" offset="100%" stop-color="rgb(232,238,245)"></stop></linearGradient> <linearGradient id="ekka38acq9675-stroke" x1="170.660215" y1="48.570000" x2="109.350215" y2="48.570000" spreadMethod="pad" gradientUnits="userSpaceOnUse"><stop id="ekka38acq9675-stroke-0" offset="1%" stop-color="rgb(180,199,220)"></stop> <stop id="ekka38acq9675-stroke-1" offset="10%" stop-color="rgb(37,91,150)"></stop> <stop id="ekka38acq9675-stroke-2" offset="50%" stop-color="rgb(215,225,236)"></stop> <stop id="ekka38acq9675-stroke-3" offset="90%" stop-color="rgb(37,91,150)"></stop> <stop id="ekka38acq9675-stroke-4" offset="99%" stop-color="rgb(180,199,220)"></stop></linearGradient> <linearGradient id="ekka38acq9677-fill" x1="140.010013" y1="75.307799" x2="140.010013" y2="55.142399" spreadMethod="pad" gradientUnits="userSpaceOnUse"><stop id="ekka38acq9677-fill-0" offset="18%" stop-color="rgb(255,255,255)"></stop> <stop id="ekka38acq9677-fill-1" offset="57%" stop-color="rgb(214,225,238)"></stop></linearGradient> <radialGradient id="ekka38acq9678-fill" cx="140" cy="58.700000" r="40.760000" spreadMethod="pad" gradientUnits="userSpaceOnUse"><stop id="ekka38acq9678-fill-0" offset="0%" stop-color="rgb(29,88,150)"></stop> <stop id="ekka38acq9678-fill-1" offset="16%" stop-color="rgb(24,78,137)"></stop> <stop id="ekka38acq9678-fill-2" offset="47%" stop-color="rgb(12,53,101)"></stop> <stop id="ekka38acq9678-fill-3" offset="88%" stop-color="rgb(0,13,45)"></stop> <stop id="ekka38acq9678-fill-4" offset="100%" stop-color="rgb(0,0,27)"></stop></radialGradient> <radialGradient id="ekka38acq9679-fill" cx="139.279210" cy="60.207006" r="40.880000" spreadMethod="pad" gradientUnits="userSpaceOnUse"><stop id="ekka38acq9679-fill-0" offset="0%" stop-color="rgb(42,101,163)"></stop> <stop id="ekka38acq9679-fill-1" offset="51%" stop-color="rgb(25,66,114)"></stop> <stop id="ekka38acq9679-fill-2" offset="100%" stop-color="rgb(0,13,40)"></stop></radialGradient></defs> <g id="ekka38acq964" clip-path="url(#ekka38acq962)"><g id="ekka38acq965" opacity="0"><polygon id="ekka38acq966" points="60.960000,70.610000 69.440000,75.510000 60.960000,80.400000 60.960000,70.610000" transform="matrix(1 0 0 1 0.01999999999991 37.76932570000011)" fill="none" stroke="#9ab1eb" stroke-width="1.24888px" stroke-miterlimit="10" opacity="1"></polygon> <circle id="ekka38acq967" r="3.750000" transform="matrix(1 0 0 1 82.08999999999990 113.27432570000011)" fill="none" stroke="#0055c6" stroke-width="1.24888px" stroke-miterlimit="10" opacity="1"></circle> <rect id="ekka38acq968" width="8.790000" height="8.790000" rx="0" ry="0" transform="matrix(1 0 0 1 78.59296622499991 108.87932570000011)" fill="none" stroke="#0055c6" stroke-width="1.24888px" stroke-miterlimit="10" opacity="1"></rect> <path id="ekka38acq969" d="M45.790000,88.410000L55,97.570000M45.840000,97.570000L55,88.410000" transform="matrix(1 0 0 1 0.01999999999991 20.28432570000011)" fill="none" stroke="#5b78af" stroke-width="1.24888px" stroke-miterlimit="10" opacity="1"></path> <polygon id="ekka38acq9610" points="198.800000,87.420000 195.380000,96.600000 205.040000,94.960000 198.800000,87.420000" transform="matrix(1 0 0 1 0.01999999999990 21.26432570000011)" fill="none" stroke="#0055c6" stroke-width="1.24888px" stroke-miterlimit="10" opacity="1"></polygon> <circle id="ekka38acq9611" r="4.880000" transform="matrix(1 0 0 1 229.34999999999991 113.27432570000012)" fill="none" stroke="#5b78af" stroke-width="1.24888px" stroke-miterlimit="10" opacity="1"></circle> <path id="ekka38acq9612" d="M198.410000,53.560000L200.200000,61.240000M203.200000,56.510000L195.510000,58.300000" transform="matrix(1 0 0 1 5.64500000000001 55.87432570000010)" fill="none" stroke="#0055c6" stroke-width="1.24888px" stroke-miterlimit="10" opacity="1"></path> <polygon id="ekka38acq9613" points="215.530000,79 209.370000,77.240000 209.130000,70.830000 215.150000,68.630000 219.110000,73.680000 215.530000,79" transform="matrix(1 0 0 1 0.01999999999990 39.45932570000011)" fill="none" stroke="#9ab1eb" stroke-width="1.24888px" stroke-miterlimit="10" opacity="1"></polygon></g></g> <g id="ekka38acq9614"><ellipse id="ekka38acq9615" rx="49.050000" ry="9.020000" transform="matrix(1 0 0 1 140 121.81000000000000)" fill="url(&quot;#ekka38acq9615-fill&quot;)" stroke="none" stroke-width="1"></ellipse> <ellipse id="ekka38acq9616" rx="49.050000" ry="9.020000" transform="matrix(1 0 0 1 140 121.81000000000000)" fill="url(&quot;#ekka38acq9616-fill&quot;)" stroke="none" stroke-width="1"></ellipse> <g id="ekka38acq9617"><ellipse id="ekka38acq9618" rx="21.680000" ry="12.130000" transform="matrix(1 0 0 1 109.79000000000001 119.75000000000000)" opacity="0.8" fill="url(&quot;#ekka38acq9618-fill&quot;)" stroke="none" stroke-width="1"></ellipse> <ellipse id="ekka38acq9619" rx="21.680000" ry="12.130000" transform="matrix(1 0 0 1 170.21000000000001 119.75000000000000)" opacity="0.8" fill="url(&quot;#ekka38acq9619-fill&quot;)" stroke="none" stroke-width="1"></ellipse></g></g> <g id="ekka38acq9620" transform="matrix(1 0 0 1 0 -5)"><g id="ekka38acq9621" transform="matrix(1 0 0 1 0.02004623500002 5.26162099999999)"><circle id="ekka38acq9622" r="18.990000" transform="matrix(1.56948565625453 0 0 0.58053321209110 139.99999999999986 114.27432569999989)" fill="url(&quot;#ekka38acq9622-fill&quot;)" stroke="none" stroke-width="1" opacity="1"></circle> <g id="ekka38acq9623"><circle id="ekka38acq9624" r="18.990000" transform="matrix(0.92439651255655 0 0 0.34192276593399 139.99999999999986 113.27432569999989)" opacity="0.200000" fill="url(&quot;#ekka38acq9624-fill&quot;)" stroke="none" stroke-width="1"></circle></g> <g id="ekka38acq9625" transform="matrix(-1 0 0 1 279.95990992000003 0)"><circle id="ekka38acq9626" r="18.990000" transform="matrix(0.92439651255655 0 0 0.34192276593399 139.99999999999986 113.27432569999989)" opacity="0.200000" fill="url(&quot;#ekka38acq9626-fill&quot;)" stroke="none" stroke-width="1"></circle></g></g> <g id="ekka38acq9627" transform="matrix(-1 0 0 1 279.95990992000003 0)"><g id="ekka38acq9628" transform="matrix(1 0 0 1 0 0)"><rect id="ekka38acq9629" width="18.330000" height="8.530000" rx="0" ry="0" transform="matrix(-1 0 -0 -1 132.47000000000000 97.81000000000003)" fill="#3e4c68" stroke="none" stroke-width="1"></rect> <path id="ekka38acq9630" d="M118.530000,111.730000C109.624923,101.238168,109.624923,85.841832,118.530000,75.350000L122.120000,75.850000L122.120000,111.230000Z" fill="url(&quot;#ekka38acq9630-fill&quot;)" stroke="url(&quot;#ekka38acq9630-stroke&quot;)" stroke-width="0.623px" stroke-miterlimit="10"></path> <path id="ekka38acq9631" d="M117.350000,110.750000L117.350000,76.330000C117.690000,75.880000,118.030000,75.440000,118.400000,75.020000L118.400000,112.020000C118,111.640000,117.690000,111.190000,117.350000,110.750000Z" opacity="0.5" fill="url(&quot;#ekka38acq9631-fill&quot;)" stroke="none" stroke-width="1"></path> <polygon id="ekka38acq9632" points="118.710000,75.370000 122.120000,75.850000 122.120000,111.230000 118.710000,111.700000 118.710000,75.370000" fill="url(&quot;#ekka38acq9632-fill&quot;)" stroke="url(&quot;#ekka38acq9632-stroke&quot;)" stroke-width="0.623px" stroke-miterlimit="10"></polygon> <g id="ekka38acq9633" transform="matrix(0.75000000000000 0 0 1 28.58164458874991 0)"><line id="ekka38acq9634" x1="113.820000" y1="93.540000" x2="116.450000" y2="93.540000" transform="matrix(0.53492528984002 0.73435501653487 -0.80829138936624 0.58878266777852 128.92349859343065 -38.60673756427549)" opacity="0.902564" fill="none" stroke="#6a8aae" stroke-width="1" stroke-linecap="round" stroke-linejoin="round"></line> <line id="ekka38acq9635" x1="113.820000" y1="93.540000" x2="116.450000" y2="93.540000" transform="matrix(0.59984959896268 -0.01343348891048 0.02238914818413 0.99974933160447 43.84847741392080 1.57246432526348)" opacity="0.800000" fill="none" stroke="#6a8aae" stroke-width="1" stroke-linecap="round" stroke-linejoin="round"></line> <line id="ekka38acq9636" x1="113.820000" y1="93.540000" x2="116.450000" y2="93.540000" transform="matrix(0.49548395817173 -0.74845698716346 0.83383911452192 0.55200754622858 -20.22044678304937 120.63427048538088)" opacity="0.697436" fill="none" stroke="#6a8aae" stroke-width="1" stroke-linecap="round" stroke-linejoin="round"></line> <line id="ekka38acq9637" x1="113.820000" y1="93.540000" x2="116.450000" y2="93.540000" transform="matrix(0.34202014332567 -0.93969262078591 0.93969262078591 0.34202014332567 -13.71601718944154 160.30427681593821)" opacity="0" fill="none" stroke="#6a8aae" stroke-width="1" stroke-linecap="round" stroke-linejoin="round"></line> <line id="ekka38acq9638" x1="113.820000" y1="93.540000" x2="116.450000" y2="93.540000" transform="matrix(0.34202014332567 -0.93969262078591 0.93969262078591 0.34202014332567 -13.71601718944154 160.30427681593821)" opacity="0" fill="none" stroke="#6a8aae" stroke-width="1" stroke-linecap="round" stroke-linejoin="round"></line> <line id="ekka38acq9639" x1="113.820000" y1="93.540000" x2="116.450000" y2="93.540000" transform="matrix(0.34202014332567 -0.93969262078591 0.93969262078591 0.34202014332567 -13.71601718944154 160.30427681593821)" opacity="0" fill="none" stroke="#6a8aae" stroke-width="1" stroke-linecap="round" stroke-linejoin="round"></line> <line id="ekka38acq9640" x1="113.820000" y1="93.540000" x2="116.450000" y2="93.540000" transform="matrix(0.34202014332567 -0.93969262078591 0.93969262078591 0.34202014332567 -13.71601718944154 160.30427681593821)" opacity="0" fill="none" stroke="#6a8aae" stroke-width="1" stroke-linecap="round" stroke-linejoin="round"></line></g></g></g> <g id="ekka38acq9641"><g id="ekka38acq9642" transform="matrix(1 0 0 1 0 0)"><rect id="ekka38acq9643" width="18.330000" height="8.530000" rx="0" ry="0" transform="matrix(-1 0 -0 -1 132.47000000000000 97.81000000000003)" fill="#3e4c68" stroke="none" stroke-width="1"></rect> <path id="ekka38acq9644" d="M118.530000,111.730000C109.624923,101.238168,109.624923,85.841832,118.530000,75.350000L122.120000,75.850000L122.120000,111.230000Z" fill="url(&quot;#ekka38acq9644-fill&quot;)" stroke="url(&quot;#ekka38acq9644-stroke&quot;)" stroke-width="0.623px" stroke-miterlimit="10"></path> <path id="ekka38acq9645" d="M117.350000,110.750000L117.350000,76.330000C117.690000,75.880000,118.030000,75.440000,118.400000,75.020000L118.400000,112.020000C118,111.640000,117.690000,111.190000,117.350000,110.750000Z" opacity="0.5" fill="url(&quot;#ekka38acq9645-fill&quot;)" stroke="none" stroke-width="1"></path> <polygon id="ekka38acq9646" points="118.710000,75.370000 122.120000,75.850000 122.120000,111.230000 118.710000,111.700000 118.710000,75.370000" fill="url(&quot;#ekka38acq9646-fill&quot;)" stroke="url(&quot;#ekka38acq9646-stroke&quot;)" stroke-width="0.623px" stroke-miterlimit="10"></polygon> <g id="ekka38acq9647" transform="matrix(0.75000000000000 0 0 1 28.58164458874991 0)"><line id="ekka38acq9648" x1="113.820000" y1="93.540000" x2="116.450000" y2="93.540000" transform="matrix(0.53492528984002 0.73435501653487 -0.80829138936624 0.58878266777852 128.92349859343065 -38.60673756427549)" opacity="0.902564" fill="none" stroke="#6a8aae" stroke-width="1" stroke-linecap="round" stroke-linejoin="round"></line> <line id="ekka38acq9649" x1="113.820000" y1="93.540000" x2="116.450000" y2="93.540000" transform="matrix(0.59984959896268 -0.01343348891048 0.02238914818413 0.99974933160447 43.84847741392080 1.57246432526348)" opacity="0.800000" fill="none" stroke="#6a8aae" stroke-width="1" stroke-linecap="round" stroke-linejoin="round"></line> <line id="ekka38acq9650" x1="113.820000" y1="93.540000" x2="116.450000" y2="93.540000" transform="matrix(0.49548395817173 -0.74845698716346 0.83383911452192 0.55200754622858 -20.22044678304937 120.63427048538088)" opacity="0.697436" fill="none" stroke="#6a8aae" stroke-width="1" stroke-linecap="round" stroke-linejoin="round"></line> <line id="ekka38acq9651" x1="113.820000" y1="93.540000" x2="116.450000" y2="93.540000" transform="matrix(0.34202014332567 -0.93969262078591 0.93969262078591 0.34202014332567 -13.71601718944154 160.30427681593821)" opacity="0" fill="none" stroke="#6a8aae" stroke-width="1" stroke-linecap="round" stroke-linejoin="round"></line> <line id="ekka38acq9652" x1="113.820000" y1="93.540000" x2="116.450000" y2="93.540000" transform="matrix(0.34202014332567 -0.93969262078591 0.93969262078591 0.34202014332567 -13.71601718944154 160.30427681593821)" opacity="0" fill="none" stroke="#6a8aae" stroke-width="1" stroke-linecap="round" stroke-linejoin="round"></line> <line id="ekka38acq9653" x1="113.820000" y1="93.540000" x2="116.450000" y2="93.540000" transform="matrix(0.34202014332567 -0.93969262078591 0.93969262078591 0.34202014332567 -13.71601718944154 160.30427681593821)" opacity="0" fill="none" stroke="#6a8aae" stroke-width="1" stroke-linecap="round" stroke-linejoin="round"></line> <line id="ekka38acq9654" x1="113.820000" y1="93.540000" x2="116.450000" y2="93.540000" transform="matrix(0.34202014332567 -0.93969262078591 0.93969262078591 0.34202014332567 -13.71601718944154 160.30427681593821)" opacity="0" fill="none" stroke="#6a8aae" stroke-width="1" stroke-linecap="round" stroke-linejoin="round"></line></g></g></g> <g id="ekka38acq9655" transform="matrix(1 0 0 1 0 0)"><path id="ekka38acq9656" d="M140,121.690000C131.833466,121.702320,124.064387,118.166276,118.710000,112L118.710000,75.130000C124.055276,68.945491,131.825642,65.390965,140,65.390965C148.174358,65.390965,155.944724,68.945491,161.290000,75.130000L161.290000,112C155.935613,118.166276,148.166534,121.702320,140,121.690000Z" fill="url(&quot;#ekka38acq9656-fill&quot;)" stroke="url(&quot;#ekka38acq9656-stroke&quot;)" stroke-width="0.623px" stroke-miterlimit="10"></path> <g id="ekka38acq9657"><g id="ekka38acq9658"><g id="ekka38acq9659"><path id="ekka38acq9660" d="M147.670000,96.330000C142.611556,97.356552,137.398444,97.356552,132.340000,96.330000C130.710000,96.140000,126.960000,99.150000,126.070000,100.830000L126.070000,102.920000C127.011709,104.715066,128.303853,106.303043,129.870000,107.590000C131.080000,108.590000,135.220000,109.120000,140,109.120000C144.780000,109.120000,148.930000,108.560000,150.140000,107.590000C151.706147,106.303043,152.998291,104.715066,153.940000,102.920000L153.940000,100.830000C153.050000,99.150000,149.300000,96.140000,147.670000,96.330000Z" fill="url(&quot;#ekka38acq9660-fill&quot;)" fill-rule="evenodd" stroke="none" stroke-width="1"></path></g> <path id="ekka38acq9661" d="M161.600000,100.100000C160.720000,100.790000,156.600000,101.750000,153.940000,101.900000L153.270000,101.250000L153.270000,100.170000L153.940000,100.830000C156.630000,100.680000,160.720000,99.720000,161.600000,99.030000Z" opacity="0.5" fill="#255b96" fill-rule="evenodd" stroke="none" stroke-width="1" style="mix-blend-mode: multiply;"></path> <path id="ekka38acq9662" d="M161.600000,101.120000C160.720000,101.810000,156.600000,102.770000,153.940000,102.920000L153.270000,102.270000L153.270000,101.270000L153.940000,101.920000C156.620000,101.770000,160.720000,100.810000,161.600000,100.120000Z" opacity="0.5" fill="#ffffff" fill-rule="evenodd" stroke="none" stroke-width="1"></path> <path id="ekka38acq9663" d="M118.410000,100.100000C119.290000,100.790000,123.410000,101.750000,126.070000,101.900000L126.740000,101.250000L126.740000,100.170000L126.070000,100.830000C123.380000,100.680000,119.290000,99.720000,118.410000,99.030000Z" opacity="0.5" fill="#255b96" fill-rule="evenodd" stroke="none" stroke-width="1" style="mix-blend-mode: multiply;"></path> <path id="ekka38acq9664" d="M118.410000,101.120000C119.290000,101.810000,123.410000,102.770000,126.070000,102.920000L126.740000,102.270000L126.740000,101.270000L126.070000,101.920000C123.390000,101.770000,119.290000,100.810000,118.410000,100.120000Z" opacity="0.5" fill="#ffffff" fill-rule="evenodd" stroke="none" stroke-width="1"></path></g> <path id="ekka38acq9665" d="M147.610000,96.330000C142.580528,97.236591,137.429472,97.236591,132.400000,96.330000C130.850000,96.170000,127.400000,98.980000,126.740000,100.180000L126.740000,102.270000C127.653165,103.839073,128.882498,105.201215,130.350000,106.270000C131.510000,107.130000,135.450000,107.630000,140,107.630000C144.550000,107.630000,148.500000,107.130000,149.660000,106.270000C151.127502,105.201215,152.356835,103.839073,153.270000,102.270000L153.270000,100.180000C152.610000,99,149.160000,96.170000,147.610000,96.330000Z" fill="url(&quot;#ekka38acq9665-fill&quot;)" fill-rule="evenodd" stroke="none" stroke-width="1"></path> <g id="ekka38acq9666"><circle id="ekka38acq9667" r="1.380000" transform="matrix(0.50000000000000 0 0 0.50000000000000 146.63999999999999 101.97000000000000)" opacity="0.200000" fill="#5af3ff" stroke="none" stroke-width="1"></circle> <circle id="ekka38acq9668" r="1.380000" transform="matrix(0.50000000000000 0 0 0.50000000000000 133.37000000000000 101.97000000000000)" opacity="0.200000" fill="#5af3ff" stroke="none" stroke-width="1"></circle> <circle id="ekka38acq9669" r="1.380000" transform="matrix(0.50000000000000 0 0 0.50000000000000 140 102.22999999999999)" opacity="0.200000" fill="#5af3ff" stroke="none" stroke-width="1"></circle></g></g> <g id="ekka38acq9670" transform="matrix(1 0 0 1 0 3.00000000000001)"><circle id="ekka38acq9671" r="18.990000" transform="matrix(1.56948565625453 0 0 0.58053321209110 140 80.08852819499988)" fill="url(&quot;#ekka38acq9671-fill&quot;)" stroke="none" stroke-width="1"></circle> <path id="ekka38acq9672" d="M168.890000,60.100000C168.890000,60.100000,173.970000,61.250000,173.310000,64.770000C172.650000,68.290000,167.440000,67.060000,167.440000,67.060000L112.560000,67.060000C112.560000,67.060000,107.350000,68.290000,106.690000,64.770000C106.030000,61.250000,111.110000,60.100000,111.110000,60.100000Z" fill="url(&quot;#ekka38acq9672-fill&quot;)" stroke="none" stroke-width="1"></path> <path id="ekka38acq9673" d="M140,84.850000C126.110000,84.850000,115.450000,77.210000,112.110000,69.670000C108.680000,61.920000,109.110000,56.080000,109.190000,55.440000C111.340000,42.910000,123.430000,34.810000,140,34.810000C156.570000,34.810000,168.660000,42.910000,170.810000,55.450000C170.870000,56.080000,171.320000,61.920000,167.890000,69.670000C164.550000,77.210000,153.890000,84.850000,140,84.850000Z" fill="url(&quot;#ekka38acq9673-fill&quot;)" stroke="#b4c7dc" stroke-width="0.622674px" stroke-miterlimit="10"></path> <path id="ekka38acq9674" d="M169.170000,51.520000C169.170000,51.520000,165.070000,43.280000,140,43.280000C114.930000,43.280000,110.830000,51.520000,110.830000,51.520000" transform="matrix(1 0 0 0.84047997367567 0 8.53550290902640)" fill="none" stroke="url(&quot;#ekka38acq9674-stroke&quot;)" stroke-width="0.622674px" stroke-linecap="round" stroke-linejoin="round"></path> <path id="ekka38acq9675" d="M170.370000,53.460000C170.370000,53.460000,166.370000,43.880000,140,43.880000C113.630000,43.880000,109.630000,53.460000,109.630000,53.460000" transform="matrix(1 0 0 0.84047997367567 0 8.53134508370064)" fill="none" stroke="url(&quot;#ekka38acq9675-stroke&quot;)" stroke-width="0.622674px" stroke-miterlimit="10"></path> <g id="ekka38acq9676" transform="matrix(1 0 0 1 0 2)"><path id="ekka38acq9677" d="M140,70.770000C136.380000,70.770000,135,74.370000,128.800000,75.060000C120.950000,75.920000,114.430000,70.370000,114.430000,63.860000C114.291421,59.254399,117.831403,55.369268,122.430000,55.080000C127.780000,54.730000,133.990000,56.080000,139.950000,56.080000C145.910000,56.080000,152.130000,54.720000,157.480000,55.080000C162.098426,55.343378,165.667507,59.236114,165.530000,63.860000C165.530000,70.370000,159.010000,75.920000,151.160000,75.060000C145,74.370000,143.630000,70.770000,140,70.770000Z" fill="url(&quot;#ekka38acq9677-fill&quot;)" stroke="none" stroke-width="1"></path> <path id="ekka38acq9678" d="M140,56.750000C133.150000,56.750000,131.620000,55.950000,123.240000,55.950000C121.010862,56.016528,118.903344,56.981601,117.396645,58.625786C115.889947,60.269971,115.112111,62.453539,115.240000,64.680000C115.730000,69.390000,120.860000,74.020000,126.900000,74.200000C132.940000,74.380000,135,69.480000,140,69.480000C145,69.480000,147.100000,74.380000,153.140000,74.200000C159.180000,74.020000,164.310000,69.390000,164.800000,64.680000C164.927889,62.453539,164.150053,60.269971,162.643355,58.625786C161.136656,56.981601,159.029138,56.016528,156.800000,55.950000C148.390000,56,146.860000,56.750000,140,56.750000Z" fill="url(&quot;#ekka38acq9678-fill&quot;)" stroke="none" stroke-width="1"></path> <path id="ekka38acq9679" d="M140,58.280000C133.330000,58.280000,131.850000,57.380000,123.690000,57.380000C119.380000,57.380000,115.330000,61.300000,115.770000,65.380000C116.210000,69.460000,120.770000,73.580000,126.630000,73.740000C132.490000,73.900000,134.440000,69.090000,140,69.090000C145.560000,69.090000,147.500000,73.900000,153.380000,73.740000C159.260000,73.580000,163.780000,69.600000,164.240000,65.380000C164.700000,61.160000,160.630000,57.380000,156.320000,57.380000C148.160000,57.380000,146.680000,58.280000,140,58.280000Z" fill="url(&quot;#ekka38acq9679-fill&quot;)" stroke="none" stroke-width="1"></path> <g id="ekka38acq9680" transform="matrix(1 0 0 1 0 0)"><path id="ekka38acq9681" d="M -2.3 0 C -2.3 -1.2702549246108246 -1.2702549246108246 -2.3 0 -2.3 C 1.2702549246108246 -2.3 2.3 -1.2702549246108246 2.3 0 C 2.3 1.2702549246108246 1.2702549246108246 2.3 0 2.3 C -1.2702549246108246 2.3 -2.3 1.2702549246108246 -2.3 0 Z" transform="matrix(1 0 0 1 153.78999999999999 65.21056699999995)" fill="#5af3ff" stroke="none" stroke-width="1" opacity="1"></path> <path id="ekka38acq9682" d="M -2.3 0 C -2.3 -1.2702549246108246 -1.2702549246108246 -2.3 0 -2.3 C 1.2702549246108246 -2.3 2.3 -1.2702549246108246 2.3 0 C 2.3 1.2702549246108246 1.2702549246108246 2.3 0 2.3 C -1.2702549246108246 2.3 -2.3 1.2702549246108246 -2.3 0 Z" transform="matrix(1 0 0 1 127.12000000000000 65.21056699999995)" fill="#5af3ff" stroke="none" stroke-width="1" opacity="1"></path></g></g></g></g></g></svg>