<svg data-v-0bfbaaa4="" id="edas7iltcgb1" xmlns="http://www.w3.org/2000/svg" xmlns:xlink="http://www.w3.org/1999/xlink" viewBox="0 0 280 132" shape-rendering="geometricPrecision" text-rendering="geometricPrecision" width="280"  height="132" ><defs><radialGradient id="edas7iltcgb2-fill" cx="0" cy="0" r="18.990000" spreadMethod="pad" gradientUnits="userSpaceOnUse"><stop id="edas7iltcgb2-fill-0" offset="0%" stop-color="rgb(62,76,104)"></stop><stop id="edas7iltcgb2-fill-1" offset="43%" stop-color="rgba(37,71,112,0.5)"></stop><stop id="edas7iltcgb2-fill-2" offset="69%" stop-color="rgba(76,107,151,0.2)"></stop><stop id="edas7iltcgb2-fill-3" offset="100%" stop-color="rgba(230,250,255,0)"></stop></radialGradient><linearGradient id="edas7iltcgb7-fill" x1="0.529474" y1="0.917082" x2="0.508172" y2="0.063394" spreadMethod="pad" gradientUnits="objectBoundingBox"><stop id="edas7iltcgb7-fill-0" offset="0%" stop-color="rgb(23,31,65)"></stop><stop id="edas7iltcgb7-fill-1" offset="58%" stop-color="rgb(13,48,112)"></stop><stop id="edas7iltcgb7-fill-2" offset="100%" stop-color="rgb(21,43,78)"></stop></linearGradient><linearGradient id="edas7iltcgb8-fill" x1="0.598283" y1="0.387842" x2="0.598706" y2="1.160054" spreadMethod="pad" gradientUnits="objectBoundingBox"><stop id="edas7iltcgb8-fill-0" offset="0%" stop-color="rgb(21,43,78)"></stop><stop id="edas7iltcgb8-fill-1" offset="100%" stop-color="rgb(13,48,112)"></stop></linearGradient><linearGradient id="edas7iltcgb9-fill" x1="0.543312" y1="0.013039" x2="0.522801" y2="0.833693" spreadMethod="pad" gradientUnits="objectBoundingBox"><stop id="edas7iltcgb9-fill-0" offset="0%" stop-color="rgb(13,48,112)"></stop><stop id="edas7iltcgb9-fill-1" offset="100%" stop-color="rgb(23,31,65)"></stop></linearGradient><radialGradient id="edas7iltcgb10-fill" cx="0.500000" cy="0.500000" r="0.820000" spreadMethod="pad" gradientUnits="objectBoundingBox"><stop id="edas7iltcgb10-fill-0" offset="0%" stop-color="rgb(24,73,138)"></stop><stop id="edas7iltcgb10-fill-1" offset="100%" stop-color="rgb(24,48,85)"></stop></radialGradient><radialGradient id="edas7iltcgb11-fill" cx="-0.455155" cy="0.506380" r="0.820000" spreadMethod="pad" gradientUnits="objectBoundingBox"><stop id="edas7iltcgb11-fill-0" offset="0%" stop-color="rgb(24,73,138)"></stop><stop id="edas7iltcgb11-fill-1" offset="100%" stop-color="rgb(24,48,85)"></stop></radialGradient><radialGradient id="edas7iltcgb14-fill" cx="0.500000" cy="0.500000" r="0.500000" spreadMethod="pad" gradientUnits="objectBoundingBox"><stop id="edas7iltcgb14-fill-0" offset="0%" stop-color="rgba(84,131,204,0)"></stop><stop id="edas7iltcgb14-fill-1" offset="100%" stop-color="rgb(23,31,65)"></stop></radialGradient><linearGradient id="edas7iltcgb17-fill" x1="0.190773" y1="0.871927" x2="0.869198" y2="0.169604" spreadMethod="pad" gradientUnits="objectBoundingBox"><stop id="edas7iltcgb17-fill-0" offset="0%" stop-color="rgb(23,31,65)"></stop><stop id="edas7iltcgb17-fill-1" offset="100%" stop-color="rgb(23,31,65)"></stop></linearGradient><linearGradient id="edas7iltcgb18-fill" x1="0.536934" y1="-0.002105" x2="0.536934" y2="0.997478" spreadMethod="pad" gradientUnits="objectBoundingBox"><stop id="edas7iltcgb18-fill-0" offset="0%" stop-color="rgb(23,31,65)"></stop><stop id="edas7iltcgb18-fill-1" offset="100%" stop-color="rgb(23,31,65)"></stop></linearGradient><linearGradient id="edas7iltcgb19-fill" x1="0" y1="0.500000" x2="1" y2="0.500000" spreadMethod="pad" gradientUnits="objectBoundingBox"><stop id="edas7iltcgb19-fill-0" offset="0%" stop-color="rgb(23,31,65)"></stop><stop id="edas7iltcgb19-fill-1" offset="100%" stop-color="rgb(23,31,65)"></stop></linearGradient><linearGradient id="edas7iltcgb21-fill" x1="0.536934" y1="-0.002105" x2="0.536934" y2="0.997478" spreadMethod="pad" gradientUnits="objectBoundingBox"><stop id="edas7iltcgb21-fill-0" offset="0%" stop-color="rgb(23,31,65)"></stop><stop id="edas7iltcgb21-fill-1" offset="100%" stop-color="rgb(23,31,65)"></stop></linearGradient><linearGradient id="edas7iltcgb22-fill" x1="0.190773" y1="0.871927" x2="0.869198" y2="0.169604" spreadMethod="pad" gradientUnits="objectBoundingBox"><stop id="edas7iltcgb22-fill-0" offset="0%" stop-color="rgb(23,31,65)"></stop><stop id="edas7iltcgb22-fill-1" offset="100%" stop-color="rgb(23,31,65)"></stop></linearGradient><linearGradient id="edas7iltcgb24-fill" x1="0" y1="0.500000" x2="1" y2="0.500000" spreadMethod="pad" gradientUnits="objectBoundingBox"><stop id="edas7iltcgb24-fill-0" offset="0%" stop-color="rgb(23,31,65)"></stop><stop id="edas7iltcgb24-fill-1" offset="100%" stop-color="rgb(23,31,65)"></stop></linearGradient><radialGradient id="edas7iltcgb26-fill" cx="0.923516" cy="0.441606" r="0.780000" spreadMethod="pad" gradientUnits="objectBoundingBox"><stop id="edas7iltcgb26-fill-0" offset="35%" stop-color="rgb(0,132,255)"></stop><stop id="edas7iltcgb26-fill-1" offset="100%" stop-color="rgba(0,132,255,0)"></stop></radialGradient><radialGradient id="edas7iltcgb27-fill" cx="1.011506" cy="0.517519" r="0.940000" spreadMethod="pad" gradientUnits="objectBoundingBox"><stop id="edas7iltcgb27-fill-0" offset="0%" stop-color="rgb(0,132,255)"></stop><stop id="edas7iltcgb27-fill-1" offset="100%" stop-color="rgba(90,243,255,0)"></stop></radialGradient><radialGradient id="edas7iltcgb28-fill" cx="1.011506" cy="0.517519" r="0.940000" spreadMethod="pad" gradientUnits="objectBoundingBox"><stop id="edas7iltcgb28-fill-0" offset="0%" stop-color="rgb(124,0,255)"></stop><stop id="edas7iltcgb28-fill-1" offset="100%" stop-color="rgba(90,243,255,0)"></stop></radialGradient><radialGradient id="edas7iltcgb29-fill" cx="0.500000" cy="0.500000" r="0.500000" spreadMethod="pad" gradientUnits="objectBoundingBox"><stop id="edas7iltcgb29-fill-0" offset="0%" stop-color="rgba(90,243,255,0.33)"></stop><stop id="edas7iltcgb29-fill-1" offset="93%" stop-color="rgba(8,14,69,0.69)"></stop></radialGradient><radialGradient id="edas7iltcgb30-fill" cx="0.500000" cy="0.500000" r="0.500000" spreadMethod="pad" gradientUnits="objectBoundingBox"><stop id="edas7iltcgb30-fill-0" offset="0%" stop-color="rgba(90,243,255,0.33)"></stop><stop id="edas7iltcgb30-fill-1" offset="93%" stop-color="rgba(8,14,69,0.69)"></stop></radialGradient><radialGradient id="edas7iltcgb31-fill" cx="0.500000" cy="0.500000" r="0.500000" spreadMethod="pad" gradientUnits="objectBoundingBox"><stop id="edas7iltcgb31-fill-0" offset="0%" stop-color="rgba(90,243,255,0.33)"></stop><stop id="edas7iltcgb31-fill-1" offset="93%" stop-color="rgba(8,14,69,0.69)"></stop></radialGradient><radialGradient id="edas7iltcgb34-fill" cx="140.651195" cy="109.560199" r="111.240000" spreadMethod="pad" gradientUnits="userSpaceOnUse"><stop id="edas7iltcgb34-fill-0" offset="0%" stop-color="rgb(83,95,120)"></stop><stop id="edas7iltcgb34-fill-1" offset="5%" stop-color="rgba(94,106,129,0.93)"></stop><stop id="edas7iltcgb34-fill-2" offset="50%" stop-color="rgba(181,186,197,0.43)"></stop><stop id="edas7iltcgb34-fill-3" offset="83%" stop-color="rgba(235,236,239,0.12)"></stop><stop id="edas7iltcgb34-fill-4" offset="100%" stop-color="rgba(255,255,255,0)"></stop></radialGradient><linearGradient id="edas7iltcgb35-fill" x1="0.495800" y1="0.025260" x2="0.495800" y2="0.909360" spreadMethod="pad" gradientUnits="objectBoundingBox"><stop id="edas7iltcgb35-fill-0" offset="0%" stop-color="rgba(247,250,255,0)"></stop><stop id="edas7iltcgb35-fill-1" offset="100%" stop-color="rgb(247,250,255)"></stop></linearGradient><linearGradient id="edas7iltcgb36-fill" x1="0.521521" y1="0.967886" x2="0.519275" y2="0.036592" spreadMethod="pad" gradientUnits="objectBoundingBox"><stop id="edas7iltcgb36-fill-0" offset="0%" stop-color="rgba(247,250,255,0)"></stop><stop id="edas7iltcgb36-fill-1" offset="100%" stop-color="rgb(247,250,255)"></stop></linearGradient><linearGradient id="edas7iltcgb44-stroke" x1="203.919978" y1="105.380000" x2="203.919978" y2="85.340000" spreadMethod="pad" gradientUnits="userSpaceOnUse"><stop id="edas7iltcgb44-stroke-0" offset="0%" stop-color="rgba(90,243,255,0)"></stop><stop id="edas7iltcgb44-stroke-1" offset="100%" stop-color="rgb(90,243,255)"></stop></linearGradient><radialGradient id="edas7iltcgb45-fill" cx="-0.000001" cy="-0" r="8.870000" spreadMethod="pad" gradientUnits="userSpaceOnUse"><stop id="edas7iltcgb45-fill-0" offset="33%" stop-color="rgb(90,243,255)"></stop><stop id="edas7iltcgb45-fill-1" offset="45%" stop-color="rgba(90,243,255,0.49)"></stop><stop id="edas7iltcgb45-fill-2" offset="67%" stop-color="rgba(90,243,255,0.14)"></stop><stop id="edas7iltcgb45-fill-3" offset="100%" stop-color="rgba(90,243,255,0)"></stop></radialGradient><radialGradient id="edas7iltcgb46-fill" cx="184.700000" cy="72.250000" r="10.880000" spreadMethod="pad" gradientUnits="userSpaceOnUse"><stop id="edas7iltcgb46-fill-0" offset="0%" stop-color="rgb(42,101,163)"></stop><stop id="edas7iltcgb46-fill-1" offset="51%" stop-color="rgb(25,66,114)"></stop><stop id="edas7iltcgb46-fill-2" offset="100%" stop-color="rgb(0,13,40)"></stop></radialGradient><radialGradient id="edas7iltcgb49-fill" cx="184.337011" cy="66.534655" r="18.008813" spreadMethod="pad" gradientUnits="userSpaceOnUse"><stop id="edas7iltcgb49-fill-0" offset="0%" stop-color="rgb(42,101,163)"></stop><stop id="edas7iltcgb49-fill-1" offset="51%" stop-color="rgb(25,66,114)"></stop><stop id="edas7iltcgb49-fill-2" offset="100%" stop-color="rgb(0,13,40)"></stop></radialGradient><linearGradient id="edas7iltcgb58-stroke" x1="203.919978" y1="105.380000" x2="203.919978" y2="85.340000" spreadMethod="pad" gradientUnits="userSpaceOnUse"><stop id="edas7iltcgb58-stroke-0" offset="0%" stop-color="rgba(90,243,255,0)"></stop><stop id="edas7iltcgb58-stroke-1" offset="100%" stop-color="rgb(90,243,255)"></stop></linearGradient><radialGradient id="edas7iltcgb59-fill" cx="-0.000001" cy="-0" r="8.870000" spreadMethod="pad" gradientUnits="userSpaceOnUse"><stop id="edas7iltcgb59-fill-0" offset="33%" stop-color="rgb(90,243,255)"></stop><stop id="edas7iltcgb59-fill-1" offset="45%" stop-color="rgba(90,243,255,0.49)"></stop><stop id="edas7iltcgb59-fill-2" offset="67%" stop-color="rgba(90,243,255,0.14)"></stop><stop id="edas7iltcgb59-fill-3" offset="100%" stop-color="rgba(90,243,255,0)"></stop></radialGradient><radialGradient id="edas7iltcgb60-fill" cx="207.309988" cy="57.030000" r="26.850000" spreadMethod="pad" gradientUnits="userSpaceOnUse"><stop id="edas7iltcgb60-fill-0" offset="0%" stop-color="rgb(42,101,163)"></stop><stop id="edas7iltcgb60-fill-1" offset="51%" stop-color="rgb(25,66,114)"></stop><stop id="edas7iltcgb60-fill-2" offset="100%" stop-color="rgb(0,13,40)"></stop></radialGradient><radialGradient id="edas7iltcgb61-fill" cx="401.739988" cy="-0" r="3.450000" spreadMethod="pad" gradientUnits="userSpaceOnUse"><stop id="edas7iltcgb61-fill-0" offset="0%" stop-color="rgb(42,101,163)"></stop><stop id="edas7iltcgb61-fill-1" offset="51%" stop-color="rgb(25,66,114)"></stop><stop id="edas7iltcgb61-fill-2" offset="100%" stop-color="rgb(0,13,40)"></stop></radialGradient><linearGradient id="edas7iltcgb70-stroke" x1="203.919978" y1="105.380000" x2="203.919978" y2="85.340000" spreadMethod="pad" gradientUnits="userSpaceOnUse"><stop id="edas7iltcgb70-stroke-0" offset="0%" stop-color="rgba(90,243,255,0)"></stop><stop id="edas7iltcgb70-stroke-1" offset="100%" stop-color="rgb(90,243,255)"></stop></linearGradient><radialGradient id="edas7iltcgb71-fill" cx="-0.000001" cy="-0" r="8.870000" spreadMethod="pad" gradientUnits="userSpaceOnUse"><stop id="edas7iltcgb71-fill-0" offset="33%" stop-color="rgb(90,243,255)"></stop><stop id="edas7iltcgb71-fill-1" offset="45%" stop-color="rgba(90,243,255,0.49)"></stop><stop id="edas7iltcgb71-fill-2" offset="67%" stop-color="rgba(90,243,255,0.14)"></stop><stop id="edas7iltcgb71-fill-3" offset="100%" stop-color="rgba(90,243,255,0)"></stop></radialGradient><radialGradient id="edas7iltcgb72-fill" cx="184.700000" cy="72.250000" r="10.880000" spreadMethod="pad" gradientUnits="userSpaceOnUse"><stop id="edas7iltcgb72-fill-0" offset="0%" stop-color="rgb(42,101,163)"></stop><stop id="edas7iltcgb72-fill-1" offset="51%" stop-color="rgb(25,66,114)"></stop><stop id="edas7iltcgb72-fill-2" offset="100%" stop-color="rgb(0,13,40)"></stop></radialGradient><radialGradient id="edas7iltcgb75-fill" cx="184.337011" cy="66.534655" r="18.008813" spreadMethod="pad" gradientUnits="userSpaceOnUse"><stop id="edas7iltcgb75-fill-0" offset="0%" stop-color="rgb(42,101,163)"></stop><stop id="edas7iltcgb75-fill-1" offset="51%" stop-color="rgb(25,66,114)"></stop><stop id="edas7iltcgb75-fill-2" offset="100%" stop-color="rgb(0,13,40)"></stop></radialGradient><linearGradient id="edas7iltcgb84-stroke" x1="203.919978" y1="105.380000" x2="203.919978" y2="85.340000" spreadMethod="pad" gradientUnits="userSpaceOnUse"><stop id="edas7iltcgb84-stroke-0" offset="0%" stop-color="rgba(90,243,255,0)"></stop><stop id="edas7iltcgb84-stroke-1" offset="100%" stop-color="rgb(90,243,255)"></stop></linearGradient><radialGradient id="edas7iltcgb85-fill" cx="-0.000001" cy="-0" r="8.870000" spreadMethod="pad" gradientUnits="userSpaceOnUse"><stop id="edas7iltcgb85-fill-0" offset="33%" stop-color="rgb(90,243,255)"></stop><stop id="edas7iltcgb85-fill-1" offset="45%" stop-color="rgba(90,243,255,0.49)"></stop><stop id="edas7iltcgb85-fill-2" offset="67%" stop-color="rgba(90,243,255,0.14)"></stop><stop id="edas7iltcgb85-fill-3" offset="100%" stop-color="rgba(90,243,255,0)"></stop></radialGradient><radialGradient id="edas7iltcgb86-fill" cx="207.309988" cy="57.030000" r="26.850000" spreadMethod="pad" gradientUnits="userSpaceOnUse"><stop id="edas7iltcgb86-fill-0" offset="0%" stop-color="rgb(42,101,163)"></stop><stop id="edas7iltcgb86-fill-1" offset="51%" stop-color="rgb(25,66,114)"></stop><stop id="edas7iltcgb86-fill-2" offset="100%" stop-color="rgb(0,13,40)"></stop></radialGradient><radialGradient id="edas7iltcgb87-fill" cx="401.739988" cy="-0" r="3.450000" spreadMethod="pad" gradientUnits="userSpaceOnUse"><stop id="edas7iltcgb87-fill-0" offset="0%" stop-color="rgb(42,101,163)"></stop><stop id="edas7iltcgb87-fill-1" offset="51%" stop-color="rgb(25,66,114)"></stop><stop id="edas7iltcgb87-fill-2" offset="100%" stop-color="rgb(0,13,40)"></stop></radialGradient><radialGradient id="edas7iltcgb94-fill" cx="153.819999" cy="95.570000" r="3.810000" spreadMethod="pad" gradientUnits="userSpaceOnUse"><stop id="edas7iltcgb94-fill-0" offset="22%" stop-color="rgb(208,221,235)"></stop><stop id="edas7iltcgb94-fill-1" offset="100%" stop-color="rgb(143,175,204)"></stop></radialGradient><radialGradient id="edas7iltcgb97-fill" cx="153.819999" cy="95.570000" r="3.810000" spreadMethod="pad" gradientUnits="userSpaceOnUse"><stop id="edas7iltcgb97-fill-0" offset="22%" stop-color="rgb(208,221,235)"></stop><stop id="edas7iltcgb97-fill-1" offset="100%" stop-color="rgb(143,175,204)"></stop></radialGradient><radialGradient id="edas7iltcgb104-fill" cx="116.200709" cy="72.586010" r="13.520000" spreadMethod="pad" gradientUnits="userSpaceOnUse"><stop id="edas7iltcgb104-fill-0" offset="0%" stop-color="rgb(255,255,255)"></stop><stop id="edas7iltcgb104-fill-1" offset="36%" stop-color="rgb(245,248,251)"></stop><stop id="edas7iltcgb104-fill-2" offset="67%" stop-color="rgb(208,221,235)"></stop><stop id="edas7iltcgb104-fill-3" offset="100%" stop-color="rgb(154,183,209)"></stop></radialGradient><linearGradient id="edas7iltcgb104-stroke" x1="116.550000" y1="69.760000" x2="116.550000" y2="61.650000" spreadMethod="pad" gradientUnits="userSpaceOnUse"><stop id="edas7iltcgb104-stroke-0" offset="50%" stop-color="rgb(234,240,247)"></stop><stop id="edas7iltcgb104-stroke-1" offset="80%" stop-color="rgb(167,190,221)"></stop></linearGradient><radialGradient id="edas7iltcgb110-fill" cx="116.200709" cy="72.586010" r="13.520000" spreadMethod="pad" gradientUnits="userSpaceOnUse"><stop id="edas7iltcgb110-fill-0" offset="0%" stop-color="rgb(255,255,255)"></stop><stop id="edas7iltcgb110-fill-1" offset="36%" stop-color="rgb(245,248,251)"></stop><stop id="edas7iltcgb110-fill-2" offset="67%" stop-color="rgb(208,221,235)"></stop><stop id="edas7iltcgb110-fill-3" offset="100%" stop-color="rgb(154,183,209)"></stop></radialGradient><linearGradient id="edas7iltcgb110-stroke" x1="116.550000" y1="69.760000" x2="116.550000" y2="61.650000" spreadMethod="pad" gradientUnits="userSpaceOnUse"><stop id="edas7iltcgb110-stroke-0" offset="50%" stop-color="rgb(234,240,247)"></stop><stop id="edas7iltcgb110-stroke-1" offset="80%" stop-color="rgb(167,190,221)"></stop></linearGradient><radialGradient id="edas7iltcgb111-fill" cx="140.129999" cy="62.850000" r="38.900000" spreadMethod="pad" gradientUnits="userSpaceOnUse"><stop id="edas7iltcgb111-fill-0" offset="0%" stop-color="rgb(255,255,255)"></stop><stop id="edas7iltcgb111-fill-1" offset="36%" stop-color="rgb(245,248,251)"></stop><stop id="edas7iltcgb111-fill-2" offset="67%" stop-color="rgb(208,221,235)"></stop><stop id="edas7iltcgb111-fill-3" offset="100%" stop-color="rgb(154,183,209)"></stop></radialGradient><linearGradient id="edas7iltcgb111-stroke" x1="140.130000" y1="103.670000" x2="140.130000" y2="58.780000" spreadMethod="pad" gradientUnits="userSpaceOnUse"><stop id="edas7iltcgb111-stroke-0" offset="0%" stop-color="rgb(139,169,207)"></stop><stop id="edas7iltcgb111-stroke-1" offset="100%" stop-color="rgb(207,222,239)"></stop></linearGradient><radialGradient id="edas7iltcgb113-fill" cx="140.170000" cy="85.400000" r="15.870000" spreadMethod="pad" gradientUnits="userSpaceOnUse"><stop id="edas7iltcgb113-fill-0" offset="41%" stop-color="rgb(255,255,255)"></stop><stop id="edas7iltcgb113-fill-1" offset="72%" stop-color="rgb(81,128,183)"></stop><stop id="edas7iltcgb113-fill-2" offset="91%" stop-color="rgb(255,255,255)"></stop></radialGradient><radialGradient id="edas7iltcgb114-fill" cx="140.050000" cy="76.880000" r="10.820000" spreadMethod="pad" gradientUnits="userSpaceOnUse"><stop id="edas7iltcgb114-fill-0" offset="0%" stop-color="rgb(42,101,163)"></stop><stop id="edas7iltcgb114-fill-1" offset="51%" stop-color="rgb(25,66,114)"></stop><stop id="edas7iltcgb114-fill-2" offset="100%" stop-color="rgb(22,31,64)"></stop></radialGradient><linearGradient id="edas7iltcgb128-stroke" x1="0" y1="0.500000" x2="1" y2="0.500000" spreadMethod="pad" gradientUnits="objectBoundingBox"><stop id="edas7iltcgb128-stroke-0" offset="0%" stop-color="rgba(90,243,255,0)"></stop><stop id="edas7iltcgb128-stroke-1" offset="100%" stop-color="rgba(90,243,255,0)"></stop></linearGradient><radialGradient id="edas7iltcgb130-stroke" cx="132.580000" cy="78.538396" r="1.220000" spreadMethod="pad" gradientUnits="userSpaceOnUse"><stop id="edas7iltcgb130-stroke-0" offset="0%" stop-color="rgb(90,243,255)"></stop><stop id="edas7iltcgb130-stroke-1" offset="100%" stop-color="rgba(90,243,255,0)"></stop></radialGradient><radialGradient id="edas7iltcgb131-stroke" cx="132.580000" cy="78.538396" r="1.220000" spreadMethod="pad" gradientUnits="userSpaceOnUse"><stop id="edas7iltcgb131-stroke-0" offset="0%" stop-color="rgb(90,243,255)"></stop><stop id="edas7iltcgb131-stroke-1" offset="100%" stop-color="rgba(90,243,255,0)"></stop></radialGradient><radialGradient id="edas7iltcgb132-stroke" cx="132.580000" cy="78.538396" r="1.220000" spreadMethod="pad" gradientUnits="userSpaceOnUse"><stop id="edas7iltcgb132-stroke-0" offset="0%" stop-color="rgb(90,243,255)"></stop><stop id="edas7iltcgb132-stroke-1" offset="100%" stop-color="rgba(90,243,255,0)"></stop></radialGradient><radialGradient id="edas7iltcgb133-stroke" cx="132.580000" cy="78.538396" r="1.220000" spreadMethod="pad" gradientUnits="userSpaceOnUse"><stop id="edas7iltcgb133-stroke-0" offset="0%" stop-color="rgb(90,243,255)"></stop><stop id="edas7iltcgb133-stroke-1" offset="100%" stop-color="rgba(90,243,255,0)"></stop></radialGradient><radialGradient id="edas7iltcgb134-stroke" cx="132.580000" cy="78.538396" r="1.220000" spreadMethod="pad" gradientUnits="userSpaceOnUse"><stop id="edas7iltcgb134-stroke-0" offset="0%" stop-color="rgb(90,243,255)"></stop><stop id="edas7iltcgb134-stroke-1" offset="100%" stop-color="rgba(90,243,255,0)"></stop></radialGradient><radialGradient id="edas7iltcgb135-stroke" cx="132.580000" cy="78.538396" r="1.220000" spreadMethod="pad" gradientUnits="userSpaceOnUse"><stop id="edas7iltcgb135-stroke-0" offset="0%" stop-color="rgb(90,243,255)"></stop><stop id="edas7iltcgb135-stroke-1" offset="100%" stop-color="rgba(90,243,255,0)"></stop></radialGradient><radialGradient id="edas7iltcgb136-stroke" cx="132.580000" cy="78.538396" r="1.220000" spreadMethod="pad" gradientUnits="userSpaceOnUse"><stop id="edas7iltcgb136-stroke-0" offset="0%" stop-color="rgb(90,243,255)"></stop><stop id="edas7iltcgb136-stroke-1" offset="100%" stop-color="rgba(90,243,255,0)"></stop></radialGradient><radialGradient id="edas7iltcgb137-stroke" cx="132.580000" cy="78.538396" r="1.220000" spreadMethod="pad" gradientUnits="userSpaceOnUse"><stop id="edas7iltcgb137-stroke-0" offset="0%" stop-color="rgb(90,243,255)"></stop><stop id="edas7iltcgb137-stroke-1" offset="100%" stop-color="rgba(90,243,255,0)"></stop></radialGradient><radialGradient id="edas7iltcgb138-stroke" cx="132.580000" cy="78.538396" r="1.220000" spreadMethod="pad" gradientUnits="userSpaceOnUse"><stop id="edas7iltcgb138-stroke-0" offset="0%" stop-color="rgb(90,243,255)"></stop><stop id="edas7iltcgb138-stroke-1" offset="100%" stop-color="rgba(90,243,255,0)"></stop></radialGradient><radialGradient id="edas7iltcgb143-fill" cx="-0.040000" cy="0.270000" r="11.130000" spreadMethod="pad" gradientUnits="userSpaceOnUse"><stop id="edas7iltcgb143-fill-0" offset="24%" stop-color="rgb(28,44,79)"></stop><stop id="edas7iltcgb143-fill-1" offset="71%" stop-color="rgba(62,76,104,0.22368421052631582)"></stop><stop id="edas7iltcgb143-fill-2" offset="99%" stop-color="rgba(62,76,104,0)"></stop></radialGradient><radialGradient id="edas7iltcgb145-fill" cx="111.941597" cy="77.547105" r="3.470000" spreadMethod="pad" gradientUnits="userSpaceOnUse"><stop id="edas7iltcgb145-fill-0" offset="0%" stop-color="rgb(255,255,255)"></stop><stop id="edas7iltcgb145-fill-1" offset="36%" stop-color="rgb(245,248,251)"></stop><stop id="edas7iltcgb145-fill-2" offset="67%" stop-color="rgb(208,221,235)"></stop><stop id="edas7iltcgb145-fill-3" offset="100%" stop-color="rgb(154,183,209)"></stop></radialGradient><radialGradient id="edas7iltcgb151-fill" cx="104.819213" cy="94.020626" r="4.080000" spreadMethod="pad" gradientUnits="userSpaceOnUse"><stop id="edas7iltcgb151-fill-0" offset="0%" stop-color="rgb(245,248,251)"></stop><stop id="edas7iltcgb151-fill-1" offset="51%" stop-color="rgb(208,221,235)"></stop><stop id="edas7iltcgb151-fill-2" offset="100%" stop-color="rgb(154,183,209)"></stop></radialGradient><radialGradient id="edas7iltcgb155-fill" cx="105.632913" cy="96.337398" r="4.170000" spreadMethod="pad" gradientUnits="userSpaceOnUse"><stop id="edas7iltcgb155-fill-0" offset="0%" stop-color="rgb(245,248,251)"></stop><stop id="edas7iltcgb155-fill-1" offset="51%" stop-color="rgb(208,221,235)"></stop><stop id="edas7iltcgb155-fill-2" offset="100%" stop-color="rgb(154,183,209)"></stop></radialGradient><radialGradient id="edas7iltcgb159-fill" cx="109.195559" cy="97.326366" r="4.350000" spreadMethod="pad" gradientUnits="userSpaceOnUse"><stop id="edas7iltcgb159-fill-0" offset="0%" stop-color="rgb(245,248,251)"></stop><stop id="edas7iltcgb159-fill-1" offset="51%" stop-color="rgb(208,221,235)"></stop><stop id="edas7iltcgb159-fill-2" offset="100%" stop-color="rgb(154,183,209)"></stop></radialGradient><radialGradient id="edas7iltcgb163-fill" cx="116.856182" cy="90.458674" r="3.240000" spreadMethod="pad" gradientUnits="userSpaceOnUse"><stop id="edas7iltcgb163-fill-0" offset="0%" stop-color="rgb(245,248,251)"></stop><stop id="edas7iltcgb163-fill-1" offset="53%" stop-color="rgb(208,221,235)"></stop><stop id="edas7iltcgb163-fill-2" offset="100%" stop-color="rgb(154,183,209)"></stop></radialGradient><radialGradient id="edas7iltcgb164-fill" cx="108.570000" cy="86.300000" r="5.390000" spreadMethod="pad" gradientUnits="userSpaceOnUse"><stop id="edas7iltcgb164-fill-0" offset="0%" stop-color="rgb(255,255,255)"></stop><stop id="edas7iltcgb164-fill-1" offset="28%" stop-color="rgb(245,248,251)"></stop><stop id="edas7iltcgb164-fill-2" offset="62%" stop-color="rgb(208,221,235)"></stop><stop id="edas7iltcgb164-fill-3" offset="100%" stop-color="rgb(154,183,209)"></stop></radialGradient><radialGradient id="edas7iltcgb170-fill" cx="111.941597" cy="77.547105" r="3.470000" spreadMethod="pad" gradientUnits="userSpaceOnUse"><stop id="edas7iltcgb170-fill-0" offset="0%" stop-color="rgb(255,255,255)"></stop><stop id="edas7iltcgb170-fill-1" offset="36%" stop-color="rgb(245,248,251)"></stop><stop id="edas7iltcgb170-fill-2" offset="67%" stop-color="rgb(208,221,235)"></stop><stop id="edas7iltcgb170-fill-3" offset="100%" stop-color="rgb(154,183,209)"></stop></radialGradient><radialGradient id="edas7iltcgb176-fill" cx="104.819213" cy="94.020626" r="4.080000" spreadMethod="pad" gradientUnits="userSpaceOnUse"><stop id="edas7iltcgb176-fill-0" offset="0%" stop-color="rgb(245,248,251)"></stop><stop id="edas7iltcgb176-fill-1" offset="51%" stop-color="rgb(208,221,235)"></stop><stop id="edas7iltcgb176-fill-2" offset="100%" stop-color="rgb(154,183,209)"></stop></radialGradient><radialGradient id="edas7iltcgb180-fill" cx="105.632913" cy="96.337398" r="4.170000" spreadMethod="pad" gradientUnits="userSpaceOnUse"><stop id="edas7iltcgb180-fill-0" offset="0%" stop-color="rgb(245,248,251)"></stop><stop id="edas7iltcgb180-fill-1" offset="51%" stop-color="rgb(208,221,235)"></stop><stop id="edas7iltcgb180-fill-2" offset="100%" stop-color="rgb(154,183,209)"></stop></radialGradient><radialGradient id="edas7iltcgb184-fill" cx="109.195559" cy="97.326366" r="4.350000" spreadMethod="pad" gradientUnits="userSpaceOnUse"><stop id="edas7iltcgb184-fill-0" offset="0%" stop-color="rgb(245,248,251)"></stop><stop id="edas7iltcgb184-fill-1" offset="51%" stop-color="rgb(208,221,235)"></stop><stop id="edas7iltcgb184-fill-2" offset="100%" stop-color="rgb(154,183,209)"></stop></radialGradient><radialGradient id="edas7iltcgb188-fill" cx="116.856182" cy="90.458674" r="3.240000" spreadMethod="pad" gradientUnits="userSpaceOnUse"><stop id="edas7iltcgb188-fill-0" offset="0%" stop-color="rgb(245,248,251)"></stop><stop id="edas7iltcgb188-fill-1" offset="53%" stop-color="rgb(208,221,235)"></stop><stop id="edas7iltcgb188-fill-2" offset="100%" stop-color="rgb(154,183,209)"></stop></radialGradient><radialGradient id="edas7iltcgb189-fill" cx="108.570000" cy="86.300000" r="5.390000" spreadMethod="pad" gradientUnits="userSpaceOnUse"><stop id="edas7iltcgb189-fill-0" offset="0%" stop-color="rgb(255,255,255)"></stop><stop id="edas7iltcgb189-fill-1" offset="28%" stop-color="rgb(245,248,251)"></stop><stop id="edas7iltcgb189-fill-2" offset="62%" stop-color="rgb(208,221,235)"></stop><stop id="edas7iltcgb189-fill-3" offset="100%" stop-color="rgb(154,183,209)"></stop></radialGradient><radialGradient id="edas7iltcgb191-fill" cx="0" cy="0" r="18.990000" spreadMethod="pad" gradientUnits="userSpaceOnUse"><stop id="edas7iltcgb191-fill-0" offset="28%" stop-color="rgb(62,76,104)"></stop><stop id="edas7iltcgb191-fill-1" offset="43%" stop-color="rgba(37,71,112,0.5)"></stop><stop id="edas7iltcgb191-fill-2" offset="69%" stop-color="rgba(76,107,151,0.2)"></stop><stop id="edas7iltcgb191-fill-3" offset="100%" stop-color="rgba(230,250,255,0)"></stop></radialGradient><radialGradient id="edas7iltcgb193-fill" cx="141.480006" cy="34.400000" r="33.870000" spreadMethod="pad" gradientUnits="userSpaceOnUse"><stop id="edas7iltcgb193-fill-0" offset="0%" stop-color="rgb(255,255,255)"></stop><stop id="edas7iltcgb193-fill-1" offset="26%" stop-color="rgb(247,249,252)"></stop><stop id="edas7iltcgb193-fill-2" offset="67%" stop-color="rgb(208,221,235)"></stop><stop id="edas7iltcgb193-fill-3" offset="100%" stop-color="rgb(143,175,204)"></stop></radialGradient><linearGradient id="edas7iltcgb195-fill" x1="140.913593" y1="56.810501" x2="140.913593" y2="35.419601" spreadMethod="pad" gradientUnits="userSpaceOnUse"><stop id="edas7iltcgb195-fill-0" offset="18%" stop-color="rgb(255,255,255)"></stop><stop id="edas7iltcgb195-fill-1" offset="57%" stop-color="rgb(214,225,238)"></stop></linearGradient><radialGradient id="edas7iltcgb196-fill" cx="141.379988" cy="37.560000" r="27.460000" spreadMethod="pad" gradientUnits="userSpaceOnUse"><stop id="edas7iltcgb196-fill-0" offset="0%" stop-color="rgb(29,88,150)"></stop><stop id="edas7iltcgb196-fill-1" offset="16%" stop-color="rgb(24,78,137)"></stop><stop id="edas7iltcgb196-fill-2" offset="47%" stop-color="rgb(12,53,101)"></stop><stop id="edas7iltcgb196-fill-3" offset="88%" stop-color="rgb(0,13,45)"></stop><stop id="edas7iltcgb196-fill-4" offset="100%" stop-color="rgb(0,0,27)"></stop></radialGradient><radialGradient id="edas7iltcgb197-fill" cx="141.560006" cy="36.200000" r="31.370000" spreadMethod="pad" gradientUnits="userSpaceOnUse"><stop id="edas7iltcgb197-fill-0" offset="0%" stop-color="rgb(42,101,163)"></stop><stop id="edas7iltcgb197-fill-1" offset="51%" stop-color="rgb(25,66,114)"></stop><stop id="edas7iltcgb197-fill-2" offset="100%" stop-color="rgb(0,13,40)"></stop></radialGradient><linearGradient id="edas7iltcgb202-stroke" x1="141.390000" y1="29.310000" x2="141.390000" y2="16.010000" spreadMethod="pad" gradientUnits="userSpaceOnUse"><stop id="edas7iltcgb202-stroke-0" offset="21%" stop-color="rgb(255,255,255)"></stop><stop id="edas7iltcgb202-stroke-1" offset="100%" stop-color="rgb(180,199,220)"></stop></linearGradient><linearGradient id="edas7iltcgb203-stroke" x1="141.390000" y1="29.920000" x2="141.390000" y2="16.010000" spreadMethod="pad" gradientUnits="userSpaceOnUse"><stop id="edas7iltcgb203-stroke-0" offset="0%" stop-color="rgb(225,233,241)"></stop><stop id="edas7iltcgb203-stroke-1" offset="71%" stop-color="rgb(159,184,211)"></stop><stop id="edas7iltcgb203-stroke-2" offset="100%" stop-color="rgb(180,199,220)"></stop></linearGradient><linearGradient id="edas7iltcgb204-stroke" x1="120.440000" y1="19.490000" x2="120.440000" y2="25.740000" spreadMethod="pad" gradientUnits="userSpaceOnUse"><stop id="edas7iltcgb204-stroke-0" offset="6%" stop-color="rgb(180,199,220)"></stop><stop id="edas7iltcgb204-stroke-1" offset="100%" stop-color="rgb(255,255,255)"></stop></linearGradient><linearGradient id="edas7iltcgb205-stroke" x1="162.330000" y1="19.490000" x2="162.330000" y2="25.740000" spreadMethod="pad" gradientUnits="userSpaceOnUse"><stop id="edas7iltcgb205-stroke-0" offset="6%" stop-color="rgb(180,199,220)"></stop><stop id="edas7iltcgb205-stroke-1" offset="100%" stop-color="rgb(255,255,255)"></stop></linearGradient><linearGradient id="edas7iltcgb206-stroke" x1="159.870000" y1="25.450000" x2="163.710000" y2="20.880000" spreadMethod="pad" gradientUnits="userSpaceOnUse"><stop id="edas7iltcgb206-stroke-0" offset="0%" stop-color="rgb(173,194,217)"></stop><stop id="edas7iltcgb206-stroke-1" offset="94%" stop-color="rgb(180,199,220)"></stop></linearGradient><linearGradient id="edas7iltcgb207-stroke" x1="119.060000" y1="20.880000" x2="122.900000" y2="25.450000" spreadMethod="pad" gradientUnits="userSpaceOnUse"><stop id="edas7iltcgb207-stroke-0" offset="6%" stop-color="rgb(180,199,220)"></stop><stop id="edas7iltcgb207-stroke-1" offset="100%" stop-color="rgb(173,194,217)"></stop></linearGradient><radialGradient id="edas7iltcgb212-fill" cx="1.450000" cy="4.580000" r="3.400000" spreadMethod="pad" gradientUnits="userSpaceOnUse"><stop id="edas7iltcgb212-fill-0" offset="0%" stop-color="rgb(42,101,163)"></stop><stop id="edas7iltcgb212-fill-1" offset="100%" stop-color="rgb(25,66,114)"></stop></radialGradient><radialGradient id="edas7iltcgb218-fill" cx="155.810195" cy="116.680000" r="9.110000" spreadMethod="pad" gradientUnits="userSpaceOnUse"><stop id="edas7iltcgb218-fill-0" offset="0%" stop-color="rgb(65,97,133)"></stop><stop id="edas7iltcgb218-fill-1" offset="100%" stop-color="rgb(62,76,104)"></stop></radialGradient><radialGradient id="edas7iltcgb219-fill" cx="157.100195" cy="115.370000" r="7.620000" spreadMethod="pad" gradientUnits="userSpaceOnUse"><stop id="edas7iltcgb219-fill-0" offset="26%" stop-color="rgb(247,249,252)"></stop><stop id="edas7iltcgb219-fill-1" offset="67%" stop-color="rgb(208,221,235)"></stop><stop id="edas7iltcgb219-fill-2" offset="100%" stop-color="rgb(143,175,204)"></stop></radialGradient><linearGradient id="edas7iltcgb220-fill" x1="160.349999" y1="121.940000" x2="160.349999" y2="115.990000" spreadMethod="pad" gradientUnits="userSpaceOnUse"><stop id="edas7iltcgb220-fill-0" offset="0%" stop-color="rgb(62,76,104)"></stop><stop id="edas7iltcgb220-fill-1" offset="54%" stop-color="rgb(65,97,133)"></stop></linearGradient><linearGradient id="edas7iltcgb221-fill" x1="273.670004" y1="2.360000" x2="278.411504" y2="-2.360000" spreadMethod="pad" gradientUnits="userSpaceOnUse"><stop id="edas7iltcgb221-fill-0" offset="0%" stop-color="rgb(62,76,104)"></stop><stop id="edas7iltcgb221-fill-1" offset="100%" stop-color="rgb(65,97,133)"></stop></linearGradient><linearGradient id="edas7iltcgb222-fill" x1="152.283586" y1="108.345821" x2="157.975586" y2="113.516821" spreadMethod="pad" gradientUnits="userSpaceOnUse"><stop id="edas7iltcgb222-fill-0" offset="0%" stop-color="rgb(62,76,104)"></stop><stop id="edas7iltcgb222-fill-1" offset="100%" stop-color="rgb(65,97,133)"></stop></linearGradient><radialGradient id="edas7iltcgb223-fill" cx="154.358204" cy="107.757200" r="3.820000" spreadMethod="pad" gradientUnits="userSpaceOnUse"><stop id="edas7iltcgb223-fill-0" offset="0%" stop-color="rgb(255,255,255)"></stop><stop id="edas7iltcgb223-fill-1" offset="28%" stop-color="rgb(245,248,251)"></stop><stop id="edas7iltcgb223-fill-2" offset="62%" stop-color="rgb(208,221,235)"></stop><stop id="edas7iltcgb223-fill-3" offset="100%" stop-color="rgb(154,183,209)"></stop></radialGradient><radialGradient id="edas7iltcgb227-fill" cx="155.810195" cy="116.680000" r="9.110000" spreadMethod="pad" gradientUnits="userSpaceOnUse"><stop id="edas7iltcgb227-fill-0" offset="0%" stop-color="rgb(65,97,133)"></stop><stop id="edas7iltcgb227-fill-1" offset="100%" stop-color="rgb(62,76,104)"></stop></radialGradient><radialGradient id="edas7iltcgb228-fill" cx="157.100195" cy="115.370000" r="7.620000" spreadMethod="pad" gradientUnits="userSpaceOnUse"><stop id="edas7iltcgb228-fill-0" offset="26%" stop-color="rgb(247,249,252)"></stop><stop id="edas7iltcgb228-fill-1" offset="67%" stop-color="rgb(208,221,235)"></stop><stop id="edas7iltcgb228-fill-2" offset="100%" stop-color="rgb(143,175,204)"></stop></radialGradient><linearGradient id="edas7iltcgb229-fill" x1="160.349999" y1="121.940000" x2="160.349999" y2="115.990000" spreadMethod="pad" gradientUnits="userSpaceOnUse"><stop id="edas7iltcgb229-fill-0" offset="0%" stop-color="rgb(62,76,104)"></stop><stop id="edas7iltcgb229-fill-1" offset="54%" stop-color="rgb(65,97,133)"></stop></linearGradient><linearGradient id="edas7iltcgb230-fill" x1="273.670004" y1="2.360000" x2="278.411504" y2="-2.360000" spreadMethod="pad" gradientUnits="userSpaceOnUse"><stop id="edas7iltcgb230-fill-0" offset="0%" stop-color="rgb(62,76,104)"></stop><stop id="edas7iltcgb230-fill-1" offset="100%" stop-color="rgb(65,97,133)"></stop></linearGradient><linearGradient id="edas7iltcgb231-fill" x1="152.283586" y1="108.345821" x2="157.975586" y2="113.516821" spreadMethod="pad" gradientUnits="userSpaceOnUse"><stop id="edas7iltcgb231-fill-0" offset="0%" stop-color="rgb(62,76,104)"></stop><stop id="edas7iltcgb231-fill-1" offset="100%" stop-color="rgb(65,97,133)"></stop></linearGradient><radialGradient id="edas7iltcgb232-fill" cx="154.358204" cy="107.757200" r="3.820000" spreadMethod="pad" gradientUnits="userSpaceOnUse"><stop id="edas7iltcgb232-fill-0" offset="0%" stop-color="rgb(255,255,255)"></stop><stop id="edas7iltcgb232-fill-1" offset="28%" stop-color="rgb(245,248,251)"></stop><stop id="edas7iltcgb232-fill-2" offset="62%" stop-color="rgb(208,221,235)"></stop><stop id="edas7iltcgb232-fill-3" offset="100%" stop-color="rgb(154,183,209)"></stop></radialGradient></defs><circle id="edas7iltcgb2" r="18.990000" transform="matrix(2.86320634537825 0 0 0.41120046189889 140 121.33000000000000)" opacity="0.500000" fill="url(&quot;#edas7iltcgb2-fill&quot;)" stroke="none" stroke-width="1"></circle><g id="edas7iltcgb3" opacity="0"><g id="edas7iltcgb4" transform="matrix(1.87750990618134 0 0 1.87750990618134 -191.82730706312265 -75.27447456725443)"><g id="edas7iltcgb5" transform="matrix(0.81489951495979 0 0 0.81486900833024 42.57311155924785 -11.30313676918643)"><g id="edas7iltcgb6" transform="matrix(0.50000000000000 0 0 0.50000000000000 115.00194930999999 24.99999904500000)"><path id="edas7iltcgb7" d="M 68.50000000000003 52.72000000000002 C 66.70081356634302 50.99256485612783 30.023271255749762 51.3849563145601 28.50000000000003 52.72000000000002 C 28.512467906180795 52.71130175461304 28.485057992505304 52.73842192926922 28.500000000000018 52.72000000000002 C 28.53448952558638 52.75408262598879 28.493057264438537 52.71867768357551 28.50000000000003 52.72000000000002 C 29.477057837274167 54.89134327120307 67.3043232179722 54.76541853604127 68.50000000000003 52.72000000000002 C 68.49201827668222 52.68753397555988 68.49920058589585 52.72671899788548 68.50000000000004 52.72000000000002 C 68.4819823234005 52.71940211872095 68.47370239923579 52.722587308479405 68.50000000000003 52.72000000000002 Z" transform="matrix(1 0 0 1 171.49999999999997 -2.72000000000002)" fill="url(&quot;#edas7iltcgb7-fill&quot;)" stroke="none" stroke-width="1"></path><path id="edas7iltcgb8" d="M -40.76388093180208 46.11715185234308 C -37.74512576290609 41.68367217523252 44.86885950766758 42.99648089419567 46 46.11715185234308 C 46.005886865052105 46.11752314665677 45.973185005610034 46.19808628554274 46.00000000000004 46.117151852343056 L -40.763880931802035 46.11715185234306 C -40.84032679968444 46.12924842942857 -40.82386784935191 46.16540640696017 -40.76388093180208 46.11715185234308 Z" transform="matrix(0.23051066624971 0 0 0.21683906308910 249.39650935251345 40)" fill="url(&quot;#edas7iltcgb8-fill&quot;)" stroke="none" stroke-width="1"></path><path id="edas7iltcgb9" d="M 0.36930490496092716 -1.1546319456101628e-14 C 0.5558754865802968 -5.2072487601096 43.38678146766429 -8.336312049959066 46.00000000000003 -1.1546319456101628e-14 C 46.05520703669205 -0.0670502778707407 46.01519204702147 0.1263849336954017 46 7.105427357601002e-15 C 45.0644457124626 6.783398043315582 0.6634167246855824 7.365514711793413 0.36930490496092716 3.552713678800501e-14 C 0.3648073726300353 -0.09745237416329289 0.3294820980643802 0.07650441336327773 0.36930490496092716 -1.1546319456101628e-14 Z" transform="matrix(0.43830145384251 0 0 0.21683906308910 239.83813312324443 50)" fill="url(&quot;#edas7iltcgb9-fill&quot;)" stroke="none" stroke-width="1"></path><path id="edas7iltcgb10" d="M34,20.629601C51.664938,20.629601,65.985199,34.949862,65.985199,52.614800C65.985199,70.279738,51.664938,84.600000,34,84.600000Z" transform="matrix(0 -0.93793380237687 0.93793380237687 0 180.65080032497679 81.88974881581345)" fill="url(&quot;#edas7iltcgb10-fill&quot;)" stroke="none" stroke-width="1"></path><path id="edas7iltcgb11" d="M34,20.629601C51.664938,20.629601,65.985200,34.949862,65.985200,52.614800C65.985200,70.279738,51.664938,84.600000,34,84.600000Z" transform="matrix(0 0.93793380237687 -0.93793380237687 0 279.34919969502317 18.11025026418656)" fill="url(&quot;#edas7iltcgb11-fill&quot;)" stroke="none" stroke-width="1"></path><circle id="edas7iltcgb12" r="30" transform="matrix(-0.52486356686235 0.30206937209022 -0.30194598677192 -0.52464917750599 253.27269908960608 31.45854952109609)" fill="#171f41" stroke="none" stroke-width="1"></circle><circle id="edas7iltcgb13" r="30" transform="matrix(0.60558044005272 0 0 0.60533308053119 202.39311027089755 55.65156719173680)" fill="#171f41" stroke="none" stroke-width="1"></circle></g><circle id="edas7iltcgb14" r="30" transform="matrix(0.60558044005272 0 0 0.60533308053119 230 49.99999999999999)" opacity="0.66" fill="url(&quot;#edas7iltcgb14-fill&quot;)" stroke="none" stroke-width="1"></circle></g></g><g id="edas7iltcgb15" transform="matrix(0 0.29312552965607 -0.29367873586665 0 80.55751151066569 -18.79376588968201)"><path id="edas7iltcgb16" d="M-14.922336,4.922336C-14.922336,-0.600511,-10.479955,-5.077664,-5,-5.077664C0.479955,-5.077664,4.922336,-0.600511,4.922336,4.922336C4.922336,10.445183,0.479955,14.922336,-5,14.922336C-10.479955,14.922336,-14.922336,10.445183,-14.922336,4.922336Z" transform="matrix(0.70710678118655 0.70710678118655 -0.70710678118655 0.70710678118655 -42.97645726900583 70.05389739099414)" fill="#171f41" stroke="none" stroke-width="2px" stroke-linejoin="round"></path><path id="edas7iltcgb17" d="M-24.922336,4.922336C-24.922336,-6.123359,-15.968031,-15.077664,-4.922336,-15.077664C6.123359,-15.077664,15.077664,-6.123359,15.077664,4.922336C15.077664,15.968031,6.123359,24.922336,-4.922336,24.922336C-15.968031,24.922336,-24.922336,15.968031,-24.922336,4.922336Z" transform="matrix(0.70710678118655 0.70710678118655 -0.70710678118655 0.70710678118655 36.96123432975736 70.00000000000003)" fill="url(&quot;#edas7iltcgb17-fill&quot;)" stroke="none" stroke-width="2px" stroke-linejoin="round"></path><path id="edas7iltcgb18" d="M 31.49999999999999 46.71999999999997 L 31.499999999999986 46.71999999999998 C 31.465352021560978 46.77336421714997 31.47815943419961 46.56403952435043 31.499999999999993 46.719999999999985 C 28.520999894409098 46.71676324732052 22.578665132664806 47.3845519498368 17.35786437626901 52.576710672924975 L 45.63897411104399 52.57671067292499 C 40.67200910879182 47.60169560998006 34.468404673201206 46.68148465370701 31.499999999999993 46.71999999999997 C 31.58429967492616 46.68732600688533 31.509279532405664 46.78694024212742 31.49999999999999 46.71999999999997 Z" transform="matrix(0 1 -1 0 96.71999999999997 38.50000000000001)" fill="url(&quot;#edas7iltcgb18-fill&quot;)" stroke="none" stroke-width="1"></path><path id="edas7iltcgb19" d="M -15.629999849999997 35.90938598000253 C -14.95419500974728 34.21491628807808 -14.982638566470644 33.205741587566585 -11.14213562373098 28.888872376269006 L -11.142135623730994 57.142135623730944 C -13.94707127792816 53.970940512074975 -15.011360344061377 51.68680572976224 -15.629999850000004 49.99660486261638 L -15.629999849999997 35.90938598000253 Z" transform="matrix(1 0 0 1 27 27)" fill="url(&quot;#edas7iltcgb19-fill&quot;)" stroke="none" stroke-width="1"></path></g><g id="edas7iltcgb20" transform="matrix(0 0.54547251961872 -0.54650197203766 0 98.25513804263616 -56.36417558856165)"><path id="edas7iltcgb21" d="M 31.49999999999999 46.71999999999997 L 31.499999999999986 46.71999999999998 C 31.465352021560978 46.77336421714997 31.47815943419961 46.56403952435043 31.499999999999993 46.719999999999985 C 28.520999894409098 46.71676324732052 22.578665132664806 47.3845519498368 17.35786437626901 52.576710672924975 L 45.63897411104399 52.57671067292499 C 40.67200910879182 47.60169560998006 34.468404673201206 46.68148465370701 31.499999999999993 46.71999999999997 C 31.58429967492616 46.68732600688533 31.509279532405664 46.78694024212742 31.49999999999999 46.71999999999997 Z" transform="matrix(0 1 -1 0 96.71999999999997 38.50000000000001)" fill="url(&quot;#edas7iltcgb21-fill&quot;)" stroke="none" stroke-width="1"></path><path id="edas7iltcgb22" d="M-24.922336,4.922336C-24.922336,-6.123359,-15.968031,-15.077664,-4.922336,-15.077664C6.123359,-15.077664,15.077664,-6.123359,15.077664,4.922336C15.077664,15.968031,6.123359,24.922336,-4.922336,24.922336C-15.968031,24.922336,-24.922336,15.968031,-24.922336,4.922336Z" transform="matrix(0.70710678118655 0.70710678118655 -0.70710678118655 0.70710678118655 36.96123432975736 70.00000000000003)" fill="url(&quot;#edas7iltcgb22-fill&quot;)" stroke="none" stroke-width="2px" stroke-linejoin="round"></path><path id="edas7iltcgb23" d="M-14.922336,4.922336C-14.922336,-0.600511,-10.479955,-5.077664,-5,-5.077664C0.479955,-5.077664,4.922336,-0.600511,4.922336,4.922336C4.922336,10.445183,0.479955,14.922336,-5,14.922336C-10.479955,14.922336,-14.922336,10.445183,-14.922336,4.922336Z" transform="matrix(0.70710678118655 0.70710678118655 -0.70710678118655 0.70710678118655 -42.97645726900583 70.05389739099414)" fill="#171f41" stroke="none" stroke-width="2px" stroke-linejoin="round"></path><path id="edas7iltcgb24" d="M -15.629999849999997 35.90938598000253 C -14.95419500974728 34.21491628807808 -14.982638566470644 33.205741587566585 -11.14213562373098 28.888872376269006 L -11.142135623730994 57.142135623730944 C -13.94707127792816 53.970940512074975 -15.011360344061377 51.68680572976224 -15.629999850000004 49.99660486261638 L -15.629999849999997 35.90938598000253 Z" transform="matrix(1 0 0 1 27 27)" fill="url(&quot;#edas7iltcgb24-fill&quot;)" stroke="none" stroke-width="1"></path></g><g id="edas7iltcgb25" transform="matrix(0.91223163832678 0 0 0.91223163832678 -0.46901629264158 -51.80700551266767)"><path id="edas7iltcgb26" d="M -8.39272100000003 -2.0086820000000074 C -8.39272100000003 -10.25006060465106 -3.2830306046510866 -15.344954000000005 0.7188859999999693 -14.303809000000008 C 6.734863604651023 -12.361968000000008 6.535518999999969 -4.927819604651054 -4.628208000000033 1.4962079999999958 C -14.104394000000035 8.050046604651042 -1.7540503953489495 16.350255000000015 0 14.92233600000002 C 3.5714013953489516 12.845363000000024 -8.39272100000003 6.232696604651045 -8.39272100000003 -2.0086820000000074 Z" transform="matrix(0.97814760073381 0.20791169081776 -0.20791169081776 0.97814760073381 44.36265400000003 34.84776900000001)" fill="url(&quot;#edas7iltcgb26-fill&quot;)" fill-opacity="0.66" stroke="none" stroke-width="6px" stroke-opacity="0.55" stroke-linejoin="round"></path><path id="edas7iltcgb27" d="M -14.92233600000002 0 C -14.92233600000002 -8.241378604651052 -8.241378604651052 -14.92233600000002 0 -14.92233600000002 C 8.241378604651052 -14.92233600000002 14.92233600000002 -8.241378604651052 14.92233600000002 0 C 14.92233600000002 8.241378604651052 8.241378604651052 14.92233600000002 0 14.92233600000002 C -8.241378604651052 14.92233600000002 -14.92233600000002 8.241378604651052 -14.92233600000002 0 Z" transform="matrix(0.97814760073381 -0.20791169081776 0.20791169081776 0.97814760073381 44.36265400000003 34.84776900000000)" fill="url(&quot;#edas7iltcgb27-fill&quot;)" fill-opacity="0.66" stroke="none" stroke-width="6px" stroke-opacity="0.55" stroke-linecap="round" stroke-linejoin="round"></path><path id="edas7iltcgb28" d="M -14.104394000000028 0.1981009999999941 C -14.104394000000028 -8.043277604651058 -7.462514604651053 -14.792525000000019 0 -14.92233600000002 C 12.265512604651056 -14.40309300000002 14.713595999999978 -0.9036856046510575 6.1460849999999745 3.313558999999991 C -2.940668000000027 8.050046604651042 4.996109604651052 14.792525000000015 0 14.92233600000002 C -7.073081604651049 15.052146000000018 -14.104394000000028 8.439479604651046 -14.104394000000028 0.1981009999999941 Z" transform="matrix(-0.08331416325305 -0.99652333148875 0.99652333148875 -0.08331416325305 44.36265400000001 34.84776899999998)" fill="url(&quot;#edas7iltcgb28-fill&quot;)" fill-opacity="0.66" stroke="none" stroke-width="6px" stroke-opacity="0.55" stroke-linecap="round" stroke-linejoin="round"></path><circle id="edas7iltcgb29" r="14.922336" transform="matrix(0.14610311194960 0 0 0.14741555613289 33.47810183796416 29.93862933885296)" fill="url(&quot;#edas7iltcgb29-fill&quot;)" stroke="none" stroke-width="2px"></circle><circle id="edas7iltcgb30" r="14.922336" transform="matrix(-0.10406569975990 0.04262976765996 -0.04301271084203 -0.10500052189002 53.74306268358819 36.31420859300719)" fill="url(&quot;#edas7iltcgb30-fill&quot;)" stroke="none" stroke-width="2px"></circle><circle id="edas7iltcgb31" r="14.922336" transform="matrix(1.09118639024149 0 0 1.09118639024149 44.36265399986007 34.84776899988307)" fill="url(&quot;#edas7iltcgb31-fill&quot;)" stroke="none" stroke-width="2px"></circle></g></g><g id="edas7iltcgb32"><rect id="edas7iltcgb33" display="none" width="180" height="132" rx="0" ry="0" transform="matrix(1 0 0 1 50 0)" fill="#f7faff" stroke="none" stroke-width="1"></rect><path id="edas7iltcgb34" display="none" d="M27.640121,92.839144C27.640121,24.439144,79.310121,-31.010856,143.050121,-31.010856C206.790121,-31.010856,258.460121,24.439144,258.460121,92.839144Z" opacity="0.2" fill="url(&quot;#edas7iltcgb34-fill&quot;)" stroke="none" stroke-width="1"></path><rect id="edas7iltcgb35" width="280" height="15.294274" rx="0" ry="0" transform="matrix(1 0 0 1 0 116.70572600000000)" fill="url(&quot;#edas7iltcgb35-fill&quot;)" stroke="none" stroke-width="1"></rect><rect id="edas7iltcgb36" width="280" height="19.580430" rx="0" ry="0" fill="url(&quot;#edas7iltcgb36-fill&quot;)" stroke="none" stroke-width="1"></rect></g><g id="edas7iltcgb37" transform="matrix(1 0 0 1 0 0)"><g id="edas7iltcgb38" transform="matrix(1 0 0 1 0 0)"><g id="edas7iltcgb39" transform="matrix(-1 0 0 1 279.98964257000000 0)"><g id="edas7iltcgb40" transform="matrix(0.99942067805762 -0.03403392823134 0.03403392823134 0.99942067805762 -12.23235893336607 5.46760263500873)"><g id="edas7iltcgb41" transform="matrix(0 1 -1 0 224.12000000000000 -105.38000000000000)"><g id="edas7iltcgb42" transform="matrix(0.01928864403076 0.99981395679969 -0.99981395679969 0.01928864403076 261.65476915863445 -112.63136213698405)"><g id="edas7iltcgb43" transform="matrix(0 0 0 0 188.24004865999999 85.36297774000008)" opacity="0"><line id="edas7iltcgb44" x1="203.910000" y1="85.330000" x2="203.910000" y2="105.380000" fill="none" stroke="url(&quot;#edas7iltcgb44-stroke&quot;)" stroke-width="1.03481px" stroke-miterlimit="10"></line><circle id="edas7iltcgb45" r="8.870000" transform="matrix(1 0 0 1 203.90999999999997 85.29000000000008)" fill="url(&quot;#edas7iltcgb45-fill&quot;)" stroke="none" stroke-width="1"></circle></g><path id="edas7iltcgb46" d="M188.240000,69.400000C184.100000,69.400000,184.240000,82.510000,184.240000,82.510000C184.240000,84.050000,186.100000,85.310000,188.240000,85.330000C190.380000,85.350000,192.240000,84.050000,192.240000,82.510000C192.240000,82.510000,192.390000,69.360000,188.240000,69.400000Z" fill="url(&quot;#edas7iltcgb46-fill&quot;)" stroke="none" stroke-width="1"></path></g><g id="edas7iltcgb47"><polygon id="edas7iltcgb48" points="164.750000,59.370000 202.170000,66.060000 200.700000,78.780000 160.590000,82.630000 164.750000,59.370000" fill="#171f41" stroke="none" stroke-width="1"></polygon><path id="edas7iltcgb49" d="M164,63.630000L193.130000,68.790000C193.493241,68.081039,193.969469,67.435936,194.540000,66.880000L164.400000,61.410000Z" opacity="0.500000" fill="url(&quot;#edas7iltcgb49-fill&quot;)" stroke="none" stroke-width="1"></path><polygon id="edas7iltcgb50" points="193.680000,79.470000 191.300000,75.470000 161.880000,75.410000 160.590000,82.630000 193.680000,79.470000" fill="#000d28" stroke="none" stroke-width="1"></polygon><g id="edas7iltcgb51"><circle id="edas7iltcgb52" r="0.500000" transform="matrix(1 0 0 1 186.02000000000001 77.06000000000000)" fill="#2a65a3" stroke="none" stroke-width="1"></circle><circle id="edas7iltcgb53" r="0.500000" transform="matrix(1 0 0 1 188.24000000000001 77.06000000000000)" fill="#2a65a3" stroke="none" stroke-width="1"></circle><circle id="edas7iltcgb54" r="0.500000" transform="matrix(1 0 0 1 190.47000000000000 77.06000000000000)" fill="#2a65a3" stroke="none" stroke-width="1"></circle></g></g><g id="edas7iltcgb55" transform="matrix(0 1 -1 0 274.24000000000001 -127.50000000000000)"><g id="edas7iltcgb56"><g id="edas7iltcgb57" transform="matrix(0 0 0 0 203.91000000000000 85.22297591000000)" opacity="0"><line id="edas7iltcgb58" x1="203.910000" y1="85.330000" x2="203.910000" y2="105.380000" fill="none" stroke="url(&quot;#edas7iltcgb58-stroke&quot;)" stroke-width="1.03481px" stroke-miterlimit="10"></line><circle id="edas7iltcgb59" r="8.870000" transform="matrix(1 0 0 1 203.90999999999997 85.29000000000008)" fill="url(&quot;#edas7iltcgb59-fill&quot;)" stroke="none" stroke-width="1"></circle></g><path id="edas7iltcgb60" d="M193.410000,73.330000C193.410000,69.232047,196.732047,65.910000,200.830000,65.910000C204.927953,65.910000,208.250000,69.232047,208.250000,73.330000C208.250000,77.427953,208.310000,79.910000,208.310000,82.100000C208.310000,83.860000,206.310000,85.290000,203.870000,85.290000C201.430000,85.290000,199.430000,83.860000,199.430000,82.100000L199.430000,80.960000C199.422795,80.796554,199.321333,80.652167,199.170000,80.590000L199.170000,80.590000C195.788986,79.813956,193.396882,76.798908,193.410000,73.330000Z" fill="url(&quot;#edas7iltcgb60-fill&quot;)" stroke="none" stroke-width="1"></path><circle id="edas7iltcgb61" r="3.450000" transform="matrix(1 0 0 1 200.87000000000000 73.37000000000000)" fill="url(&quot;#edas7iltcgb61-fill&quot;)" stroke="none" stroke-width="1"></circle><circle id="edas7iltcgb62" r="2.620000" transform="matrix(1 0 0 1 200.87000000000000 73.37000000000000)" fill="#000d28" stroke="none" stroke-width="1"></circle><circle id="edas7iltcgb63" r="1.890000" transform="matrix(1 0 0 1 200.87000000000000 73.37000000000000)" fill="none" stroke="#2a65a3" stroke-width="0.533613px" stroke-miterlimit="10"></circle></g></g></g><path id="edas7iltcgb64" d="M164.750000,59.370000C164.966734,60.257971,171.563737,81.608999,160.589630,82.629987C154.455977,83.121946,146.351589,82.884096,141.130000,82.630000L141.130000,59.370000L164.750000,59.370000Z" fill="#000d28" stroke="none" stroke-width="1"></path></g></g><g id="edas7iltcgb65"><g id="edas7iltcgb66" transform="matrix(0.99942067805762 -0.03403392823134 0.03403392823134 0.99942067805762 -12.23235893336607 5.46760263500873)"><g id="edas7iltcgb67" transform="matrix(0 1 -1 0 224.12000000000000 -105.38000000000000)"><g id="edas7iltcgb68" transform="matrix(0.01928864403076 0.99981395679969 -0.99981395679969 0.01928864403076 261.65476915863445 -112.63136213698405)"><g id="edas7iltcgb69" transform="matrix(0 0 0 0 188.24004865999999 85.36297774000008)" opacity="0"><line id="edas7iltcgb70" x1="203.910000" y1="85.330000" x2="203.910000" y2="105.380000" fill="none" stroke="url(&quot;#edas7iltcgb70-stroke&quot;)" stroke-width="1.03481px" stroke-miterlimit="10"></line><circle id="edas7iltcgb71" r="8.870000" transform="matrix(1 0 0 1 203.90999999999997 85.29000000000008)" fill="url(&quot;#edas7iltcgb71-fill&quot;)" stroke="none" stroke-width="1"></circle></g><path id="edas7iltcgb72" d="M188.240000,69.400000C184.100000,69.400000,184.240000,82.510000,184.240000,82.510000C184.240000,84.050000,186.100000,85.310000,188.240000,85.330000C190.380000,85.350000,192.240000,84.050000,192.240000,82.510000C192.240000,82.510000,192.390000,69.360000,188.240000,69.400000Z" fill="url(&quot;#edas7iltcgb72-fill&quot;)" stroke="none" stroke-width="1"></path></g><g id="edas7iltcgb73"><polygon id="edas7iltcgb74" points="164.750000,59.370000 202.170000,66.060000 200.700000,78.780000 160.590000,82.630000 164.750000,59.370000" fill="#171f41" stroke="none" stroke-width="1"></polygon><path id="edas7iltcgb75" d="M164,63.630000L193.130000,68.790000C193.493241,68.081039,193.969469,67.435936,194.540000,66.880000L164.400000,61.410000Z" opacity="0.500000" fill="url(&quot;#edas7iltcgb75-fill&quot;)" stroke="none" stroke-width="1"></path><polygon id="edas7iltcgb76" points="193.680000,79.470000 191.300000,75.470000 161.880000,75.410000 160.590000,82.630000 193.680000,79.470000" fill="#000d28" stroke="none" stroke-width="1"></polygon><g id="edas7iltcgb77"><circle id="edas7iltcgb78" r="0.500000" transform="matrix(1 0 0 1 186.02000000000001 77.06000000000000)" fill="#2a65a3" stroke="none" stroke-width="1"></circle><circle id="edas7iltcgb79" r="0.500000" transform="matrix(1 0 0 1 188.24000000000001 77.06000000000000)" fill="#2a65a3" stroke="none" stroke-width="1"></circle><circle id="edas7iltcgb80" r="0.500000" transform="matrix(1 0 0 1 190.47000000000000 77.06000000000000)" fill="#2a65a3" stroke="none" stroke-width="1"></circle></g></g><g id="edas7iltcgb81" transform="matrix(0 1 -1 0 274.24000000000001 -127.50000000000000)"><g id="edas7iltcgb82"><g id="edas7iltcgb83" transform="matrix(0 0 0 0 203.91000000000000 85.22297591000000)" opacity="0"><line id="edas7iltcgb84" x1="203.910000" y1="85.330000" x2="203.910000" y2="105.380000" fill="none" stroke="url(&quot;#edas7iltcgb84-stroke&quot;)" stroke-width="1.03481px" stroke-miterlimit="10"></line><circle id="edas7iltcgb85" r="8.870000" transform="matrix(1 0 0 1 203.90999999999997 85.29000000000008)" fill="url(&quot;#edas7iltcgb85-fill&quot;)" stroke="none" stroke-width="1"></circle></g><path id="edas7iltcgb86" d="M193.410000,73.330000C193.410000,69.232047,196.732047,65.910000,200.830000,65.910000C204.927953,65.910000,208.250000,69.232047,208.250000,73.330000C208.250000,77.427953,208.310000,79.910000,208.310000,82.100000C208.310000,83.860000,206.310000,85.290000,203.870000,85.290000C201.430000,85.290000,199.430000,83.860000,199.430000,82.100000L199.430000,80.960000C199.422795,80.796554,199.321333,80.652167,199.170000,80.590000L199.170000,80.590000C195.788986,79.813956,193.396882,76.798908,193.410000,73.330000Z" fill="url(&quot;#edas7iltcgb86-fill&quot;)" stroke="none" stroke-width="1"></path><circle id="edas7iltcgb87" r="3.450000" transform="matrix(1 0 0 1 200.87000000000000 73.37000000000000)" fill="url(&quot;#edas7iltcgb87-fill&quot;)" stroke="none" stroke-width="1"></circle><circle id="edas7iltcgb88" r="2.620000" transform="matrix(1 0 0 1 200.87000000000000 73.37000000000000)" fill="#000d28" stroke="none" stroke-width="1"></circle><circle id="edas7iltcgb89" r="1.890000" transform="matrix(1 0 0 1 200.87000000000000 73.37000000000000)" fill="none" stroke="#2a65a3" stroke-width="0.533613px" stroke-miterlimit="10"></circle></g></g></g><path id="edas7iltcgb90" d="M164.750000,59.370000C164.966734,60.257971,171.563737,81.608999,160.589630,82.629987C154.455977,83.121946,146.351589,82.884096,141.130000,82.630000L141.130000,59.370000L164.750000,59.370000Z" fill="#000d28" stroke="none" stroke-width="1"></path></g></g><g id="edas7iltcgb91" transform="matrix(1 0 0 1 0.00516891500001 0)"><g id="edas7iltcgb92"><path id="edas7iltcgb93" d="M 147.42 84.93 C 150.85999999999999 88.08000000000001 154.98 96.21000000000001 154.51 111.07000000000001" fill="none" stroke="#3e4c68" stroke-width="4.93693px" stroke-linecap="round" stroke-linejoin="round"></path><path id="edas7iltcgb94" d="M156.850000,92.080000C157.490000,94.790000,157.420000,95.220000,155.380000,97.150000C152.630000,99.750000,150.830000,100.310000,150.580000,99.250000C150.380000,98.400000,150.280000,97.870000,151.110000,97.250000C153.880000,95,156.220000,89.440000,156.850000,92.080000Z" fill="url(&quot;#edas7iltcgb94-fill&quot;)" stroke="none" stroke-width="1"></path></g><g id="edas7iltcgb95" transform="matrix(-1 0 0 1 279.98964257000000 0)"><path id="edas7iltcgb96" d="M 147.42 84.93 C 150.85999999999999 88.08000000000001 154.98 96.21000000000001 154.51 111.07000000000001" fill="none" stroke="#3e4c68" stroke-width="4.93693px" stroke-linecap="round" stroke-linejoin="round"></path><path id="edas7iltcgb97" d="M156.850000,92.080000C157.490000,94.790000,157.420000,95.220000,155.380000,97.150000C152.630000,99.750000,150.830000,100.310000,150.580000,99.250000C150.380000,98.400000,150.280000,97.870000,151.110000,97.250000C153.880000,95,156.220000,89.440000,156.850000,92.080000Z" fill="url(&quot;#edas7iltcgb97-fill&quot;)" stroke="none" stroke-width="1"></path></g></g><path id="edas7iltcgb98" d="M119.150000,74.070000C120.840000,72.070000,120.610000,68.860000,121.450000,62.950000C133.737890,60.079232,146.522110,60.079232,158.810000,62.950000C159.640000,68.860000,159.410000,72.030000,161.110000,74.070000C150.770000,80.070000,128.060000,80.070000,119.150000,74.070000Z" transform="matrix(1 0 0 1 -0.13000000000000 0)" fill="#404c69" stroke="none" stroke-width="1"></path><g id="edas7iltcgb99" transform="matrix(-1 0 0 1 279.98964257000000 0)"><g id="edas7iltcgb100" transform="matrix(1 0 0 1 0 0)"><path id="edas7iltcgb101" d="M 113.32 74.86 C 115.19 70.76 118.77999999999999 66.97 125.58 67.52" fill="none" stroke="#3e4c68" stroke-width="4.93693px" stroke-linecap="round" stroke-linejoin="round"></path><g id="edas7iltcgb102"><path id="edas7iltcgb103" d="M122.150000,64.860000C121.455856,64.035513,120.458367,63.526033,119.383489,63.446971C118.308611,63.367908,117.247311,63.725953,116.440000,64.440000C114.220000,66.070000,110.950000,68.440000,110.950000,68.440000C111.336734,69.156856,111.914862,69.752292,112.620000,70.160000C113.360000,70.250000,115.690000,67.090000,116.390000,67.830000C117.520000,69.010000,117.390000,68.690000,120.910000,67.830000C122.320000,67.530000,122.140000,66.550000,122.150000,64.860000Z" fill="#9eb7d3" stroke="none" stroke-width="1"></path><path id="edas7iltcgb104" d="M112.400000,69.400000C111.986297,69.175030,111.625014,68.864872,111.340000,68.490000L115.230000,64.120000C116.558873,62.864666,118.285543,62.114556,120.110000,62C120.384341,62.129223,120.619122,62.329477,120.790000,62.580000C121.270243,63.203818,121.611231,63.923304,121.790000,64.690000C120.135423,65.546882,118.340145,66.099014,116.490000,66.320000C115.210000,66.520000,113.920000,67.860000,113.070000,68.740000C112.840000,69,112.530000,69.300000,112.400000,69.400000Z" fill="url(&quot;#edas7iltcgb104-fill&quot;)" stroke="url(&quot;#edas7iltcgb104-stroke&quot;)" stroke-width="0.654877px" stroke-miterlimit="10"></path></g></g></g><g id="edas7iltcgb105"><g id="edas7iltcgb106" transform="matrix(1 0 0 1 0 0)"><path id="edas7iltcgb107" d="M113.320000,74.860000C115.190000,70.760000,118.780000,66.970000,125.580000,67.520000" fill="none" stroke="#3e4c68" stroke-width="4.93693px" stroke-linecap="round" stroke-linejoin="round"></path><g id="edas7iltcgb108"><path id="edas7iltcgb109" d="M122.150000,64.860000C121.455856,64.035513,120.458367,63.526033,119.383489,63.446971C118.308611,63.367908,117.247311,63.725953,116.440000,64.440000C114.220000,66.070000,110.950000,68.440000,110.950000,68.440000C111.336734,69.156856,111.914862,69.752292,112.620000,70.160000C113.360000,70.250000,115.690000,67.090000,116.390000,67.830000C117.520000,69.010000,117.390000,68.690000,120.910000,67.830000C122.320000,67.530000,122.140000,66.550000,122.150000,64.860000Z" fill="#9eb7d3" stroke="none" stroke-width="1"></path><path id="edas7iltcgb110" d="M112.400000,69.400000C111.986297,69.175030,111.625014,68.864872,111.340000,68.490000L115.230000,64.120000C116.558873,62.864666,118.285543,62.114556,120.110000,62C120.384341,62.129223,120.619122,62.329477,120.790000,62.580000C121.270243,63.203818,121.611231,63.923304,121.790000,64.690000C120.135423,65.546882,118.340145,66.099014,116.490000,66.320000C115.210000,66.520000,113.920000,67.860000,113.070000,68.740000C112.840000,69,112.530000,69.300000,112.400000,69.400000Z" fill="url(&quot;#edas7iltcgb110-fill&quot;)" stroke="url(&quot;#edas7iltcgb110-stroke&quot;)" stroke-width="0.654877px" stroke-miterlimit="10"></path></g></g></g><path id="edas7iltcgb111" d="M140.380000,103.340000C140.303714,103.350805,140.226286,103.350805,140.150000,103.340000L139.880000,103.340000C137.733870,103.278513,135.606765,102.918386,133.560000,102.270000C129.640000,101.090000,119.470000,85.270000,119.470000,81.510000L119.470000,74.510000C119.679757,74.524273,119.890243,74.524273,120.100000,74.510000C120.521749,74.537898,120.943216,74.451532,121.320000,74.260000C121.530000,74.080000,121.560000,73.750000,121.600000,72.830000C121.600000,71.690000,121.710000,69.970000,122.400000,69.130000C123.714105,67.624159,124.731947,65.883649,125.400000,64C125.444552,63.911983,125.444552,63.808017,125.400000,63.720000C124.568043,62.968722,123.515964,62.505807,122.400000,62.400000C122.858470,61.941184,123.372447,61.541424,123.930000,61.210000C127.320000,59.330000,134.050000,59.050000,137.760000,59.050000C139.190000,59.050000,140.130000,59.050000,140.140000,59.050000C140.150000,59.050000,141.140000,59.050000,142.560000,59.050000C146.270000,59.050000,153,59.330000,156.390000,61.210000C156.945848,61.543917,157.459534,61.943450,157.920000,62.400000C156.802935,62.501559,155.749568,62.965040,154.920000,63.720000C154.875448,63.808017,154.875448,63.911983,154.920000,64C155.599305,65.889286,156.634676,67.630745,157.970000,69.130000C158.660000,69.970000,158.730000,71.690000,158.770000,72.830000C158.770000,73.750000,158.830000,74.080000,159.050000,74.260000C159.426283,74.452963,159.848149,74.539411,160.270000,74.510000C160.476410,74.524579,160.683590,74.524579,160.890000,74.510000L160.890000,81.510000C160.890000,85.230000,150.730000,101.090000,146.810000,102.270000C144.727953,102.928537,142.563109,103.288783,140.380000,103.340000Z" transform="matrix(1 0 0 1 -0.18000000000001 0)" fill="url(&quot;#edas7iltcgb111-fill&quot;)" stroke="url(&quot;#edas7iltcgb111-stroke&quot;)" stroke-width="0.654877px" stroke-miterlimit="10"></path><g id="edas7iltcgb112" transform="matrix(1 0 0 1 -0.13000106999999 0)"><path id="edas7iltcgb113" d="M152.430000,78.550000L127.820000,78.550000C123.650000,78.660000,120.060000,78.260000,119.150000,77.830000L119.150000,78.190000C120.060000,78.620000,123.660000,79.130000,127.700000,79.020000C128.625091,79.133045,129.426478,79.715185,129.820000,80.560000C130.420000,81.560000,132.140000,85.390000,134.190000,86.080000C138.108250,86.893219,142.151750,86.893219,146.070000,86.080000C148.070000,85.390000,149.840000,81.600000,150.440000,80.560000C150.828192,79.707438,151.630559,79.117017,152.560000,79C156.560000,79.110000,160.200000,78.600000,161.110000,78.170000L161.110000,77.810000C160.200000,78.260000,156.610000,78.660000,152.430000,78.550000Z" opacity="0.5" fill="url(&quot;#edas7iltcgb113-fill&quot;)" stroke="none" stroke-width="1"></path><path id="edas7iltcgb114" d="M153.480000,77.930000C150.570000,77.600000,149.040000,73.060000,146.660000,71.770000C145.850000,71.320000,142.990000,71.160000,140.130000,71.180000C137.270000,71.200000,134.410000,71.320000,133.590000,71.770000C131.210000,73.060000,129.690000,77.600000,126.780000,77.930000C124.222290,78.181795,121.640261,77.985520,119.150000,77.350000L119.150000,77.830000C120.060000,78.260000,123.460000,78.660000,127.570000,78.550000C128.547497,78.515403,129.480486,78.959506,130.070000,79.740000C130.780000,80.610000,132.520000,84.130000,134.470000,84.740000C136.332306,85.113864,138.231535,85.271574,140.130000,85.210000C142.028451,85.271040,143.927619,85.113335,145.790000,84.740000C147.730000,84.110000,149.480000,80.590000,150.180000,79.740000C150.771565,78.956545,151.709024,78.512092,152.690000,78.550000C156.800000,78.660000,160.200000,78.260000,161.110000,77.830000L161.110000,77.350000C158.619739,77.985520,156.037710,78.181795,153.480000,77.930000Z" fill="url(&quot;#edas7iltcgb114-fill&quot;)" stroke="none" stroke-width="1"></path><g id="edas7iltcgb115" transform="matrix(0 0 0 0 140.12561134999999 77.47000000000000)" opacity="1"><g id="edas7iltcgb116"><polygon id="edas7iltcgb117" points="141.130000,72.410000 138.070000,77.700000 144.180000,77.700000 141.130000,72.410000" opacity="0.600000" fill="#5af3ff" stroke="none" stroke-width="1" transform="matrix(1 0 0 1 0 0)"></polygon><polygon id="edas7iltcgb118" points="144.180000,77.700000 141.130000,82.990000 147.230000,82.990000 144.180000,77.700000" opacity="0.600000" fill="#5af3ff" stroke="none" stroke-width="1" transform="matrix(1 0 0 1 0 0)"></polygon><polygon id="edas7iltcgb119" points="138.070000,77.700000 135.020000,82.990000 141.130000,82.990000 138.070000,77.700000" opacity="0.600000" fill="#5af3ff" stroke="none" stroke-width="1" transform="matrix(1 0 0 1 0 0)"></polygon><circle id="edas7iltcgb120" r="0.920000" transform="matrix(1 0 0 1 141.12000000000000 79.47000000000000)" fill="#5af3ff" stroke="none" stroke-width="1"></circle></g></g><g id="edas7iltcgb121" transform="matrix(1 0 0 1 -0.27436446999999 0)"><line id="edas7iltcgb122" x1="147.810471" y1="81.168262" x2="147.810471" y2="79.728262" transform="matrix(1 0 0 1 -2.39450199999999 -2.70316000000000)" opacity="0" fill="none" stroke="#5af3ff" stroke-width="1.2px" stroke-linecap="round" stroke-miterlimit="10"></line><line id="edas7iltcgb123" x1="147.810471" y1="81.168262" x2="147.810471" y2="79.728262" transform="matrix(1 0 0 1 -4.39450199999999 -2.70316000000000)" opacity="0" fill="none" stroke="#5af3ff" stroke-width="1.2px" stroke-linecap="round" stroke-miterlimit="10"></line><line id="edas7iltcgb124" x1="147.810471" y1="81.168262" x2="147.810471" y2="79.728262" transform="matrix(1 0 0 1 -6.39450199999999 -2.70316000000000)" opacity="0" fill="none" stroke="#5af3ff" stroke-width="1.2px" stroke-linecap="round" stroke-miterlimit="10"></line><line id="edas7iltcgb125" x1="147.810471" y1="81.168262" x2="147.810471" y2="79.728262" transform="matrix(1 0 0 1 -8.39450199999999 -2.70316000000000)" opacity="0" fill="none" stroke="#5af3ff" stroke-width="1.2px" stroke-linecap="round" stroke-miterlimit="10"></line><line id="edas7iltcgb126" x1="147.810471" y1="81.168262" x2="147.810471" y2="79.728262" transform="matrix(1 0 0 1 -10.39450199999999 -2.70316000000000)" opacity="0" fill="none" stroke="#5af3ff" stroke-width="1.2px" stroke-linecap="round" stroke-miterlimit="10"></line><line id="edas7iltcgb127" x1="147.810471" y1="81.168262" x2="147.810471" y2="79.728262" transform="matrix(1 0 0 1 -12.39450199999999 -2.70316000000000)" opacity="0" fill="none" stroke="#5af3ff" stroke-width="1.2px" stroke-linecap="round" stroke-miterlimit="10"></line><rect id="edas7iltcgb128" width="13.755539" height="5.386494" rx="2" ry="2" transform="matrix(1 0 0 1 133.52659860000000 75.09406000000001)" fill="none" stroke="url(&quot;#edas7iltcgb128-stroke&quot;)" stroke-width="1"></rect></g><g id="edas7iltcgb129" transform="matrix(1 0 0 1 -0.45931625000000 0.18999862500000)" opacity="0.330000"><line id="edas7iltcgb130" x1="132.599818" y1="76.761484" x2="132.589311" y2="80.140000" transform="matrix(1 0 0 1 -0.00525323500000 -0.64074224499998)" fill="none" stroke="url(&quot;#edas7iltcgb130-stroke&quot;)" stroke-width="0.982315px" stroke-miterlimit="10"></line><line id="edas7iltcgb131" x1="132.599818" y1="76.761484" x2="132.589311" y2="80.140000" transform="matrix(1 0 0 1.26666666666667 1.99474676500000 -21.56094017699999)" fill="none" stroke="url(&quot;#edas7iltcgb131-stroke&quot;)" stroke-width="0.982315px" stroke-miterlimit="10"></line><line id="edas7iltcgb132" x1="132.599818" y1="76.761484" x2="132.589311" y2="80.140000" transform="matrix(1 0 0 1.93333333333333 3.99474676500000 -73.86143500699998)" fill="none" stroke="url(&quot;#edas7iltcgb132-stroke&quot;)" stroke-width="0.982315px" stroke-miterlimit="10"></line><line id="edas7iltcgb133" x1="132.599818" y1="76.761484" x2="132.589311" y2="80.140000" transform="matrix(1 0 0 2.33333333333333 5.99474676500000 -105.24173190499997)" fill="none" stroke="url(&quot;#edas7iltcgb133-stroke&quot;)" stroke-width="0.982315px" stroke-miterlimit="10"></line><line id="edas7iltcgb134" x1="132.599818" y1="76.761484" x2="132.589311" y2="80.140000" transform="matrix(1 0 0 2.60000000000000 7.99474676500000 -126.16192983699997)" fill="none" stroke="url(&quot;#edas7iltcgb134-stroke&quot;)" stroke-width="0.982315px" stroke-miterlimit="10"></line><line id="edas7iltcgb135" x1="132.599818" y1="76.761484" x2="132.589311" y2="80.140000" transform="matrix(1 0 0 2.33333333333333 9.99474676500000 -105.24173190499997)" fill="none" stroke="url(&quot;#edas7iltcgb135-stroke&quot;)" stroke-width="0.982315px" stroke-miterlimit="10"></line><line id="edas7iltcgb136" x1="132.599818" y1="76.761484" x2="132.589311" y2="80.140000" transform="matrix(1 0 0 1.93333333333333 11.99474676500000 -73.86143500699998)" fill="none" stroke="url(&quot;#edas7iltcgb136-stroke&quot;)" stroke-width="0.982315px" stroke-miterlimit="10"></line><line id="edas7iltcgb137" x1="132.599818" y1="76.761484" x2="132.589311" y2="80.140000" transform="matrix(1 0 0 1.26666666666667 13.99474676500000 -21.56094017699999)" fill="none" stroke="url(&quot;#edas7iltcgb137-stroke&quot;)" stroke-width="0.982315px" stroke-miterlimit="10"></line><line id="edas7iltcgb138" x1="132.599818" y1="76.761484" x2="132.589311" y2="80.140000" transform="matrix(1 0 0 1 15.99474676500000 -0.64074224499998)" fill="none" stroke="url(&quot;#edas7iltcgb138-stroke&quot;)" stroke-width="0.982315px" stroke-miterlimit="10"></line></g></g><g id="edas7iltcgb139" transform="matrix(-1 0 0 1 279.98964257000000 0)"><path id="edas7iltcgb140" d="M 111.4 83.53 C 111.47072795248457 80.54271699060955 112.12288065720944 77.59783993333637 113.32000000000001 74.86" fill="none" stroke="#3e4c68" stroke-width="4.93693px" stroke-linecap="round" stroke-linejoin="round" transform="matrix(1 0 0 1 0 0)"></path><g id="edas7iltcgb141" transform="matrix(1 0 0 1 0 0)"><g id="edas7iltcgb142" transform="matrix(1 0 0 1 0 0)"><path id="edas7iltcgb143" d="M-13.660000,0C-13.660000,-7.544210,-7.544210,-13.660000,0,-13.660000C7.544210,-13.660000,13.660000,-7.544210,13.660000,0C13.660000,7.544210,7.544210,13.660000,0,13.660000C-7.544210,13.660000,-13.660000,7.544210,-13.660000,0Z" transform="matrix(0.85003476896458 -0.06891956547720 0.07322824828257 0.90317686537288 111.36870840511514 91.21900423881154)" opacity="0" fill="url(&quot;#edas7iltcgb143-fill&quot;)" stroke="none" stroke-width="1"></path><g id="edas7iltcgb144"><path id="edas7iltcgb145" d="M110.430000,74.420000C113.080000,74.820000,112.880000,77.420000,113.690000,77.310000C114.500000,77.200000,115.290000,76.310000,115.480000,76.930000C115.468798,78.055931,115.220042,79.166815,114.750000,80.190000C114.480284,80.491512,114.087202,80.652697,113.683452,80.627340C113.279703,80.601984,112.909875,80.392888,112.680000,80.060000C112.030000,79.180000,111.680000,78.570000,110.680000,78.500000C109.680000,78.430000,109.360000,79.610000,108.780000,79.420000C108.200000,79.230000,109.110000,74.220000,110.430000,74.420000Z" fill="url(&quot;#edas7iltcgb145-fill&quot;)" stroke="none" stroke-width="1"></path><path id="edas7iltcgb146" d="M110.690000,79.440000C110.240000,79.440000,109.830000,79.990000,109.760000,80.740000C109.690000,81.490000,110.010000,82.130000,110.450000,82.160000C110.890000,82.190000,111.320000,81.610000,111.380000,80.860000C111.440000,80.110000,111.140000,79.470000,110.690000,79.440000ZM110.510000,81.530000C110.270000,81.530000,110.100000,81.170000,110.140000,80.770000C110.180000,80.370000,110.400000,80.050000,110.640000,80.070000C110.880000,80.090000,111.040000,80.430000,111.010000,80.830000C110.980000,81.230000,110.750000,81.550000,110.510000,81.530000Z" fill="#5af3ff" stroke="none" stroke-width="1"></path></g><g id="edas7iltcgb147" transform="matrix(1 0 0 1 0 0)"><g id="edas7iltcgb148"><path id="edas7iltcgb149" d="M105.660000,94.760000C105.890000,89.200000,107.460000,86.760000,107.460000,86.760000" fill="none" stroke="#3e4c68" stroke-width="3.27438px" stroke-linecap="round" stroke-linejoin="round"></path><g id="edas7iltcgb150"><path id="edas7iltcgb151" d="M107.180000,95.920000C106.798236,96.816553,105.802762,97.281969,104.870000,97C103.940000,96.770000,103.600000,96.140000,103.630000,93.920000C104.561508,94.958530,105.809097,95.661397,107.180000,95.920000ZM103.690000,93.210000C104.586297,94.387713,105.886242,95.192611,107.340000,95.470000C108.200000,92.700000,106.940000,91.470000,106.940000,91.470000C106.090000,90.670000,104.760000,90.470000,104.150000,89.470000C103.777662,90.679860,103.621937,91.945973,103.690000,93.210000Z" fill="url(&quot;#edas7iltcgb151-fill&quot;)" stroke="none" stroke-width="1"></path></g></g><g id="edas7iltcgb152"><path id="edas7iltcgb153" d="M108.840000,87.100000C107.480000,90.500000,107.240000,93.900000,106.840000,97.550000" fill="none" stroke="#3e4c68" stroke-width="3.27438px" stroke-linecap="round" stroke-linejoin="round"></path><g id="edas7iltcgb154"><path id="edas7iltcgb155" d="M108.730000,97.680000C107.314261,97.700215,105.933108,97.242180,104.810000,96.380000C104.610000,93.170000,105.750000,92.020000,105.750000,92.020000C106.489658,92.700540,107.422837,93.133927,108.420000,93.260000C108.600000,93.260000,108.990000,93.350000,109.130000,93.650000C109.420000,94.250000,109.300000,95.080000,108.730000,97.680000ZM104.870000,97C104.960000,99.200000,105.140000,99.680000,106.510000,99.870000C108.070000,99.960000,108.260000,99.260000,108.600000,98.130000C107.271983,98.132479,105.973367,97.739064,104.870000,97Z" fill="url(&quot;#edas7iltcgb155-fill&quot;)" stroke="none" stroke-width="1"></path></g></g><g id="edas7iltcgb156" transform="matrix(1 0 0 1 0 0)"><path id="edas7iltcgb157" d="M110.710000,98.810000C110.851737,95.223249,111.347478,91.659274,112.190000,88.170000" fill="none" stroke="#3e4c68" stroke-width="3.27438px" stroke-linecap="round" stroke-linejoin="round"></path><g id="edas7iltcgb158"><path id="edas7iltcgb159" d="M108.680000,98.460000C108.240000,95.050000,109.180000,93.870000,109.180000,93.870000C110.354050,94.168912,111.546682,94.389399,112.750000,94.530000C112.875091,94.544934,112.988950,94.609462,113.066034,94.709106C113.143117,94.808750,113.176971,94.935169,113.160000,95.060000C113.186405,96.286194,113.048513,97.510404,112.750000,98.700000C111.400130,99.031790,109.981521,98.948137,108.680000,98.460000ZM108.790000,99.040000C109.030000,100.800000,109.180000,101.450000,110.120000,101.490000C111.610000,101.540000,111.850000,101.410000,112.570000,99.250000C111.309681,99.496518,110.006875,99.410354,108.790000,99Z" fill="url(&quot;#edas7iltcgb159-fill&quot;)" stroke="none" stroke-width="1"></path></g></g><g id="edas7iltcgb160"><path id="edas7iltcgb161" d="M118,92.690000C116.070000,88.950000,114.510000,86.230000,114.510000,86.230000" fill="none" stroke="#3e4c68" stroke-width="3.27438px" stroke-linecap="round" stroke-linejoin="round"></path><g id="edas7iltcgb162"><path id="edas7iltcgb163" d="M115.880000,93.230000C115.030000,91.950000,114.480000,90.600000,115.200000,90.480000C116.146878,90.045712,117.039628,89.502008,117.860000,88.860000C118.860000,88.650000,119.350000,90.170000,119.630000,91.160000C118.648296,92.252007,117.327187,92.981259,115.880000,93.230000ZM116.240000,93.670000C117.620000,95.230000,118.460000,95.250000,119.910000,94.470000L119.910000,94.470000C120.350000,94.090000,120.530000,93.750000,119.810000,91.720000C118.835306,92.703811,117.594515,93.381554,116.240000,93.670000Z" fill="url(&quot;#edas7iltcgb163-fill&quot;)" stroke="none" stroke-width="1"></path></g></g><path id="edas7iltcgb164" d="M110.130000,83C108.800000,82.560000,109.860000,80.120000,108.580000,80.100000C107.140000,80.100000,102.680000,86.860000,104.790000,88.680000C107.490000,90.990000,108.790000,92.410000,110.790000,93.040000C112.790000,93.670000,114.210000,90.710000,114.610000,88.720000C115.240000,85.630000,116.990000,87.190000,117.390000,85.440000C117.610000,84.520000,115.670000,81.900000,114.790000,81.590000C112.630000,80.780000,111.910000,83.570000,110.130000,83Z" fill="url(&quot;#edas7iltcgb164-fill&quot;)" stroke="none" stroke-width="1"></path></g></g></g></g><g id="edas7iltcgb165"><g id="edas7iltcgb166" transform="matrix(1 0 0 1 0 0)"><g id="edas7iltcgb167"><g id="edas7iltcgb168"><path id="edas7iltcgb169" d="M111.400000,83.530000C111.470728,80.542717,112.122881,77.597840,113.320000,74.860000" fill="none" stroke="#3e4c68" stroke-width="4.93693px" stroke-linecap="round" stroke-linejoin="round"></path><path id="edas7iltcgb170" d="M110.430000,74.420000C113.080000,74.820000,112.880000,77.420000,113.690000,77.310000C114.500000,77.200000,115.290000,76.310000,115.480000,76.930000C115.468798,78.055931,115.220042,79.166815,114.750000,80.190000C114.480284,80.491512,114.087202,80.652697,113.683452,80.627340C113.279703,80.601984,112.909875,80.392888,112.680000,80.060000C112.030000,79.180000,111.680000,78.570000,110.680000,78.500000C109.680000,78.430000,109.360000,79.610000,108.780000,79.420000C108.200000,79.230000,109.110000,74.220000,110.430000,74.420000Z" fill="url(&quot;#edas7iltcgb170-fill&quot;)" stroke="none" stroke-width="1"></path><path id="edas7iltcgb171" d="M110.690000,79.440000C110.240000,79.440000,109.830000,79.990000,109.760000,80.740000C109.690000,81.490000,110.010000,82.130000,110.450000,82.160000C110.890000,82.190000,111.320000,81.610000,111.380000,80.860000C111.440000,80.110000,111.140000,79.470000,110.690000,79.440000ZM110.510000,81.530000C110.270000,81.530000,110.100000,81.170000,110.140000,80.770000C110.180000,80.370000,110.400000,80.050000,110.640000,80.070000C110.880000,80.090000,111.040000,80.430000,111.010000,80.830000C110.980000,81.230000,110.750000,81.550000,110.510000,81.530000Z" fill="#5af3ff" stroke="none" stroke-width="1"></path></g><g id="edas7iltcgb172" transform="matrix(1 0 0 1 0.06953584982654 0.01640229201321)"><g id="edas7iltcgb173"><path id="edas7iltcgb174" d="M105.660000,94.760000C105.890000,89.200000,107.460000,86.760000,107.460000,86.760000" fill="none" stroke="#3e4c68" stroke-width="3.27438px" stroke-linecap="round" stroke-linejoin="round"></path><g id="edas7iltcgb175"><path id="edas7iltcgb176" d="M107.180000,95.920000C106.798236,96.816553,105.802762,97.281969,104.870000,97C103.940000,96.770000,103.600000,96.140000,103.630000,93.920000C104.561508,94.958530,105.809097,95.661397,107.180000,95.920000ZM103.690000,93.210000C104.586297,94.387713,105.886242,95.192611,107.340000,95.470000C108.200000,92.700000,106.940000,91.470000,106.940000,91.470000C106.090000,90.670000,104.760000,90.470000,104.150000,89.470000C103.777662,90.679860,103.621937,91.945973,103.690000,93.210000Z" fill="url(&quot;#edas7iltcgb176-fill&quot;)" stroke="none" stroke-width="1"></path></g></g><g id="edas7iltcgb177"><path id="edas7iltcgb178" d="M108.840000,87.100000C107.480000,90.500000,107.240000,93.900000,106.840000,97.550000" fill="none" stroke="#3e4c68" stroke-width="3.27438px" stroke-linecap="round" stroke-linejoin="round"></path><g id="edas7iltcgb179"><path id="edas7iltcgb180" d="M108.730000,97.680000C107.314261,97.700215,105.933108,97.242180,104.810000,96.380000C104.610000,93.170000,105.750000,92.020000,105.750000,92.020000C106.489658,92.700540,107.422837,93.133927,108.420000,93.260000C108.600000,93.260000,108.990000,93.350000,109.130000,93.650000C109.420000,94.250000,109.300000,95.080000,108.730000,97.680000ZM104.870000,97C104.960000,99.200000,105.140000,99.680000,106.510000,99.870000C108.070000,99.960000,108.260000,99.260000,108.600000,98.130000C107.271983,98.132479,105.973367,97.739064,104.870000,97Z" fill="url(&quot;#edas7iltcgb180-fill&quot;)" stroke="none" stroke-width="1"></path></g></g><g id="edas7iltcgb181"><path id="edas7iltcgb182" d="M110.710000,98.810000C110.851737,95.223249,111.347478,91.659274,112.190000,88.170000" fill="none" stroke="#3e4c68" stroke-width="3.27438px" stroke-linecap="round" stroke-linejoin="round"></path><g id="edas7iltcgb183"><path id="edas7iltcgb184" d="M108.680000,98.460000C108.240000,95.050000,109.180000,93.870000,109.180000,93.870000C110.354050,94.168912,111.546682,94.389399,112.750000,94.530000C112.875091,94.544934,112.988950,94.609462,113.066034,94.709106C113.143117,94.808750,113.176971,94.935169,113.160000,95.060000C113.186405,96.286194,113.048513,97.510404,112.750000,98.700000C111.400130,99.031790,109.981521,98.948137,108.680000,98.460000ZM108.790000,99.040000C109.030000,100.800000,109.180000,101.450000,110.120000,101.490000C111.610000,101.540000,111.850000,101.410000,112.570000,99.250000C111.309681,99.496518,110.006875,99.410354,108.790000,99Z" fill="url(&quot;#edas7iltcgb184-fill&quot;)" stroke="none" stroke-width="1"></path></g></g><g id="edas7iltcgb185"><path id="edas7iltcgb186" d="M118,92.690000C116.070000,88.950000,114.510000,86.230000,114.510000,86.230000" fill="none" stroke="#3e4c68" stroke-width="3.27438px" stroke-linecap="round" stroke-linejoin="round"></path><g id="edas7iltcgb187"><path id="edas7iltcgb188" d="M115.880000,93.230000C115.030000,91.950000,114.480000,90.600000,115.200000,90.480000C116.146878,90.045712,117.039628,89.502008,117.860000,88.860000C118.860000,88.650000,119.350000,90.170000,119.630000,91.160000C118.648296,92.252007,117.327187,92.981259,115.880000,93.230000ZM116.240000,93.670000C117.620000,95.230000,118.460000,95.250000,119.910000,94.470000L119.910000,94.470000C120.350000,94.090000,120.530000,93.750000,119.810000,91.720000C118.835306,92.703811,117.594515,93.381554,116.240000,93.670000Z" fill="url(&quot;#edas7iltcgb188-fill&quot;)" stroke="none" stroke-width="1"></path></g></g><path id="edas7iltcgb189" d="M110.130000,83C108.800000,82.560000,109.860000,80.120000,108.580000,80.100000C107.140000,80.100000,102.680000,86.860000,104.790000,88.680000C107.490000,90.990000,108.790000,92.410000,110.790000,93.040000C112.790000,93.670000,114.210000,90.710000,114.610000,88.720000C115.240000,85.630000,116.990000,87.190000,117.390000,85.440000C117.610000,84.520000,115.670000,81.900000,114.790000,81.590000C112.630000,80.780000,111.910000,83.570000,110.130000,83Z" fill="url(&quot;#edas7iltcgb189-fill&quot;)" stroke="none" stroke-width="1"></path></g></g></g></g><g id="edas7iltcgb190"><circle id="edas7iltcgb191" r="18.990000" transform="matrix(1.39357431674421 0 0 0.54424334799671 140 62.33000000000000)" fill="url(&quot;#edas7iltcgb191-fill&quot;)" stroke="none" stroke-width="1"></circle><g id="edas7iltcgb192" transform="matrix(1 0 0 1 -1.38498687500001 0)"><path id="edas7iltcgb193" d="M141.390000,65.090000C132.740000,65.090000,120.310000,61.090000,113.440000,52.290000C110.970000,47.530000,109.510000,37.970000,109.850000,35.290000C110.770000,28.150000,118.550000,14.650000,141.390000,14.650000C164.230000,14.650000,172,28.170000,172.920000,35.310000C173.260000,37.970000,171.800000,47.530000,169.300000,52.310000C162.460000,61.090000,150,65.090000,141.390000,65.090000Z" fill="url(&quot;#edas7iltcgb193-fill&quot;)" stroke="#b4c7dc" stroke-width="0.652912px" stroke-miterlimit="10"></path><g id="edas7iltcgb194" transform="matrix(1 0 0 1 -0.00502777500000 0)"><path id="edas7iltcgb195" d="M 141.39 51 C 137.45 51 133.04999999999998 56.12 128.2 56.67 C 123.35 57.220000000000006 116.50999999999999 52.35 115.10999999999999 49.28 C 114.34185992072359 46.75729810199573 113.87527532577955 44.15248050720026 113.71999999999998 41.52 C 113.71999999999998 40.52 116.94999999999999 36.59 120.01999999999998 35.67 C 125.42999999999998 34.04 135.48999999999998 37.59 141.39 37.59 C 147.29 37.59 157.39 34.040000000000006 162.76 35.67 C 165.82 36.59 169.07 40.54 169.06 41.52 C 168.89687157135447 44.15233009537304 168.42702538482675 46.75662038641237 167.66 49.28 C 166.26 52.35 159.5 57.22 154.57999999999998 56.67 C 149.65999999999997 56.120000000000005 145.32 51 141.39 51 Z" fill="url(&quot;#edas7iltcgb195-fill&quot;)" stroke="none" stroke-width="1"></path><path id="edas7iltcgb196" d="M 141.39 49.31 C 136.97 49.31 133.23 54.22 128.48 54.72 C 123.35 55.25 116.69 50.82 115.6 48.36 C 114.87505159085558 46.193684916816416 114.44125321054591 43.94062356171972 114.30999999999999 41.66 C 114.30999999999999 40.589999999999996 117.61999999999999 37.15 120.23999999999998 36.25 C 123.94999999999997 34.96 135.80999999999997 38.53 141.39 38.53 C 146.97 38.53 158.82 34.96 162.52999999999997 36.25 C 165.14999999999998 37.15 168.45999999999998 40.59 168.45999999999998 41.66 C 168.32874678945404 43.94062356171978 167.89494840914438 46.193684916816494 167.17 48.36 C 166.07999999999998 50.82 159.42 55.25 154.29 54.72 C 149.54 54.22 145.8 49.31 141.39 49.31 Z" fill="url(&quot;#edas7iltcgb196-fill&quot;)" stroke="none" stroke-width="1"></path><path id="edas7iltcgb197" d="M 141.39 49 C 136.67 49 133.39 53.63 128.79 54.07 C 123.78999999999999 54.54 118.25 50.6 116.97999999999999 48.07 C 115.94551167740808 46.18926060965508 115.43442086183235 44.06547107195862 115.49999999999999 41.92 C 115.49999999999999 41.22 118.01999999999998 38.43 120.90999999999998 37.45 C 123.79999999999998 36.470000000000006 136.10999999999999 39.760000000000005 141.39 39.760000000000005 C 146.67 39.760000000000005 158.95999999999998 36.46000000000001 161.85999999999999 37.45 C 164.76 38.44 167.23999999999998 41.220000000000006 167.26999999999998 41.92 C 167.33329584564203 44.064008468075706 166.8260019968343 46.18636028451617 165.79999999999998 48.07 C 164.51999999999998 50.56 158.98999999999998 54.5 153.98 54.07 C 149.34 53.6 146.1 49 141.39 49 Z" fill="url(&quot;#edas7iltcgb197-fill&quot;)" stroke="none" stroke-width="1"></path><g id="edas7iltcgb198" transform="matrix(1 0 0 1 -1.53498840000000 -3.15000092000000)"><circle id="edas7iltcgb199" r="2.410000" transform="matrix(1 0 0 1 156.91000000000000 48.38000000000000)" fill="#5af3ff" stroke="none" stroke-width="1"></circle><circle id="edas7iltcgb200" r="2.410000" transform="matrix(1 0 0 1 128.94000000000000 48.38000000000000)" fill="#5af3ff" stroke="none" stroke-width="1"></circle></g></g><g id="edas7iltcgb201"><path id="edas7iltcgb202" d="M 129.39 16.14 C 131.11999999999998 19.92 130.91 25 131.39 25.8 C 131.86999999999998 26.6 136.6 28.98 141.39 28.98 C 146.17999999999998 28.98 150.79 26.72 151.39 25.8 C 151.98999999999998 24.880000000000003 151.67 19.92 153.39 16.14" fill="none" stroke="url(&quot;#edas7iltcgb202-stroke&quot;)" stroke-width="0.653023px" stroke-miterlimit="10"></path><path id="edas7iltcgb203" d="M 129.39 16.14 C 131.11999999999998 19.92 130.67 25.61 131.19 26.42 C 131.71 27.230000000000004 136.62 29.6 141.39 29.6 C 146.15999999999997 29.6 151 27.340000000000003 151.58999999999997 26.42 C 152.17999999999995 25.5 151.64999999999998 19.92 153.37999999999997 16.14" fill="none" stroke="url(&quot;#edas7iltcgb203-stroke&quot;)" stroke-width="0.653023px" stroke-miterlimit="10"></path><path id="edas7iltcgb204" d="M 117.53 22.21 C 118.63 23.830000000000002 120.24 25.310000000000002 120.78 25.42 C 122.10627918135579 25.3553873241153 123.18176673650585 24.32257784655056 123.3 23 C 122.6265534043186 21.834728451792056 121.85722781696676 20.727568584777018 121 19.69" fill="none" stroke="url(&quot;#edas7iltcgb204-stroke&quot;)" stroke-width="0.653023px" stroke-miterlimit="10"></path><path id="edas7iltcgb205" d="M 165.25 22.21 C 164.14 23.830000000000002 162.53 25.310000000000002 161.99 25.42 C 160.66389160765453 25.359131864867788 159.5892291980853 24.32300316719545 159.48 23 C 160.14514079359273 21.83186746242597 160.91140742520992 20.724294296201975 161.76999999999998 19.69" fill="none" stroke="url(&quot;#edas7iltcgb205-stroke&quot;)" stroke-width="0.653023px" stroke-miterlimit="10"></path><path id="edas7iltcgb206" d="M 161.77 19.69 C 160.60000000000002 21.21 159.18 23.18 159.19 23.76 C 159.19 24.830000000000002 161.12 26.21 162.07999999999998 26 C 162.64999999999998 25.88 164.14 23.83 165.24999999999997 22.21" fill="none" stroke="url(&quot;#edas7iltcgb206-stroke&quot;)" stroke-width="0.653023px" stroke-miterlimit="10"></path><path id="edas7iltcgb207" d="M 117.53 22.21 C 118.63 23.830000000000002 120.12 25.880000000000003 120.69 26 C 121.69 26.21 123.58 24.83 123.59 23.759999999999998 C 123.59 23.18 122.17 21.209999999999997 121 19.689999999999998" fill="none" stroke="url(&quot;#edas7iltcgb207-stroke&quot;)" stroke-width="0.653023px" stroke-miterlimit="10"></path></g></g><g id="edas7iltcgb208" transform="matrix(1 0 0 1 -1.35333573000000 0.00000015000000)"><path id="edas7iltcgb209" d="M 111.86372297 40.11999999999999 C 111.86372297 40.11999999999999 109.45 38.839999999999996 109.47 36.16 C 108.062875 36.379936 107.10762439 37.149663849999996 106.98762439 38.52999985 C 107.00558738999999 40.35796385000001 107.01333573 44.597376534999995 107.01333573 45.977376535 C 106.94874094428482 47.38723352579001 107.80116621482884 48.78401472611445 108.99372297 49.33 C 108.99372297 49.33 111.88372297 49.33 111.88372297 49.33 Z" fill="#161f40" stroke="none" stroke-width="1"></path><g id="edas7iltcgb210" transform="matrix(1 0 0 1 0 -2)"><g id="edas7iltcgb211"><rect id="edas7iltcgb212" width="2.880000" height="9.170000" rx="0" ry="0" transform="matrix(1 0 0 1 109 42.16000000000000)" fill="url(&quot;#edas7iltcgb212-fill&quot;)" stroke="none" stroke-width="1"></rect><path id="edas7iltcgb213" d="M112.120000,45.300000L112.120000,44.300000C111.820000,45.060000,111.120000,44.950000,110.720000,45.040000C110.477263,45.105004,110.311447,45.328856,110.320000,45.580000L110.320000,48.580000C110.311891,48.847887,110.505042,49.079668,110.770000,49.120000C112.930000,49.380000,113.310000,49.660000,114.310000,50.430000L114.310000,50.430000C112.900802,49.097258,112.107750,47.239559,112.120000,45.300000Z" fill="#5af3ff" stroke="#5af3ff" stroke-width="1.26896px" stroke-linecap="round" stroke-linejoin="round"></path></g><path id="edas7iltcgb214" d="M119.560000,36.830000L120.560000,36.830000C124.425993,36.830000,127.560000,39.964007,127.560000,43.830000L127.560000,51.740000C127.560000,55.605993,124.425993,58.740000,120.560000,58.740000L119.560000,58.740000C119.007715,58.740000,118.560000,58.292285,118.560000,57.740000L118.560000,37.830000C118.560000,37.277715,119.007715,36.830000,119.560000,36.830000Z" transform="matrix(0 1 -1 0 170.84999999999999 -75.29000000000001)" fill="#5af3ff" fill-opacity="0.4" stroke="#5af3ff" stroke-width="1.30975px" stroke-miterlimit="10"></path><path id="edas7iltcgb215" d="M114,45.120000L123.570000,45.120000M114,47.230000L119.700000,47.230000" transform="matrix(1 0 0 1 0 1)" opacity="0" fill="none" stroke="#5af3ff" stroke-width="0.654877px" stroke-linecap="round" stroke-miterlimit="10"></path></g></g></g></g><g id="edas7iltcgb216"><g id="edas7iltcgb217" transform="matrix(1 0 0 1 0 0)"><path id="edas7iltcgb218" d="M 167.58 121.94 C 167.58 121.94 144 121.94 144 121.94 C 144.047225 113.22069 144.34 111.58 148.64 111.58 C 151.64 111.58 157.98999999999998 110.86 162.76999999999998 112.58 C 166.91 114 167.58 117.47 167.58 121.94 Z" fill="url(&quot;#edas7iltcgb218-fill&quot;)" stroke="none" stroke-width="1"></path><path id="edas7iltcgb219" d="M 161.77 108.82 C 159.02 107.89999999999999 155.62754900000002 107.834811 154.043702 108.046352 C 149.65165595066384 108.6720525463926 147.07711028890517 109.76633849955202 147.68 116.53 C 147.68 116.53 149.27 117.92 158.15 118.6 C 160.8201053869073 118.843451516373 163.51157225760835 118.52320102796045 166.05 117.66 C 168.58842774239167 116.79679897203954 164.74 109.82 161.77 108.82 Z" fill="url(&quot;#edas7iltcgb219-fill&quot;)" stroke="none" stroke-width="1"></path><path id="edas7iltcgb220" d="M 165.77 121.94 C 165.77 121.94 163.86 117 163.07000000000002 116.41 C 162.56000000000003 116.03 157.94000000000003 115.69 157.15000000000003 116.41 C 156.36000000000004 117.13 154.93000000000004 121.94 154.93000000000004 121.94 Z" fill="url(&quot;#edas7iltcgb220-fill&quot;)" stroke="none" stroke-width="1"></path><path id="edas7iltcgb221" d="M-3.418999,-0.278802C-3.418999,-2.609444,-2.232554,-4.498802,-0.768999,-4.498802C0.694556,-4.498802,1.881001,-2.609444,1.881001,-0.278802C1.881001,2.051840,0.694556,3.941198,-0.768999,3.941198C-2.232554,3.941198,-3.418999,2.051840,-3.418999,-0.278802Z" transform="matrix(1 0 0 1 147.78999999999999 115.87000000000000)" fill="url(&quot;#edas7iltcgb221-fill&quot;)" stroke="none" stroke-width="1"></path><path id="edas7iltcgb222" d="M 156.63 111.43 C 159.18 111.15 160.92 110.33000000000001 160.87 108.82000000000001 C 160.82000000000002 107.31 158.81 106.82000000000001 155.81 106.9 C 152.81 106.98 149.93 107.66000000000001 150.17000000000002 109.15 C 150.44 110.83 152.72 111.85 156.63 111.43 Z" fill="url(&quot;#edas7iltcgb222-fill&quot;)" stroke="none" stroke-width="1"></path><path id="edas7iltcgb223" d="M 160.09 108 C 160.05800351547396 106.5814280740254 159.63965429332242 105.19845543881372 158.88 104 C 157.88 102.86 154.45 103.39 153.82 104.15 C 153.19 104.91000000000001 153.23999999999998 105.66000000000001 152.73 105.89 C 152.22 106.11999999999999 152.11999999999998 105.2 151.17 106.02 C 150.60999999999999 106.5 150.89 108.17999999999999 150.89 108.17999999999999 C 151.23 108.83999999999999 153.35999999999999 109.63 156.19 109.36 C 159.02 109.09 160.09 108.44 160.09 108 Z" fill="url(&quot;#edas7iltcgb223-fill&quot;)" stroke="none" stroke-width="1"></path><path id="edas7iltcgb224" d="M 158.24 104.47 C 157.77 104.21 155.02 104.27 154.60000000000002 104.87 C 154.18000000000004 105.47000000000001 154.10000000000002 107.09 154.97000000000003 107.42 C 155.84000000000003 107.75 157.97000000000003 107.69 158.64000000000001 107.07000000000001 C 159.17557360379658 106.22524115360683 159.0047231482016 105.11471319223963 158.24 104.47 Z" opacity="0.5" fill="#255b96" stroke="none" stroke-width="1"></path></g></g><g id="edas7iltcgb225" transform="matrix(-1 0 0 1 279.98964257000000 0)"><g id="edas7iltcgb226" transform="matrix(1 0 0 1 0 0)"><path id="edas7iltcgb227" d="M 167.58 121.94 C 167.58 121.94 144 121.94 144 121.94 C 144.047225 113.22069 144.34 111.58 148.64 111.58 C 151.64 111.58 157.98999999999998 110.86 162.76999999999998 112.58 C 166.91 114 167.58 117.47 167.58 121.94 Z" fill="url(&quot;#edas7iltcgb227-fill&quot;)" stroke="none" stroke-width="1"></path><path id="edas7iltcgb228" d="M 159.10009757 108.086278 C 157.86812657 109.71 154.70525457 110.122629 153.27067157 107.917045 C 148.21131995809668 108.12263579516897 147.16087622079607 111.2386288491942 147.13353857 116.822034 C 147.13353857 116.822034 149.27 117.92 158.15 118.6 C 160.8201053869073 118.843451516373 163.51157225760835 118.52320102796045 166.05 117.66 C 168.58842774239167 116.79679897203954 163.17784856999998 108.881139 159.10009757 108.086278 Z" fill="url(&quot;#edas7iltcgb228-fill&quot;)" stroke="none" stroke-width="1"></path><path id="edas7iltcgb229" d="M 165.77 121.94 C 165.77 121.94 163.86 117 163.07000000000002 116.41 C 162.56000000000003 116.03 157.94000000000003 115.69 157.15000000000003 116.41 C 156.36000000000004 117.13 154.93000000000004 121.94 154.93000000000004 121.94 Z" fill="url(&quot;#edas7iltcgb229-fill&quot;)" stroke="none" stroke-width="1"></path><path id="edas7iltcgb230" d="M-3.418999,-0.278802C-3.418999,-2.609444,-2.232554,-4.498802,-0.768999,-4.498802C0.694556,-4.498802,1.881001,-2.609444,1.881001,-0.278802C1.881001,2.051840,0.694556,3.941198,-0.768999,3.941198C-2.232554,3.941198,-3.418999,2.051840,-3.418999,-0.278802Z" transform="matrix(1 0 0 1 147.78999999999999 115.87000000000000)" fill="url(&quot;#edas7iltcgb230-fill&quot;)" stroke="none" stroke-width="1"></path><path id="edas7iltcgb231" d="M 156.63 111.43 C 159.18 111.15 160.92 110.33000000000001 160.87 108.82000000000001 C 160.82000000000002 107.31 158.81 106.82000000000001 155.81 106.9 C 152.81 106.98 149.93 107.66000000000001 150.17000000000002 109.15 C 150.44 110.83 152.72 111.85 156.63 111.43 Z" fill="url(&quot;#edas7iltcgb231-fill&quot;)" stroke="none" stroke-width="1"></path><path id="edas7iltcgb232" d="M 160.09 108 C 160.05800351547396 106.5814280740254 159.63965429332242 105.19845543881372 158.88 104 C 157.88 102.86 154.45 103.39 153.82 104.15 C 153.19 104.91000000000001 153.23999999999998 105.66000000000001 152.73 105.89 C 152.22 106.11999999999999 152.11999999999998 105.2 151.17 106.02 C 150.60999999999999 106.5 150.89 108.17999999999999 150.89 108.17999999999999 C 151.23 108.83999999999999 153.35999999999999 109.63 156.19 109.36 C 159.02 109.09 160.09 108.44 160.09 108 Z" fill="url(&quot;#edas7iltcgb232-fill&quot;)" stroke="none" stroke-width="1"></path><path id="edas7iltcgb233" d="M 158.24 104.47 C 157.77 104.21 155.02 104.27 154.60000000000002 104.87 C 154.18000000000004 105.47000000000001 154.10000000000002 107.09 154.97000000000003 107.42 C 155.84000000000003 107.75 157.97000000000003 107.69 158.64000000000001 107.07000000000001 C 159.17557360379658 106.22524115360683 159.0047231482016 105.11471319223963 158.24 104.47 Z" opacity="0.5" fill="#255b96" stroke="none" stroke-width="1"></path></g></g></g></svg>