<svg data-v-0bfbaaa4="" id="eke2zlr3h5dq1" xmlns="http://www.w3.org/2000/svg" xmlns:xlink="http://www.w3.org/1999/xlink" viewBox="0 0 280 132" shape-rendering="geometricPrecision" text-rendering="geometricPrecision" width="280"  height="132" ><defs><linearGradient id="eke2zlr3h5dq60-fill" x1="0.499534" y1="0.997563" x2="0.499534" y2="0.294146" spreadMethod="pad" gradientUnits="objectBoundingBox"><stop id="eke2zlr3h5dq60-fill-0" offset="19%" stop-color="rgb(247,250,255)"></stop> <stop id="eke2zlr3h5dq60-fill-1" offset="100%" stop-color="rgba(247,250,255,0)"></stop></linearGradient> <linearGradient id="eke2zlr3h5dq61-fill" x1="0.499534" y1="0.997563" x2="0.499534" y2="0.294146" spreadMethod="pad" gradientUnits="objectBoundingBox"><stop id="eke2zlr3h5dq61-fill-0" offset="19%" stop-color="rgb(247,250,255)"></stop> <stop id="eke2zlr3h5dq61-fill-1" offset="100%" stop-color="rgba(247,250,255,0)"></stop></linearGradient> <radialGradient id="eke2zlr3h5dq63-fill" cx="0" cy="0" r="18.990000" spreadMethod="pad" gradientUnits="userSpaceOnUse"><stop id="eke2zlr3h5dq63-fill-0" offset="0%" stop-color="rgb(62,76,104)"></stop> <stop id="eke2zlr3h5dq63-fill-1" offset="43%" stop-color="rgba(37,71,112,0.5)"></stop> <stop id="eke2zlr3h5dq63-fill-2" offset="69%" stop-color="rgba(76,107,151,0.2)"></stop> <stop id="eke2zlr3h5dq63-fill-3" offset="100%" stop-color="rgba(230,250,255,0)"></stop></radialGradient> <radialGradient id="eke2zlr3h5dq64-fill" cx="0" cy="0" r="18.990000" spreadMethod="pad" gradientUnits="userSpaceOnUse"><stop id="eke2zlr3h5dq64-fill-0" offset="0%" stop-color="rgb(62,76,104)"></stop> <stop id="eke2zlr3h5dq64-fill-1" offset="43%" stop-color="rgba(37,71,112,0.5)"></stop> <stop id="eke2zlr3h5dq64-fill-2" offset="69%" stop-color="rgba(76,107,151,0.2)"></stop> <stop id="eke2zlr3h5dq64-fill-3" offset="100%" stop-color="rgba(230,250,255,0)"></stop></radialGradient> <radialGradient id="eke2zlr3h5dq65-fill" cx="0" cy="0" r="18.990000" spreadMethod="pad" gradientUnits="userSpaceOnUse"><stop id="eke2zlr3h5dq65-fill-0" offset="0%" stop-color="rgb(62,76,104)"></stop> <stop id="eke2zlr3h5dq65-fill-1" offset="43%" stop-color="rgba(37,71,112,0.5)"></stop> <stop id="eke2zlr3h5dq65-fill-2" offset="69%" stop-color="rgba(76,107,151,0.2)"></stop> <stop id="eke2zlr3h5dq65-fill-3" offset="100%" stop-color="rgba(230,250,255,0)"></stop></radialGradient> <radialGradient id="eke2zlr3h5dq72-fill" cx="153.229991" cy="116.970000" r="9.450000" spreadMethod="pad" gradientUnits="userSpaceOnUse"><stop id="eke2zlr3h5dq72-fill-0" offset="0%" stop-color="rgb(65,97,133)"></stop> <stop id="eke2zlr3h5dq72-fill-1" offset="100%" stop-color="rgb(62,76,104)"></stop></radialGradient> <radialGradient id="eke2zlr3h5dq73-fill" cx="153.649991" cy="119.310000" r="10.500000" spreadMethod="pad" gradientUnits="userSpaceOnUse"><stop id="eke2zlr3h5dq73-fill-0" offset="26%" stop-color="rgb(247,249,252)"></stop> <stop id="eke2zlr3h5dq73-fill-1" offset="67%" stop-color="rgb(208,221,235)"></stop> <stop id="eke2zlr3h5dq73-fill-2" offset="100%" stop-color="rgb(143,175,204)"></stop></radialGradient> <radialGradient id="eke2zlr3h5dq80-fill" cx="153.229991" cy="116.970000" r="9.450000" spreadMethod="pad" gradientUnits="userSpaceOnUse"><stop id="eke2zlr3h5dq80-fill-0" offset="0%" stop-color="rgb(65,97,133)"></stop> <stop id="eke2zlr3h5dq80-fill-1" offset="100%" stop-color="rgb(62,76,104)"></stop></radialGradient> <radialGradient id="eke2zlr3h5dq81-fill" cx="153.649991" cy="119.310000" r="10.500000" spreadMethod="pad" gradientUnits="userSpaceOnUse"><stop id="eke2zlr3h5dq81-fill-0" offset="26%" stop-color="rgb(247,249,252)"></stop> <stop id="eke2zlr3h5dq81-fill-1" offset="67%" stop-color="rgb(208,221,235)"></stop> <stop id="eke2zlr3h5dq81-fill-2" offset="100%" stop-color="rgb(143,175,204)"></stop></radialGradient> <linearGradient id="eke2zlr3h5dq91-fill" x1="160.627391" y1="68.518208" x2="161.119391" y2="64.798208" spreadMethod="pad" gradientUnits="userSpaceOnUse"><stop id="eke2zlr3h5dq91-fill-0" offset="0%" stop-color="rgb(245,248,251)"></stop> <stop id="eke2zlr3h5dq91-fill-1" offset="67%" stop-color="rgb(208,221,235)"></stop></linearGradient> <linearGradient id="eke2zlr3h5dq92-fill" x1="165.320000" y1="71.540000" x2="156.360000" y2="65.810000" spreadMethod="pad" gradientUnits="userSpaceOnUse"><stop id="eke2zlr3h5dq92-fill-0" offset="0%" stop-color="rgb(174,197,223)"></stop> <stop id="eke2zlr3h5dq92-fill-1" offset="100%" stop-color="rgb(194,212,232)"></stop></linearGradient> <linearGradient id="eke2zlr3h5dq93-fill" x1="163.489391" y1="69.883208" x2="155.341391" y2="64.645208" spreadMethod="pad" gradientUnits="userSpaceOnUse"><stop id="eke2zlr3h5dq93-fill-0" offset="0%" stop-color="rgb(174,197,223)"></stop> <stop id="eke2zlr3h5dq93-fill-1" offset="100%" stop-color="rgb(194,212,232)"></stop></linearGradient> <linearGradient id="eke2zlr3h5dq97-fill" x1="160.627391" y1="68.518208" x2="161.119391" y2="64.798208" spreadMethod="pad" gradientUnits="userSpaceOnUse"><stop id="eke2zlr3h5dq97-fill-0" offset="0%" stop-color="rgb(245,248,251)"></stop> <stop id="eke2zlr3h5dq97-fill-1" offset="67%" stop-color="rgb(208,221,235)"></stop></linearGradient> <linearGradient id="eke2zlr3h5dq98-fill" x1="165.320000" y1="71.540000" x2="156.360000" y2="65.810000" spreadMethod="pad" gradientUnits="userSpaceOnUse"><stop id="eke2zlr3h5dq98-fill-0" offset="0%" stop-color="rgb(174,197,223)"></stop> <stop id="eke2zlr3h5dq98-fill-1" offset="100%" stop-color="rgb(194,212,232)"></stop></linearGradient> <linearGradient id="eke2zlr3h5dq99-fill" x1="163.489391" y1="69.883208" x2="155.341391" y2="64.645208" spreadMethod="pad" gradientUnits="userSpaceOnUse"><stop id="eke2zlr3h5dq99-fill-0" offset="0%" stop-color="rgb(174,197,223)"></stop> <stop id="eke2zlr3h5dq99-fill-1" offset="100%" stop-color="rgb(194,212,232)"></stop></linearGradient> <radialGradient id="eke2zlr3h5dq100-fill" cx="138.929941" cy="72.770000" r="27.630000" spreadMethod="pad" gradientUnits="userSpaceOnUse"><stop id="eke2zlr3h5dq100-fill-0" offset="0%" stop-color="rgb(255,255,255)"></stop> <stop id="eke2zlr3h5dq100-fill-1" offset="36%" stop-color="rgb(245,248,251)"></stop> <stop id="eke2zlr3h5dq100-fill-2" offset="67%" stop-color="rgb(208,221,235)"></stop> <stop id="eke2zlr3h5dq100-fill-3" offset="100%" stop-color="rgb(124,163,197)"></stop></radialGradient> <linearGradient id="eke2zlr3h5dq100-stroke" x1="138.709941" y1="103.520000" x2="138.709941" y2="55.320000" spreadMethod="pad" gradientUnits="userSpaceOnUse"><stop id="eke2zlr3h5dq100-stroke-0" offset="0%" stop-color="rgb(99,144,184)"></stop> <stop id="eke2zlr3h5dq100-stroke-1" offset="100%" stop-color="rgb(207,222,239)"></stop></linearGradient> <radialGradient id="eke2zlr3h5dq103-fill" cx="138.620000" cy="88.570000" r="17.360000" spreadMethod="pad" gradientUnits="userSpaceOnUse"><stop id="eke2zlr3h5dq103-fill-0" offset="35%" stop-color="rgb(255,255,255)"></stop> <stop id="eke2zlr3h5dq103-fill-1" offset="51%" stop-color="rgb(214,225,238)"></stop> <stop id="eke2zlr3h5dq103-fill-2" offset="82%" stop-color="rgb(165,179,199)"></stop> <stop id="eke2zlr3h5dq103-fill-3" offset="100%" stop-color="rgb(62,76,104)"></stop></radialGradient> <radialGradient id="eke2zlr3h5dq108-fill" cx="137.355409" cy="78.132302" r="24.690000" spreadMethod="pad" gradientUnits="userSpaceOnUse"><stop id="eke2zlr3h5dq108-fill-0" offset="0%" stop-color="rgb(29,88,150)"></stop> <stop id="eke2zlr3h5dq108-fill-1" offset="16%" stop-color="rgb(24,78,137)"></stop> <stop id="eke2zlr3h5dq108-fill-2" offset="47%" stop-color="rgb(12,53,101)"></stop> <stop id="eke2zlr3h5dq108-fill-3" offset="88%" stop-color="rgb(0,13,45)"></stop> <stop id="eke2zlr3h5dq108-fill-4" offset="100%" stop-color="rgb(0,0,27)"></stop></radialGradient> <radialGradient id="eke2zlr3h5dq117-fill" cx="174.876403" cy="95.810198" r="1.780000" spreadMethod="pad" gradientUnits="userSpaceOnUse"><stop id="eke2zlr3h5dq117-fill-0" offset="26%" stop-color="rgb(247,249,252)"></stop> <stop id="eke2zlr3h5dq117-fill-1" offset="67%" stop-color="rgb(208,221,235)"></stop> <stop id="eke2zlr3h5dq117-fill-2" offset="100%" stop-color="rgb(143,175,204)"></stop></radialGradient> <radialGradient id="eke2zlr3h5dq119-fill" cx="171.740010" cy="99.580000" r="2.210000" spreadMethod="pad" gradientUnits="userSpaceOnUse"><stop id="eke2zlr3h5dq119-fill-0" offset="26%" stop-color="rgb(247,249,252)"></stop> <stop id="eke2zlr3h5dq119-fill-1" offset="67%" stop-color="rgb(208,221,235)"></stop> <stop id="eke2zlr3h5dq119-fill-2" offset="100%" stop-color="rgb(143,175,204)"></stop></radialGradient> <radialGradient id="eke2zlr3h5dq121-fill" cx="166.430010" cy="99.760000" r="2.130000" spreadMethod="pad" gradientUnits="userSpaceOnUse"><stop id="eke2zlr3h5dq121-fill-0" offset="26%" stop-color="rgb(208,221,235)"></stop> <stop id="eke2zlr3h5dq121-fill-1" offset="67%" stop-color="rgb(143,175,204)"></stop> <stop id="eke2zlr3h5dq121-fill-2" offset="100%" stop-color="rgb(143,175,204)"></stop></radialGradient> <radialGradient id="eke2zlr3h5dq123-fill" cx="162.160010" cy="91" r="4.710000" spreadMethod="pad" gradientUnits="userSpaceOnUse"><stop id="eke2zlr3h5dq123-fill-0" offset="26%" stop-color="rgb(208,221,235)"></stop> <stop id="eke2zlr3h5dq123-fill-1" offset="67%" stop-color="rgb(208,221,235)"></stop> <stop id="eke2zlr3h5dq123-fill-2" offset="100%" stop-color="rgb(143,175,204)"></stop></radialGradient> <radialGradient id="eke2zlr3h5dq125-fill" cx="166.760010" cy="88.120000" r="6.460000" spreadMethod="pad" gradientUnits="userSpaceOnUse"><stop id="eke2zlr3h5dq125-fill-0" offset="26%" stop-color="rgb(247,249,252)"></stop> <stop id="eke2zlr3h5dq125-fill-1" offset="67%" stop-color="rgb(208,221,235)"></stop> <stop id="eke2zlr3h5dq125-fill-2" offset="100%" stop-color="rgb(143,175,204)"></stop></radialGradient> <radialGradient id="eke2zlr3h5dq132-fill" cx="174.876403" cy="95.810198" r="1.780000" spreadMethod="pad" gradientUnits="userSpaceOnUse"><stop id="eke2zlr3h5dq132-fill-0" offset="26%" stop-color="rgb(247,249,252)"></stop> <stop id="eke2zlr3h5dq132-fill-1" offset="67%" stop-color="rgb(208,221,235)"></stop> <stop id="eke2zlr3h5dq132-fill-2" offset="100%" stop-color="rgb(143,175,204)"></stop></radialGradient> <radialGradient id="eke2zlr3h5dq134-fill" cx="171.740010" cy="99.580000" r="2.210000" spreadMethod="pad" gradientUnits="userSpaceOnUse"><stop id="eke2zlr3h5dq134-fill-0" offset="26%" stop-color="rgb(247,249,252)"></stop> <stop id="eke2zlr3h5dq134-fill-1" offset="67%" stop-color="rgb(208,221,235)"></stop> <stop id="eke2zlr3h5dq134-fill-2" offset="100%" stop-color="rgb(143,175,204)"></stop></radialGradient> <radialGradient id="eke2zlr3h5dq136-fill" cx="166.430010" cy="99.760000" r="2.130000" spreadMethod="pad" gradientUnits="userSpaceOnUse"><stop id="eke2zlr3h5dq136-fill-0" offset="26%" stop-color="rgb(208,221,235)"></stop> <stop id="eke2zlr3h5dq136-fill-1" offset="67%" stop-color="rgb(143,175,204)"></stop> <stop id="eke2zlr3h5dq136-fill-2" offset="100%" stop-color="rgb(143,175,204)"></stop></radialGradient> <radialGradient id="eke2zlr3h5dq138-fill" cx="162.160010" cy="91" r="4.710000" spreadMethod="pad" gradientUnits="userSpaceOnUse"><stop id="eke2zlr3h5dq138-fill-0" offset="26%" stop-color="rgb(208,221,235)"></stop> <stop id="eke2zlr3h5dq138-fill-1" offset="67%" stop-color="rgb(208,221,235)"></stop> <stop id="eke2zlr3h5dq138-fill-2" offset="100%" stop-color="rgb(143,175,204)"></stop></radialGradient> <radialGradient id="eke2zlr3h5dq140-fill" cx="166.760010" cy="88.120000" r="6.460000" spreadMethod="pad" gradientUnits="userSpaceOnUse"><stop id="eke2zlr3h5dq140-fill-0" offset="26%" stop-color="rgb(247,249,252)"></stop> <stop id="eke2zlr3h5dq140-fill-1" offset="67%" stop-color="rgb(208,221,235)"></stop> <stop id="eke2zlr3h5dq140-fill-2" offset="100%" stop-color="rgb(143,175,204)"></stop></radialGradient> <radialGradient id="eke2zlr3h5dq142-fill" cx="0" cy="0" r="18.990000" spreadMethod="pad" gradientUnits="userSpaceOnUse"><stop id="eke2zlr3h5dq142-fill-0" offset="28%" stop-color="rgb(62,76,104)"></stop> <stop id="eke2zlr3h5dq142-fill-1" offset="43%" stop-color="rgba(37,71,112,0.5)"></stop> <stop id="eke2zlr3h5dq142-fill-2" offset="69%" stop-color="rgba(76,107,151,0.2)"></stop> <stop id="eke2zlr3h5dq142-fill-3" offset="100%" stop-color="rgba(230,250,255,0)"></stop></radialGradient> <radialGradient id="eke2zlr3h5dq143-fill" cx="166.810000" cy="44.440000" r="19.380000" spreadMethod="pad" gradientUnits="userSpaceOnUse"><stop id="eke2zlr3h5dq143-fill-0" offset="0%" stop-color="rgb(25,66,114)"></stop> <stop id="eke2zlr3h5dq143-fill-1" offset="88%" stop-color="rgb(6,26,58)"></stop> <stop id="eke2zlr3h5dq143-fill-2" offset="100%" stop-color="rgb(0,13,40)"></stop></radialGradient> <radialGradient id="eke2zlr3h5dq144-fill" cx="110.610000" cy="44.440000" r="19.380000" spreadMethod="pad" gradientUnits="userSpaceOnUse"><stop id="eke2zlr3h5dq144-fill-0" offset="0%" stop-color="rgb(25,66,114)"></stop> <stop id="eke2zlr3h5dq144-fill-1" offset="88%" stop-color="rgb(6,26,58)"></stop> <stop id="eke2zlr3h5dq144-fill-2" offset="100%" stop-color="rgb(0,13,40)"></stop></radialGradient> <radialGradient id="eke2zlr3h5dq146-fill" cx="138.610000" cy="38.960000" r="32.620000" spreadMethod="pad" gradientUnits="userSpaceOnUse"><stop id="eke2zlr3h5dq146-fill-0" offset="0%" stop-color="rgb(255,255,255)"></stop> <stop id="eke2zlr3h5dq146-fill-1" offset="26%" stop-color="rgb(247,249,252)"></stop> <stop id="eke2zlr3h5dq146-fill-2" offset="67%" stop-color="rgb(208,221,235)"></stop> <stop id="eke2zlr3h5dq146-fill-3" offset="100%" stop-color="rgb(143,175,204)"></stop></radialGradient> <linearGradient id="eke2zlr3h5dq149-stroke" x1="109.860000" y1="33.490000" x2="167.550000" y2="33.490000" spreadMethod="pad" gradientUnits="userSpaceOnUse"><stop id="eke2zlr3h5dq149-stroke-0" offset="0%" stop-color="rgb(232,238,245)"></stop> <stop id="eke2zlr3h5dq149-stroke-1" offset="40%" stop-color="rgb(255,255,255)"></stop> <stop id="eke2zlr3h5dq149-stroke-2" offset="60%" stop-color="rgb(255,255,255)"></stop> <stop id="eke2zlr3h5dq149-stroke-3" offset="100%" stop-color="rgb(232,238,245)"></stop></linearGradient> <linearGradient id="eke2zlr3h5dq150-stroke" x1="168.750059" y1="34.690000" x2="108.660059" y2="34.690000" spreadMethod="pad" gradientUnits="userSpaceOnUse"><stop id="eke2zlr3h5dq150-stroke-0" offset="1%" stop-color="rgb(180,199,220)"></stop> <stop id="eke2zlr3h5dq150-stroke-1" offset="10%" stop-color="rgb(37,91,150)"></stop> <stop id="eke2zlr3h5dq150-stroke-2" offset="50%" stop-color="rgb(215,225,236)"></stop> <stop id="eke2zlr3h5dq150-stroke-3" offset="90%" stop-color="rgb(37,91,150)"></stop> <stop id="eke2zlr3h5dq150-stroke-4" offset="99%" stop-color="rgb(180,199,220)"></stop></linearGradient> <linearGradient id="eke2zlr3h5dq153-fill" x1="138.720013" y1="60.048599" x2="138.720013" y2="39.709799" spreadMethod="pad" gradientUnits="userSpaceOnUse"><stop id="eke2zlr3h5dq153-fill-0" offset="18%" stop-color="rgb(255,255,255)"></stop> <stop id="eke2zlr3h5dq153-fill-1" offset="57%" stop-color="rgb(214,225,238)"></stop></linearGradient> <radialGradient id="eke2zlr3h5dq154-fill" cx="138.720000" cy="43.210000" r="42.130000" spreadMethod="pad" gradientUnits="userSpaceOnUse"><stop id="eke2zlr3h5dq154-fill-0" offset="0%" stop-color="rgb(29,88,150)"></stop> <stop id="eke2zlr3h5dq154-fill-1" offset="16%" stop-color="rgb(24,78,137)"></stop> <stop id="eke2zlr3h5dq154-fill-2" offset="47%" stop-color="rgb(12,53,101)"></stop> <stop id="eke2zlr3h5dq154-fill-3" offset="88%" stop-color="rgb(0,13,45)"></stop> <stop id="eke2zlr3h5dq154-fill-4" offset="100%" stop-color="rgb(0,0,27)"></stop></radialGradient> <radialGradient id="eke2zlr3h5dq155-fill" cx="138.029705" cy="44.655006" r="40.830000" spreadMethod="pad" gradientUnits="userSpaceOnUse"><stop id="eke2zlr3h5dq155-fill-0" offset="0%" stop-color="rgb(42,101,163)"></stop> <stop id="eke2zlr3h5dq155-fill-1" offset="51%" stop-color="rgb(25,66,114)"></stop> <stop id="eke2zlr3h5dq155-fill-2" offset="100%" stop-color="rgb(0,13,40)"></stop></radialGradient></defs> <g id="eke2zlr3h5dq2" opacity="0"><g id="eke2zlr3h5dq3" opacity="0" transform="matrix(1 0 0 1 0 0)"><g id="eke2zlr3h5dq4"><circle id="eke2zlr3h5dq5" r="74.171019" transform="matrix(0 1 -1 0 139.99999999999997 77.77609350000003)" opacity="0.2" fill="none" stroke="#9ca8c8" stroke-width="2px"></circle> <circle id="eke2zlr3h5dq6" r="74.171019" transform="matrix(0 1 -1 0 139.99999999999997 77.77609350000003)" fill="none" stroke="#9ca8c8" stroke-width="2px" stroke-dashoffset="466.030000" stroke-dasharray="466.030000"></circle></g> <g id="eke2zlr3h5dq7" transform="matrix(2.34561408070427 0 0 2.34561408070427 -188.38597129635562 -104.65660749349695)"><circle id="eke2zlr3h5dq8" r="74.171019" transform="matrix(0 1 -1 0 139.99999999999997 77.77609350000003)" opacity="0.2" fill="none" stroke="#9ca8c8" stroke-width="2px"></circle> <circle id="eke2zlr3h5dq9" r="74.171019" transform="matrix(0 1 -1 0 139.99999999999997 77.77609350000003)" fill="none" stroke="#9ca8c8" stroke-width="2px" stroke-dashoffset="466.030000" stroke-dasharray="466.030000"></circle></g> <g id="eke2zlr3h5dq10"><circle id="eke2zlr3h5dq11" r="83.759079" transform="matrix(0 1 -1 0 139.99999999999997 77.77609350000003)" fill="none" stroke="#9ca8c8" stroke-width="8px" stroke-dasharray="87.710000" opacity="1"></circle> <circle id="eke2zlr3h5dq12" r="83.759079" transform="matrix(-0 -1 -1 0 139.99999999999997 77.77609349999999)" opacity="0" fill="none" stroke="#9ca8c8" stroke-width="8px" stroke-dasharray="2.200000"></circle></g> <g id="eke2zlr3h5dq13" transform="matrix(1 0 0 1 0 0)"><circle id="eke2zlr3h5dq14" r="107.275097" transform="matrix(0.91068892896745 0.32970352090860 -0.32970352090860 0.91068892896745 140 77.77609350000004)" fill="none" stroke="#9ca8c8" stroke-width="10px" stroke-miterlimit="2" stroke-dasharray="100,235.900000"></circle> <g id="eke2zlr3h5dq15" opacity="0.2"><circle id="eke2zlr3h5dq16" r="107.275097" transform="matrix(0.94027532764328 0.34041490599756 -0.34041490599756 0.94027532764328 140 77.77609350000004)" fill="none" stroke="#9ca8c8" stroke-width="3px" stroke-miterlimit="2" stroke-dasharray="300,37"></circle> <circle id="eke2zlr3h5dq17" r="107.275097" transform="matrix(0.91068892896745 0.32970352090860 -0.32970352090860 0.91068892896745 140 77.77609350000004)" fill="none" stroke="#9ca8c8" stroke-width="10px" stroke-miterlimit="2" stroke-dasharray="3,296.900000,3,34"></circle></g></g></g> <g id="eke2zlr3h5dq18"><path id="eke2zlr3h5dq19" d="M77.550000,54.690000C66.450000,60.300000,60.300000,66.450000,54.690000,77.550000C53.796486,79.316862,51.984942,80.430765,50.005000,80.430765C48.025058,80.430765,46.213514,79.316862,45.320000,77.550000C39.700000,66.450000,33.550000,60.300000,22.450000,54.690000C20.683138,53.796486,19.569235,51.984942,19.569235,50.005000C19.569235,48.025058,20.683138,46.213514,22.450000,45.320000C33.550000,39.700000,39.700000,33.550000,45.310000,22.450000C46.203514,20.683138,48.015058,19.569235,49.995000,19.569235C51.974942,19.569235,53.786486,20.683138,54.680000,22.450000C60.300000,33.550000,66.450000,39.700000,77.550000,45.310000C79.322319,46.201572,80.440678,48.016060,80.440678,50C80.440678,51.983940,79.322319,53.798428,77.550000,54.690000Z" transform="matrix(0 0 0 0 252.06457300000000 10.42490543000000)" fill="#5483cc" stroke="none" stroke-width="1" opacity="1"></path> <path id="eke2zlr3h5dq20" d="M77.550000,54.690000C66.450000,60.300000,60.300000,66.450000,54.690000,77.550000C53.796486,79.316862,51.984942,80.430765,50.005000,80.430765C48.025058,80.430765,46.213514,79.316862,45.320000,77.550000C39.700000,66.450000,33.550000,60.300000,22.450000,54.690000C20.683138,53.796486,19.569235,51.984942,19.569235,50.005000C19.569235,48.025058,20.683138,46.213514,22.450000,45.320000C33.550000,39.700000,39.700000,33.550000,45.310000,22.450000C46.203514,20.683138,48.015058,19.569235,49.995000,19.569235C51.974942,19.569235,53.786486,20.683138,54.680000,22.450000C60.300000,33.550000,66.450000,39.700000,77.550000,45.310000C79.322319,46.201572,80.440678,48.016060,80.440678,50C80.440678,51.983940,79.322319,53.798428,77.550000,54.690000Z" transform="matrix(0 0 0 0 56.40769523000000 6.35050300000000)" fill="#5483cc" stroke="none" stroke-width="1" opacity="1"></path> <g id="eke2zlr3h5dq21" transform="matrix(0 0 0 0 22.80889700000000 30.23368200000000)" opacity="0"><g id="eke2zlr3h5dq22" transform="matrix(0.70000000000000 0 0 0.70000000000000 15.81500681029600 13.82517238806506)"><path id="eke2zlr3h5dq23" d="M-30.736537,-1.592026C-30.736537,-17.688095,-17.688095,-30.736537,-1.592026,-30.736537C14.504043,-30.736537,27.552485,-17.688095,27.552485,-1.592026C27.552485,14.504043,14.504043,27.552485,-1.592026,27.552485C-17.688095,27.552485,-30.736537,14.504043,-30.736537,-1.592026Z" transform="matrix(0.70000000000000 0 0 0.70000000000000 52.82435798501120 45.87914984472007)" fill="none" stroke="#4b83d6" stroke-width="6px" stroke-linecap="round" stroke-dasharray="0.010000,12.200000"></path> <path id="eke2zlr3h5dq24" d="M-28.656472,-1.592026C-28.656472,-16.539307,-16.539307,-28.656472,-1.592026,-28.656472C13.355255,-28.656472,25.472420,-16.539307,25.472420,-1.592026C25.472420,13.355255,13.355255,25.472420,-1.592026,25.472420C-16.539307,25.472420,-28.656472,13.355255,-28.656472,-1.592026Z" transform="matrix(0.52000000000000 0 0 0.52000000000000 52.53779326163441 45.59258512153773)" opacity="0.5" fill="none" stroke="#4b83d6" stroke-width="5px" stroke-linecap="round" stroke-dasharray="44,12.690000"></path> <path id="eke2zlr3h5dq25" d="M-28.656472,-1.592026C-28.656472,-16.539307,-16.539307,-28.656472,-1.592026,-28.656472C13.355255,-28.656472,25.472420,-16.539307,25.472420,-1.592026C25.472420,13.355255,13.355255,25.472420,-1.592026,25.472420C-16.539307,25.472420,-28.656472,13.355255,-28.656472,-1.592026Z" transform="matrix(0.34054567784018 0 0 0.34054567784018 52.25209727169830 45.30688913179549)" opacity="0.5" fill="none" stroke="#4b83d6" stroke-width="7px" stroke-linecap="round" stroke-dasharray="44,12.690000"></path> <path id="eke2zlr3h5dq26" d="M-28.656472,-1.592026C-28.656472,-16.539307,-16.539307,-28.656472,-1.592026,-28.656472C13.355255,-28.656472,25.472420,-16.539307,25.472420,-1.592026C25.472420,13.355255,13.355255,25.472420,-1.592026,25.472420C-16.539307,25.472420,-28.656472,13.355255,-28.656472,-1.592026Z" transform="matrix(0.14231016006454 0 0 0.14034734598888 51.93650112550479 44.98816813430365)" fill="#4b83d6" stroke="#4b83d6" stroke-width="8px" stroke-linecap="round"></path></g></g> <g id="eke2zlr3h5dq27" transform="matrix(0 0 0 0 294.80800799999997 41.14904800000000)" opacity="0"><g id="eke2zlr3h5dq28" transform="matrix(1 0 0 1 0.35560912986668 -0.01400752457045)"><path id="eke2zlr3h5dq29" d="M-28.656472,-1.592026C-28.656472,-16.539307,-16.539307,-28.656472,-1.592026,-28.656472C13.355255,-28.656472,25.472420,-16.539307,25.472420,-1.592026C25.472420,13.355255,13.355255,25.472420,-1.592026,25.472420C-16.539307,25.472420,-28.656472,13.355255,-28.656472,-1.592026Z" transform="matrix(0.80000000000000 0 0 0.80000000000000 52.98356060910942 46.03835246871025)" fill="none" stroke="#4b83d6" stroke-width="6px" stroke-dasharray="4,11.460000"></path> <path id="eke2zlr3h5dq30" d="M-28.656472,-1.592026C-28.656472,-16.539307,-16.539307,-28.656472,-1.592026,-28.656472C13.355255,-28.656472,25.472420,-16.539307,25.472420,-1.592026C25.472420,13.355255,13.355255,25.472420,-1.592026,25.472420C-16.539307,25.472420,-28.656472,13.355255,-28.656472,-1.592026Z" transform="matrix(0.52000000000000 0 0 0.52000000000000 52.53779326163441 45.59258512153773)" opacity="0.5" fill="none" stroke="#4b83d6" stroke-width="8px" stroke-linecap="round" stroke-dasharray="44,12.690000"></path> <path id="eke2zlr3h5dq31" d="M-28.656472,-1.592026C-28.656472,-16.539307,-16.539307,-28.656472,-1.592026,-28.656472C13.355255,-28.656472,25.472420,-16.539307,25.472420,-1.592026C25.472420,13.355255,13.355255,25.472420,-1.592026,25.472420C-16.539307,25.472420,-28.656472,13.355255,-28.656472,-1.592026Z" transform="matrix(0.14231016006454 0 0 0.14034734598888 51.93650112550479 44.98816813430365)" fill="none" stroke="#4b83d6" stroke-width="20px" stroke-linecap="round"></path></g></g> <path id="eke2zlr3h5dq32" d="M77.550000,54.690000C66.450000,60.300000,60.300000,66.450000,54.690000,77.550000C53.796486,79.316862,51.984942,80.430765,50.005000,80.430765C48.025058,80.430765,46.213514,79.316862,45.320000,77.550000C39.700000,66.450000,33.550000,60.300000,22.450000,54.690000C20.683138,53.796486,19.569235,51.984942,19.569235,50.005000C19.569235,48.025058,20.683138,46.213514,22.450000,45.320000C33.550000,39.700000,39.700000,33.550000,45.310000,22.450000C46.203514,20.683138,48.015058,19.569235,49.995000,19.569235C51.974942,19.569235,53.786486,20.683138,54.680000,22.450000C60.300000,33.550000,66.450000,39.700000,77.550000,45.310000C79.322319,46.201572,80.440678,48.016060,80.440678,50C80.440678,51.983940,79.322319,53.798428,77.550000,54.690000Z" transform="matrix(0 0 0 0 56.40769523000000 110.34999999999999)" fill="#5483cc" stroke="none" stroke-width="1" opacity="1"></path> <path id="eke2zlr3h5dq33" d="M77.550000,54.690000C66.450000,60.300000,60.300000,66.450000,54.690000,77.550000C53.796486,79.316862,51.984942,80.430765,50.005000,80.430765C48.025058,80.430765,46.213514,79.316862,45.320000,77.550000C39.700000,66.450000,33.550000,60.300000,22.450000,54.690000C20.683138,53.796486,19.569235,51.984942,19.569235,50.005000C19.569235,48.025058,20.683138,46.213514,22.450000,45.320000C33.550000,39.700000,39.700000,33.550000,45.310000,22.450000C46.203514,20.683138,48.015058,19.569235,49.995000,19.569235C51.974942,19.569235,53.786486,20.683138,54.680000,22.450000C60.300000,33.550000,66.450000,39.700000,77.550000,45.310000C79.322319,46.201572,80.440678,48.016060,80.440678,50C80.440678,51.983940,79.322319,53.798428,77.550000,54.690000Z" transform="matrix(0 0 0 0 195.06000000000000 0.42000000000000)" fill="#5483cc" stroke="none" stroke-width="1" opacity="1"></path> <g id="eke2zlr3h5dq34" transform="matrix(0 0 0 0 9.23844200000000 18.72829700000000)" opacity="0"><g id="eke2zlr3h5dq35" transform="matrix(1 0 0 1 0.76364471277343 0.57208986443092)"><path id="eke2zlr3h5dq36" d="M-28.656472,-1.592026C-28.656472,-16.539307,-16.539307,-28.656472,-1.592026,-28.656472C13.355255,-28.656472,25.472420,-16.539307,25.472420,-1.592026C25.472420,13.355255,13.355255,25.472420,-1.592026,25.472420C-16.539307,25.472420,-28.656472,13.355255,-28.656472,-1.592026Z" transform="matrix(0.70000000000000 0 0 0.70000000000000 52.82435798501120 45.87914984472007)" fill="none" stroke="#4b83d6" stroke-width="4px" stroke-linecap="round" stroke-dasharray="0.010000,12.200000"></path> <path id="eke2zlr3h5dq37" d="M-28.656472,-1.592026C-28.656472,-16.539307,-16.539307,-28.656472,-1.592026,-28.656472C13.355255,-28.656472,25.472420,-16.539307,25.472420,-1.592026C25.472420,13.355255,13.355255,25.472420,-1.592026,25.472420C-16.539307,25.472420,-28.656472,13.355255,-28.656472,-1.592026Z" transform="matrix(0.40000000000000 0 0 0.40000000000000 52.34675011271654 45.40154197274951)" opacity="0.5" fill="none" stroke="#4b83d6" stroke-width="24px" stroke-dasharray="40,16.690000"></path> <path id="eke2zlr3h5dq38" d="M-28.656472,-1.592026C-28.656472,-16.539307,-16.539307,-28.656472,-1.592026,-28.656472C13.355255,-28.656472,25.472420,-16.539307,25.472420,-1.592026C25.472420,13.355255,13.355255,25.472420,-1.592026,25.472420C-16.539307,25.472420,-28.656472,13.355255,-28.656472,-1.592026Z" transform="matrix(0 0 0 0 51.70993961632366 44.76473147678876)" fill="none" stroke="#4b83d6" stroke-width="24px" opacity="1"></path> <path id="eke2zlr3h5dq39" d="M-28.656472,-1.592026C-28.656472,-16.539307,-16.539307,-28.656472,-1.592026,-28.656472C13.355255,-28.656472,25.472420,-16.539307,25.472420,-1.592026C25.472420,13.355255,13.355255,25.472420,-1.592026,25.472420C-16.539307,25.472420,-28.656472,13.355255,-28.656472,-1.592026Z" transform="matrix(0 0 0 0 51.70993961632366 44.76473147678876)" fill="none" stroke="#4b83d6" stroke-width="24px" opacity="1"></path></g></g> <g id="eke2zlr3h5dq40" transform="matrix(0 0 0 0 305.42836399999999 49.70433500000000)" opacity="0"><g id="eke2zlr3h5dq41" transform="matrix(1 0 0 1 0.24976061538047 0.54153441430562)"><g id="eke2zlr3h5dq42" transform="matrix(1 0 0 1 0 0)"><path id="eke2zlr3h5dq43" d="M-28.656472,-1.592026C-28.656472,-16.539307,-16.539307,-28.656472,-1.592026,-28.656472C13.355255,-28.656472,25.472420,-16.539307,25.472420,-1.592026C25.472420,13.355255,13.355255,25.472420,-1.592026,25.472420C-16.539307,25.472420,-28.656472,13.355255,-28.656472,-1.592026Z" transform="matrix(-0.70000000000000 0 -0 -0.70000000000000 50.59552124763611 43.65031310885745)" fill="none" stroke="#4b83d6" stroke-width="8px" stroke-dashoffset="-42.510000" stroke-dasharray="0 170.070000" opacity="1"></path> <path id="eke2zlr3h5dq44" d="M-28.656472,-1.592026C-28.656472,-16.539307,-16.539307,-28.656472,-1.592026,-28.656472C13.355255,-28.656472,25.472420,-16.539307,25.472420,-1.592026C25.472420,13.355255,13.355255,25.472420,-1.592026,25.472420C-16.539307,25.472420,-28.656472,13.355255,-28.656472,-1.592026Z" transform="matrix(0.70000000000000 0 0 0.70000000000000 52.82435798501120 45.87914984472007)" fill="none" stroke="#4b83d6" stroke-width="8px" stroke-miterlimit="5" stroke-dashoffset="-42.510000" stroke-dasharray="0 170.070000" opacity="1"></path> <path id="eke2zlr3h5dq45" d="M-28.656472,-1.592026C-28.656472,-16.539307,-16.539307,-28.656472,-1.592026,-28.656472C13.355255,-28.656472,25.472420,-16.539307,25.472420,-1.592026C25.472420,13.355255,13.355255,25.472420,-1.592026,25.472420C-16.539307,25.472420,-28.656472,13.355255,-28.656472,-1.592026Z" transform="matrix(-0.70000000000000 0 -0 -0.70000000000000 50.59552124763611 43.65031310885745)" fill="none" stroke="#4b83d6" stroke-width="8px" stroke-dashoffset="-42.510000" stroke-dasharray="0 170.070000" opacity="1"></path> <path id="eke2zlr3h5dq46" d="M-28.656472,-1.592026C-28.656472,-16.539307,-16.539307,-28.656472,-1.592026,-28.656472C13.355255,-28.656472,25.472420,-16.539307,25.472420,-1.592026C25.472420,13.355255,13.355255,25.472420,-1.592026,25.472420C-16.539307,25.472420,-28.656472,13.355255,-28.656472,-1.592026Z" transform="matrix(0.70000000000000 0 0 0.70000000000000 52.82435798501120 45.87914984472007)" fill="none" stroke="#4b83d6" stroke-width="8px" stroke-miterlimit="5" stroke-dashoffset="-42.510000" stroke-dasharray="0 170.070000" opacity="1"></path> <path id="eke2zlr3h5dq47" d="M-28.656472,-1.592026C-28.656472,-16.539307,-16.539307,-28.656472,-1.592026,-28.656472C13.355255,-28.656472,25.472420,-16.539307,25.472420,-1.592026C25.472420,13.355255,13.355255,25.472420,-1.592026,25.472420C-16.539307,25.472420,-28.656472,13.355255,-28.656472,-1.592026Z" transform="matrix(0.70000000000000 0 0 0.70000000000000 52.82435798501120 45.87914984472007)" fill="none" stroke="#4b83d6" stroke-width="8px" stroke-miterlimit="5" stroke-dashoffset="-42.510000" stroke-dasharray="0 170.070000" opacity="1"></path> <path id="eke2zlr3h5dq48" d="M-28.656472,-1.592026C-28.656472,-16.539307,-16.539307,-28.656472,-1.592026,-28.656472C13.355255,-28.656472,25.472420,-16.539307,25.472420,-1.592026C25.472420,13.355255,13.355255,25.472420,-1.592026,25.472420C-16.539307,25.472420,-28.656472,13.355255,-28.656472,-1.592026Z" transform="matrix(-0.70000000000000 0 -0 -0.70000000000000 50.59552124763611 43.65031310885745)" fill="none" stroke="#4b83d6" stroke-width="8px" stroke-dashoffset="-42.510000" stroke-dasharray="0 170.070000" opacity="1"></path></g></g></g> <path id="eke2zlr3h5dq49" d="M77.550000,54.690000C66.450000,60.300000,60.300000,66.450000,54.690000,77.550000C53.796486,79.316862,51.984942,80.430765,50.005000,80.430765C48.025058,80.430765,46.213514,79.316862,45.320000,77.550000C39.700000,66.450000,33.550000,60.300000,22.450000,54.690000C20.683138,53.796486,19.569235,51.984942,19.569235,50.005000C19.569235,48.025058,20.683138,46.213514,22.450000,45.320000C33.550000,39.700000,39.700000,33.550000,45.310000,22.450000C46.203514,20.683138,48.015058,19.569235,49.995000,19.569235C51.974942,19.569235,53.786486,20.683138,54.680000,22.450000C60.300000,33.550000,66.450000,39.700000,77.550000,45.310000C79.322319,46.201572,80.440678,48.016060,80.440678,50C80.440678,51.983940,79.322319,53.798428,77.550000,54.690000Z" transform="matrix(0 0 0 0 56.40769523000000 6.35050300000000)" fill="#5483cc" stroke="none" stroke-width="1" opacity="1"></path> <path id="eke2zlr3h5dq50" d="M77.550000,54.690000C66.450000,60.300000,60.300000,66.450000,54.690000,77.550000C53.796486,79.316862,51.984942,80.430765,50.005000,80.430765C48.025058,80.430765,46.213514,79.316862,45.320000,77.550000C39.700000,66.450000,33.550000,60.300000,22.450000,54.690000C20.683138,53.796486,19.569235,51.984942,19.569235,50.005000C19.569235,48.025058,20.683138,46.213514,22.450000,45.320000C33.550000,39.700000,39.700000,33.550000,45.310000,22.450000C46.203514,20.683138,48.015058,19.569235,49.995000,19.569235C51.974942,19.569235,53.786486,20.683138,54.680000,22.450000C60.300000,33.550000,66.450000,39.700000,77.550000,45.310000C79.322319,46.201572,80.440678,48.016060,80.440678,50C80.440678,51.983940,79.322319,53.798428,77.550000,54.690000Z" transform="matrix(0 0 0 0 235.93844600000000 22.27265300000000)" fill="#5483cc" stroke="none" stroke-width="1" opacity="1"></path> <g id="eke2zlr3h5dq51" transform="matrix(0 0 0 0 10.87486500000000 20.74781800000000)" opacity="0"><g id="eke2zlr3h5dq52" transform="matrix(1 0 0 1 -0.00000068500000 -1.25444913923618)"><g id="eke2zlr3h5dq53" transform="matrix(1 0 0 1 0 0)"><path id="eke2zlr3h5dq54" d="M-28.656472,-1.592026C-28.656472,-16.539307,-16.539307,-28.656472,-1.592026,-28.656472C13.355255,-28.656472,25.472420,-16.539307,25.472420,-1.592026C25.472420,13.355255,13.355255,25.472420,-1.592026,25.472420C-16.539307,25.472420,-28.656472,13.355255,-28.656472,-1.592026Z" transform="matrix(0 0 0 0 51.70993961632366 44.76473147678876)" fill="none" stroke="#4b83d6" stroke-width="28px" stroke-dashoffset="-42.510000" stroke-dasharray="0 170.070000" opacity="1"></path> <path id="eke2zlr3h5dq55" d="M-28.656472,-1.592026C-28.656472,-16.539307,-16.539307,-28.656472,-1.592026,-28.656472C13.355255,-28.656472,25.472420,-16.539307,25.472420,-1.592026C25.472420,13.355255,13.355255,25.472420,-1.592026,25.472420C-16.539307,25.472420,-28.656472,13.355255,-28.656472,-1.592026Z" transform="matrix(0 0 0 0 51.70993961632366 44.76473147678876)" fill="none" stroke="#4b83d6" stroke-width="28px" stroke-miterlimit="5" stroke-dashoffset="-42.510000" stroke-dasharray="0 170.070000" opacity="1"></path> <path id="eke2zlr3h5dq56" d="M-28.656472,-1.592026C-28.656472,-16.539307,-16.539307,-28.656472,-1.592026,-28.656472C13.355255,-28.656472,25.472420,-16.539307,25.472420,-1.592026C25.472420,13.355255,13.355255,25.472420,-1.592026,25.472420C-16.539307,25.472420,-28.656472,13.355255,-28.656472,-1.592026Z" transform="matrix(0 0 0 0 51.70993961632366 44.76473147678876)" fill="none" stroke="#4b83d6" stroke-width="28px" stroke-dashoffset="-42.510000" stroke-dasharray="0 170.070000" opacity="1"></path> <path id="eke2zlr3h5dq57" d="M-28.656472,-1.592026C-28.656472,-16.539307,-16.539307,-28.656472,-1.592026,-28.656472C13.355255,-28.656472,25.472420,-16.539307,25.472420,-1.592026C25.472420,13.355255,13.355255,25.472420,-1.592026,25.472420C-16.539307,25.472420,-28.656472,13.355255,-28.656472,-1.592026Z" transform="matrix(0 0 0 0 51.70993961632366 44.76473147678876)" fill="none" stroke="#4b83d6" stroke-width="28px" stroke-miterlimit="5" stroke-dashoffset="-42.510000" stroke-dasharray="0 170.070000" opacity="1"></path></g> <path id="eke2zlr3h5dq58" display="none" d="M-28.656472,-1.592026C-28.656472,-16.539307,-16.539307,-28.656472,-1.592026,-28.656472C13.355255,-28.656472,25.472420,-16.539307,25.472420,-1.592026C25.472420,13.355255,13.355255,25.472420,-1.592026,25.472420C-16.539307,25.472420,-28.656472,13.355255,-28.656472,-1.592026Z" transform="matrix(1 0 0 1 53.30196585730587 46.35675771669062)" fill="none" stroke="#4b83d6" stroke-width="2px" stroke-linecap="round" stroke-miterlimit="5" stroke-dasharray="0.010000,10"></path></g></g></g></g> <g id="eke2zlr3h5dq59"><rect id="eke2zlr3h5dq60" width="280" height="62.503991" rx="0" ry="0" transform="matrix(1 0 0 1 0.00000000000003 69.49600899999997)" fill="url(&quot;#eke2zlr3h5dq60-fill&quot;)" stroke="none" stroke-width="1"></rect> <rect id="eke2zlr3h5dq61" width="280" height="62.503991" rx="0" ry="0" transform="matrix(-1 0 -0 -1 280 62.50399100000001)" fill="url(&quot;#eke2zlr3h5dq61-fill&quot;)" stroke="none" stroke-width="1"></rect> <g id="eke2zlr3h5dq62" transform="matrix(1 0 0 1 26 0)"><circle id="eke2zlr3h5dq63" r="18.990000" transform="matrix(1.73273366727717 0 0 0.24782018213198 126.44969690000003 122.10933600000006)" opacity="0" fill="url(&quot;#eke2zlr3h5dq63-fill&quot;)" stroke="none" stroke-width="1"></circle></g> <circle id="eke2zlr3h5dq64" r="18.990000" transform="matrix(1.73273366727717 0 0 0.24782018213198 126.44969690000003 122.10933600000006)" opacity="0" fill="url(&quot;#eke2zlr3h5dq64-fill&quot;)" stroke="none" stroke-width="1"></circle> <circle id="eke2zlr3h5dq65" r="19.060551" transform="matrix(3.01318197723002 0 0 0.40974680484026 140.00000000273158 123.96303017683735)" opacity="0.500000" fill="url(&quot;#eke2zlr3h5dq65-fill&quot;)" stroke="none" stroke-width="1"></circle></g> <g id="eke2zlr3h5dq66" transform="matrix(1 0 0 1 1.28999709999999 0)"><g id="eke2zlr3h5dq67" transform="matrix(-1 0 0 1 277.50082492000001 0)"><g id="eke2zlr3h5dq68" transform="matrix(1 0 0 1 0.00000381499999 2.13999786000001)"><path id="eke2zlr3h5dq69" d="M 145.52 94.75 C 148.74 97.69 151.70532618500002 102.50160305100204 152.13999618500003 106.84715505100203" fill="none" stroke="#3e4c68" stroke-width="4.61242px" stroke-linecap="round" stroke-linejoin="round"></path></g> <g id="eke2zlr3h5dq70" transform="matrix(1 0 0 1 0 0)"><path id="eke2zlr3h5dq71" d="M 143.7 112.41 C 148.85 111.67999999999999 156.88 112.41 160.7 113.25 C 161.94 113.33 165.7 117.52 165.7 121.84 C 165.7 121.84 140.79 121.84 140.79 121.84 C 140.79 118.10000000000001 142.28 113.92 143.7 112.41" fill="#232e44" stroke="none" stroke-width="1"></path> <path id="eke2zlr3h5dq72" d="M 143.7 112.41 C 148.85 111.67999999999999 156.88 112.41 160.7 113.25 C 161.94 113.33 165.7 117.52 165.7 121.84 C 165.7 121.84 140.79 121.84 140.79 121.84 C 140.79 118.10000000000001 142.28 113.92 143.7 112.41" fill="url(&quot;#eke2zlr3h5dq72-fill&quot;)" stroke="none" stroke-width="1"></path> <path id="eke2zlr3h5dq73" d="M 162.55 117.71 C 156.8 118.97999999999999 149.73000000000002 118.47 142.55 116.71 C 142.74734912160295 115.2537724126343 143.12005397206633 113.82674933653583 143.66000000000003 112.46 C 145.28000000000003 110.36999999999999 147.90000000000003 108.74 152.14000000000001 108.74 C 155.60443081315665 108.61575214727439 158.8703117866147 110.3555205163128 160.70000000000002 113.3 C 161.45187108995964 114.70955332294825 162.07119768474422 116.1858940164617 162.55 117.71 Z" fill="url(&quot;#eke2zlr3h5dq73-fill&quot;)" stroke="none" stroke-width="1"></path> <path id="eke2zlr3h5dq74" d="M 159.41 111.6 C 159.5151707627009 112.90288041363341 159.1059544164283 114.19514255975747 158.27 115.19999999999999 C 157.27 116.02999999999999 148.19 114.91999999999999 147.17000000000002 114.28999999999999 C 146.15000000000003 113.66 145.65 111.82 145.44000000000003 110.67999999999999 C 145.69000000000003 110.49999999999999 145.96000000000004 110.33 146.23000000000002 110.16 C 146.48000000000002 111.16 146.97000000000003 112.95 147.58 113.45 C 148.42000000000002 114.13000000000001 157 114.95 157.76000000000002 114.51 C 158.52000000000004 114.07000000000001 158.76000000000002 112.42 158.82000000000002 111.04 Z" opacity="0.5" fill="#255b96" stroke="none" stroke-width="1" style="mix-blend-mode: multiply;"></path></g></g> <g id="eke2zlr3h5dq75"><g id="eke2zlr3h5dq76" transform="matrix(1 0 0 1 0.00000381499999 2.13999786000001)"><path id="eke2zlr3h5dq77" d="M 145.52 94.75 C 148.74 97.69 151.70532618500002 102.50160305100204 152.13999618500003 106.84715505100203" fill="none" stroke="#3e4c68" stroke-width="4.61242px" stroke-linecap="round" stroke-linejoin="round"></path></g> <g id="eke2zlr3h5dq78" transform="matrix(1 0 0 1 0 0)"><path id="eke2zlr3h5dq79" d="M 143.7 112.41 C 148.85 111.67999999999999 156.88 112.41 160.7 113.25 C 161.94 113.33 165.7 117.52 165.7 121.84 C 165.7 121.84 140.79 121.84 140.79 121.84 C 140.79 118.10000000000001 142.28 113.92 143.7 112.41" fill="#232e44" stroke="none" stroke-width="1"></path> <path id="eke2zlr3h5dq80" d="M 143.7 112.41 C 148.85 111.67999999999999 156.88 112.41 160.7 113.25 C 161.94 113.33 165.7 117.52 165.7 121.84 C 165.7 121.84 140.79 121.84 140.79 121.84 C 140.79 118.10000000000001 142.28 113.92 143.7 112.41" fill="url(&quot;#eke2zlr3h5dq80-fill&quot;)" stroke="none" stroke-width="1"></path> <path id="eke2zlr3h5dq81" d="M 162.55 117.71 C 156.8 118.97999999999999 149.73000000000002 118.47 142.55 116.71 C 142.74734912160295 115.2537724126343 143.12005397206633 113.82674933653583 143.66000000000003 112.46 C 145.28000000000003 110.36999999999999 147.90000000000003 108.74 152.14000000000001 108.74 C 155.60443081315665 108.61575214727439 158.8703117866147 110.3555205163128 160.70000000000002 113.3 C 161.45187108995964 114.70955332294825 162.07119768474422 116.1858940164617 162.55 117.71 Z" fill="url(&quot;#eke2zlr3h5dq81-fill&quot;)" stroke="none" stroke-width="1"></path> <path id="eke2zlr3h5dq82" d="M 159.41 111.6 C 159.5151707627009 112.90288041363341 159.1059544164283 114.19514255975747 158.27 115.19999999999999 C 157.27 116.02999999999999 148.19 114.91999999999999 147.17000000000002 114.28999999999999 C 146.15000000000003 113.66 145.65 111.82 145.44000000000003 110.67999999999999 C 145.69000000000003 110.49999999999999 145.96000000000004 110.33 146.23000000000002 110.16 C 146.48000000000002 111.16 146.97000000000003 112.95 147.58 113.45 C 148.42000000000002 114.13000000000001 157 114.95 157.76000000000002 114.51 C 158.52000000000004 114.07000000000001 158.76000000000002 112.42 158.82000000000002 111.04 Z" opacity="0.5" fill="#255b96" stroke="none" stroke-width="1" style="mix-blend-mode: multiply;"></path></g></g> <g id="eke2zlr3h5dq83" transform="matrix(1 0 0 1 0.00000381499999 0.13999786000001)"><g id="eke2zlr3h5dq84"><path id="eke2zlr3h5dq85" d="M 145.62081805488268 96.75 C 148.84081805488267 99.69 151.70532618822827 104.25445013999999 152.13999618822828 108.60000213999999" transform="matrix(-1 0 0 1 277.50081729322835 0)" opacity="0" fill="none" stroke="#3e4c68" stroke-width="4.61242px" stroke-linecap="round" stroke-linejoin="round"></path> <path id="eke2zlr3h5dq86" d="M 145.52 94.75 C 148.74 97.69 151.70532618500002 102.50160305100204 152.13999618500003 106.84715505100203" opacity="0" fill="none" stroke="#3e4c68" stroke-width="4.61242px" stroke-linecap="round" stroke-linejoin="round"></path> <path id="eke2zlr3h5dq87" d="M119.720000,76.250000C119.800000,75.640000,120.910000,74.550000,121.720000,70.600000C121.938493,69.382124,122.048922,68.147320,122.050000,66.910000L155.410000,66.910000C155.411078,68.147320,155.521507,69.382124,155.740000,70.600000C156.530000,74.600000,157.640000,75.600000,157.740000,76.250000Z" fill="#3e4c68" stroke="none" stroke-width="1"></path> <g id="eke2zlr3h5dq88"><path id="eke2zlr3h5dq89" d="M 165.91546179000002 78.62 C 163.79407679000005 74.730371 161.540284 71.387 154.416223 70.386223" fill="none" stroke="#3e4c68" stroke-width="4.61242px" stroke-linecap="round" stroke-linejoin="round"></path> <g id="eke2zlr3h5dq90" transform="matrix(1 0 0 1 0 0)"><path id="eke2zlr3h5dq91" d="M166.670000,69.420000C161.910000,72.060000,156.550000,71.360000,156.280000,65.930000C159.911141,66.516277,163.421248,67.695322,166.670000,69.420000Z" fill="url(&quot;#eke2zlr3h5dq91-fill&quot;)" stroke="none" stroke-width="1"></path> <path id="eke2zlr3h5dq92" d="M157,66.630000C159.886936,67.203056,162.689372,68.140561,165.340000,69.420000C164.135667,69.968396,162.832919,70.267722,161.510000,70.300000C159.257684,70.510294,157.251846,68.878049,157,66.630000M156.320000,65.930000C156.257851,67.307962,156.791507,68.646063,157.784877,69.603067C158.778248,70.560071,160.135313,71.043474,161.510000,70.930000C163.340335,70.873903,165.127709,70.361752,166.710000,69.440000C163.461248,67.715322,159.951141,66.536277,156.320000,65.950000Z" fill="url(&quot;#eke2zlr3h5dq92-fill&quot;)" stroke="none" stroke-width="1"></path> <path id="eke2zlr3h5dq93" d="M166.670000,69.420000C159.990000,71.420000,157.980000,71.020000,156.280000,65.930000C155.821309,66.809732,155.620267,67.801077,155.700000,68.790000C156.190000,72.410000,161.030000,73.200000,166.700000,70.480000Z" fill="url(&quot;#eke2zlr3h5dq93-fill&quot;)" stroke="none" stroke-width="1"></path></g></g> <g id="eke2zlr3h5dq94" transform="matrix(-1 0 0 1 277.50081729000004 0)"><path id="eke2zlr3h5dq95" d="M 164.06406603671897 75.74748983354769 C 161.292918036719 71.73789083354768 156.783648 70.715527 154.51000000000002 70.47999999999999" fill="none" stroke="#3e4c68" stroke-width="4.61242px" stroke-linecap="round" stroke-linejoin="round"></path> <g id="eke2zlr3h5dq96" transform="matrix(1 0 0 1 0 0)"><path id="eke2zlr3h5dq97" d="M166.670000,69.420000C161.910000,72.060000,156.550000,71.360000,156.280000,65.930000C159.911141,66.516277,163.421248,67.695322,166.670000,69.420000Z" fill="url(&quot;#eke2zlr3h5dq97-fill&quot;)" stroke="none" stroke-width="1"></path> <path id="eke2zlr3h5dq98" d="M157,66.630000C159.886936,67.203056,162.689372,68.140561,165.340000,69.420000C164.135667,69.968396,162.832919,70.267722,161.510000,70.300000C159.257684,70.510294,157.251846,68.878049,157,66.630000M156.320000,65.930000C156.257851,67.307962,156.791507,68.646063,157.784877,69.603067C158.778248,70.560071,160.135313,71.043474,161.510000,70.930000C163.340335,70.873903,165.127709,70.361752,166.710000,69.440000C163.461248,67.715322,159.951141,66.536277,156.320000,65.950000Z" fill="url(&quot;#eke2zlr3h5dq98-fill&quot;)" stroke="none" stroke-width="1"></path> <path id="eke2zlr3h5dq99" d="M166.670000,69.420000C159.990000,71.420000,157.980000,71.020000,156.280000,65.930000C155.821309,66.809732,155.620267,67.801077,155.700000,68.790000C156.190000,72.410000,161.030000,73.200000,166.700000,70.480000Z" fill="url(&quot;#eke2zlr3h5dq99-fill&quot;)" stroke="none" stroke-width="1"></path></g></g> <path id="eke2zlr3h5dq100" d="M138.710000,55.630000C147.290000,55.630000,152.570000,60.230000,155.390000,66.910000C151.600000,69.610000,153.580000,73.910000,157.710000,76.240000C157.880000,77.760000,157.970000,79.310000,158,80.880000C157.861090,81.279901,157.658479,81.654731,157.400000,81.990000C157.141521,82.325269,158,82.080000,158,82.260000C157.750000,93.810000,149.210000,103.260000,138.710000,103.260000C128.210000,103.260000,119.710000,93.850000,119.420000,82.260000C119.420000,82.080000,120.020000,81.990000,120.020000,81.990000C119.761521,81.654731,119.558910,81.279901,119.420000,80.880000C119.420000,79.310000,119.540000,77.760000,119.710000,76.240000C123.840000,73.880000,125.820000,69.610000,122.030000,66.910000C124.850000,60.230000,130.130000,55.630000,138.710000,55.630000Z" fill="url(&quot;#eke2zlr3h5dq100-fill&quot;)" stroke="url(&quot;#eke2zlr3h5dq100-stroke&quot;)" stroke-width="0.610099px" stroke-miterlimit="10"></path> <g id="eke2zlr3h5dq101" transform="matrix(1 0 0 1 0.01999923834566 0)"><g id="eke2zlr3h5dq102"><path id="eke2zlr3h5dq103" d="M145,88.790000C140.853274,89.259973,136.666726,89.259973,132.520000,88.790000C131.868212,88.681205,131.268695,88.365670,130.810000,87.890000C128.643629,85.286841,127.458241,82.006680,127.460000,78.620000C127.356463,77.672062,127.913895,76.776041,128.810000,76.450000C135.412123,75.539993,142.107877,75.539993,148.710000,76.450000C149.582354,76.797087,150.111869,77.687822,150,78.620000C150.001759,82.006680,148.816371,85.286841,146.650000,87.890000C146.207203,88.354583,145.630336,88.669238,145,88.790000Z" fill="url(&quot;#eke2zlr3h5dq103-fill&quot;)" stroke="none" stroke-width="1"></path> <path id="eke2zlr3h5dq104" d="M 148.77 81.88 L 149.5 82.36999999999999 C 154.19 82.69999999999999 156.47462284699913 81.80902422553741 157.97462284699913 80.90902422553742 C 157.84039065345598 81.31096910685724 157.63737436130666 81.6865492473335 157.37462284699913 82.01902422553742 C 154.88462284699912 83.18902422553742 152.3 83.25 149.26 83.25 C 149.02408718375483 83.06490155923298 148.77694841867208 82.89457619410837 148.51999999999998 82.74 Z" opacity="0.5" fill="#255b96" stroke="none" stroke-width="1" style="mix-blend-mode: multiply;"></path> <path id="eke2zlr3h5dq105" d="M 157.37462284699913 82.02902422553743 C 154.87462284699913 83.21902422553742 152.15 83.26 149.26 83.26 C 149.02408718375483 83.07490155923297 148.77694841867208 82.90457619410836 148.51999999999998 82.75 L 148.38 83.12 L 149.1 83.74000000000001 C 154.35 83.86000000000001 155.94462284699912 83.29902422553744 157.97462284699913 82.29902422553744 C 157.97462284699913 82.10902422553742 157.37462284699913 82.02902422553743 157.37462284699913 82.02902422553743 Z" opacity="0.5" fill="#ffffff" stroke="none" stroke-width="1"></path> <path id="eke2zlr3h5dq106" d="M 128.65 81.88 L 127.92 82.36999999999999 C 123.23 82.69999999999999 120.86173584699914 81.79805022553741 119.36173584699914 80.89805022553742 C 119.4888008168981 81.30213388689565 119.68504748235911 81.68109296502726 119.94173584699914 82.01805022553742 C 122.44173584699914 83.18805022553742 125.1 83.26 128.14 83.26 C 128.37591281624515 83.07490155923297 128.62305158132793 82.90457619410836 128.88 82.75 Z" opacity="0.5" fill="#255b96" stroke="none" stroke-width="1" style="mix-blend-mode: multiply;"></path> <path id="eke2zlr3h5dq107" d="M 119.94173584699914 82.01805022553742 C 122.44173584699914 83.20805022553742 125.25 83.26 128.14 83.26 C 128.37591281624515 83.07490155923297 128.62305158132793 82.90457619410836 128.88 82.75 L 129.01999999999998 83.12 L 128.29999999999998 83.74000000000001 C 123.04999999999998 83.86000000000001 121.37173584699912 83.28805022553743 119.34173584699911 82.28805022553743 C 119.36173584699914 82.09805022553742 119.94173584699914 82.01805022553742 119.94173584699914 82.01805022553742 Z" opacity="0.5" fill="#ffffff" stroke="none" stroke-width="1"></path></g> <path id="eke2zlr3h5dq108" d="M144.540000,87.670000C140.664679,88.089985,136.755321,88.089985,132.880000,87.670000C132.275431,87.560249,131.717905,87.271032,131.280000,86.840000C129.264298,84.477735,128.154806,81.475371,128.150000,78.370000C128.061200,77.493162,128.580756,76.668470,129.410000,76.370000C135.582221,75.539986,141.837779,75.539986,148.010000,76.370000C148.841635,76.665488,149.362522,77.492292,149.270000,78.370000C149.265194,81.475371,148.155702,84.477735,146.140000,86.840000C145.704354,87.274133,145.145804,87.563881,144.540000,87.670000Z" fill="url(&quot;#eke2zlr3h5dq108-fill&quot;)" stroke="none" stroke-width="1"></path> <path id="eke2zlr3h5dq109" d="M 132.75 83.31 C 132.76000000000002 83.33 132.74142108572053 83.31 135.44142108572052 83.31 C 138.1414210857205 83.31 138.14000000000001 83.31 144.75 83.31" opacity="0.200000" fill="none" stroke="#5af3ff" stroke-width="0.988375px" stroke-linecap="round" stroke-linejoin="round" stroke-dasharray=""></path> <path id="eke2zlr3h5dq110" d="M132.750000,83.310000C139.320000,83.310000,139.321421,83.310000,142.021421,83.310000C144.721421,83.310000,144.760000,83.310000,144.750000,83.310000" transform="matrix(-1 0 0 1 277.50081729330867 0)" opacity="0" fill="none" stroke="#5af3ff" stroke-width="0.988375px" stroke-linecap="round" stroke-linejoin="round" stroke-dasharray="12"></path></g></g> <g id="eke2zlr3h5dq111" transform="matrix(-1 0 0 1 277.52928771772213 -0.04348993000001)"><g id="eke2zlr3h5dq112"><path id="eke2zlr3h5dq113" d="M 168.5410746327221 85.60370007 C 167.8130094327221 82.22573987 166.937097 79.4829032 164.1 75.77" fill="none" stroke="#3e4c68" stroke-width="4.61242px" stroke-linecap="round" stroke-linejoin="round"></path> <g id="eke2zlr3h5dq114" transform="matrix(1 0 0 1 0.09572596002317 -0.09193232107600)"><g id="eke2zlr3h5dq115"><path id="eke2zlr3h5dq116" d="M 174.5619446726989 94.675858391076 C 173.99520276090155 92.1852388520413 171.9165656726989 88.86055039107599 171.65754367269892 88.460242391076" fill="none" stroke="#3e4c68" stroke-width="3.0505px" stroke-linecap="round" stroke-linejoin="round"></path> <path id="eke2zlr3h5dq117" d="M173.110000,95.760000C173.360000,96.760000,174.640000,97.760000,175.610000,97.250000C176.580000,96.740000,176.440000,94.880000,176.270000,94.070000C176.100000,93.260000,172.940000,95.110000,173.110000,95.760000Z" fill="url(&quot;#eke2zlr3h5dq117-fill&quot;)" stroke="none" stroke-width="1" transform="matrix(1 0 0 1 0 0)"></path> <path id="eke2zlr3h5dq118" d="M 169.1419446726989 90.075858391076 C 169.91992779717089 91.182693932613 171.1103474593328 95.72773794708915 171.42194467269888 98.995858391076" fill="none" stroke="#3e4c68" stroke-width="3.0505px" stroke-linecap="round" stroke-linejoin="round"></path> <path id="eke2zlr3h5dq119" d="M169.580000,99.580000C169.580000,100.580000,170.720000,102.010000,171.780000,101.720000C173,101.370000,173.170000,99.570000,173.080000,98.660000C172.990000,97.750000,169.550000,98.900000,169.580000,99.580000Z" fill="url(&quot;#eke2zlr3h5dq119-fill&quot;)" stroke="none" stroke-width="1" transform="matrix(1 0 0 1 0 0)"></path> <path id="eke2zlr3h5dq120" d="M 166.2419446726989 98.955858391076 C 166.93249335316406 95.82762972348218 167.12229060850723 93.59940750595693 167.22552824071383 89.71309269594249" fill="none" stroke="#3e4c68" stroke-width="3.0505px" stroke-linecap="round" stroke-linejoin="round"></path> <path id="eke2zlr3h5dq121" d="M164.370000,98.680000C163.990000,99.600000,164.500000,101.490000,165.570000,101.680000C166.830000,101.880000,167.620000,100.760000,167.930000,99.340000C168.110000,98.530000,164.640000,98.050000,164.370000,98.680000Z" transform="matrix(0.99995270912785 -0.00972519963190 0.00972519963190 0.99995270912785 -0.90222177577439 1.62349827861966)" fill="url(&quot;#eke2zlr3h5dq121-fill&quot;)" stroke="none" stroke-width="1"></path> <path id="eke2zlr3h5dq122" d="M 159.6058169976405 92.63419924016615 C 160.68066342160404 91.48841408156952 163.38843094672148 88.08361427414822 164.01605823652608 86.90138414617263" transform="matrix(1 0 0 1 0.49128667505841 -0.31725584909015)" fill="none" stroke="#3e4c68" stroke-width="3.0505px" stroke-linecap="round" stroke-linejoin="round"></path> <path id="eke2zlr3h5dq123" d="M161.697637,93.363047C161.374124,93.976054,160.785048,94.404762,160.102263,94.524102C159.419477,94.643443,158.719906,94.439971,158.207637,93.973047C157.507637,93.293047,157.637637,92.343047,159.017637,90.833047C159.647637,90.143047,162.147637,92.743047,161.697637,93.363047Z" transform="matrix(0.99965755554749 0.02616814163851 -0.02616814163851 0.99965755554749 2.46868419853368 -4.20129266490089)" fill="url(&quot;#eke2zlr3h5dq123-fill&quot;)" stroke="none" stroke-width="1"></path></g> <g id="eke2zlr3h5dq124"><path id="eke2zlr3h5dq125" d="M167.610000,83.370000C169.880000,83.200000,169.480000,82.230000,170.670000,82.210000C172.020000,82.210000,175.910000,88.530000,173.930000,90.210000C171.420000,92.360000,170.300000,93.980000,168.300000,94.290000C165.300000,94.730000,165.100000,92.110000,164.720000,90.290000C164.130000,87.390000,162.120000,88.550000,161.720000,86.920000C161.520000,86.060000,163.780000,84.040000,164.530000,83.620000C165.280000,83.200000,166.170000,83.470000,167.610000,83.370000Z" fill="url(&quot;#eke2zlr3h5dq125-fill&quot;)" stroke="none" stroke-width="1"></path></g></g></g></g> <g id="eke2zlr3h5dq126"><g id="eke2zlr3h5dq127"><path id="eke2zlr3h5dq128" d="M 168.23 84.24009914 C 167.72970299999994 82.09558414 166.56546179000006 79.95999999999998 165.91546179000002 78.62" fill="none" stroke="#3e4c68" stroke-width="4.61242px" stroke-linecap="round" stroke-linejoin="round"></path> <g id="eke2zlr3h5dq129" transform="matrix(1 0 0 1 -0.00000927571722 -0.09394876436455)"><g id="eke2zlr3h5dq130"><path id="eke2zlr3h5dq131" d="M 174.67979736071723 94.77687290436455 C 173.5714624489199 91.36789936532985 171.44 88.49 171.44 88.49" fill="none" stroke="#3e4c68" stroke-width="3.0505px" stroke-linecap="round" stroke-linejoin="round"></path> <path id="eke2zlr3h5dq132" d="M173.110000,95.760000C173.360000,96.760000,174.640000,97.760000,175.610000,97.250000C176.580000,96.740000,176.440000,94.880000,176.270000,94.070000C176.100000,93.260000,172.940000,95.110000,173.110000,95.760000Z" fill="url(&quot;#eke2zlr3h5dq132-fill&quot;)" stroke="none" stroke-width="1" transform="matrix(1 0 0 1 0 0)"></path> <path id="eke2zlr3h5dq133" d="M 169.21 89.83 C 169.98798312447198 90.93683554153701 171.00492414735112 95.4678284603777 171.38314536071724 99.36863790436455" fill="none" stroke="#3e4c68" stroke-width="3.0505px" stroke-linecap="round" stroke-linejoin="round"></path> <path id="eke2zlr3h5dq134" d="M169.580000,99.580000C169.580000,100.580000,170.720000,102.010000,171.780000,101.720000C173,101.370000,173.170000,99.570000,173.080000,98.660000C172.990000,97.750000,169.550000,98.900000,169.580000,99.580000Z" fill="url(&quot;#eke2zlr3h5dq134-fill&quot;)" stroke="none" stroke-width="1" transform="matrix(1 0 0 1 0 0)"></path> <path id="eke2zlr3h5dq135" d="M 166.06140736071723 99.15671090436454 C 166.71360304118235 96.64026423677072 167.2088236085072 93.91714550595694 167.22552824071383 89.71309269594249" fill="none" stroke="#3e4c68" stroke-width="3.0505px" stroke-linecap="round" stroke-linejoin="round"></path> <path id="eke2zlr3h5dq136" d="M164.370000,98.680000C163.990000,99.600000,164.500000,101.490000,165.570000,101.680000C166.830000,101.880000,167.620000,100.760000,167.930000,99.340000C168.110000,98.530000,164.640000,98.050000,164.370000,98.680000Z" transform="matrix(0.99998311451016 -0.00581125585120 0.00581125585120 0.99998311451016 -0.54491384164717 0.94079214174808)" fill="url(&quot;#eke2zlr3h5dq136-fill&quot;)" stroke="none" stroke-width="1"></path> <path id="eke2zlr3h5dq137" d="M 160.01419868565884 92.09641375345471 C 161.1611871096224 90.89443259485809 163.40657139585423 88.53864388143029 164.45419868565884 87.2964137534547" transform="matrix(1 0 0 1 0.49128667505841 -0.31725584909015)" fill="none" stroke="#3e4c68" stroke-width="3.0505px" stroke-linecap="round" stroke-linejoin="round"></path> <path id="eke2zlr3h5dq138" d="M161.697637,93.363047C161.374124,93.976054,160.785048,94.404762,160.102263,94.524102C159.419477,94.643443,158.719906,94.439971,158.207637,93.973047C157.507637,93.293047,157.637637,92.343047,159.017637,90.833047C159.647637,90.143047,162.147637,92.743047,161.697637,93.363047Z" transform="matrix(0.99941820725641 -0.03410640708698 0.03410640708698 0.99941820725641 -3.11613790750934 5.39618937780244)" fill="url(&quot;#eke2zlr3h5dq138-fill&quot;)" stroke="none" stroke-width="1"></path></g> <g id="eke2zlr3h5dq139"><path id="eke2zlr3h5dq140" d="M167.610000,83.370000C169.880000,83.200000,169.480000,82.230000,170.670000,82.210000C172.020000,82.210000,175.910000,88.530000,173.930000,90.210000C171.420000,92.360000,170.300000,93.980000,168.300000,94.290000C165.300000,94.730000,165.100000,92.110000,164.720000,90.290000C164.130000,87.390000,162.120000,88.550000,161.720000,86.920000C161.520000,86.060000,163.780000,84.040000,164.530000,83.620000C165.280000,83.200000,166.170000,83.470000,167.610000,83.370000Z" fill="url(&quot;#eke2zlr3h5dq140-fill&quot;)" stroke="none" stroke-width="1"></path></g></g></g></g> <g id="eke2zlr3h5dq141" transform="matrix(1 0 0 1 0 0)"><circle id="eke2zlr3h5dq142" r="18.990000" transform="matrix(1.22331409530133 0 0 0.40974680484026 138.71000289999998 66.91000000000004)" fill="url(&quot;#eke2zlr3h5dq142-fill&quot;)" stroke="none" stroke-width="1"></circle> <path id="eke2zlr3h5dq143" d="M168.230000,41.070000C169.230000,41.600000,169.900000,43.200000,169.230000,46.760000C168.831086,48.648690,168.320184,50.511981,167.700000,52.340000C166.700000,55.200000,165.420000,56.220000,164.440000,56.730000C167.350000,45.820000,168.230000,41.070000,168.230000,41.070000Z" fill="url(&quot;#eke2zlr3h5dq143-fill&quot;)" stroke="none" stroke-width="1"></path> <path id="eke2zlr3h5dq144" d="M109.190000,41.070000C108.190000,41.600000,107.520000,43.200000,108.190000,46.760000C108.588914,48.648690,109.099816,50.511981,109.720000,52.340000C110.720000,55.200000,112,56.220000,112.980000,56.730000C110.070000,45.820000,109.190000,41.070000,109.190000,41.070000Z" fill="url(&quot;#eke2zlr3h5dq144-fill&quot;)" stroke="none" stroke-width="1"></path> <g id="eke2zlr3h5dq145"><path id="eke2zlr3h5dq146" d="M138.710000,68.750000C130.640000,68.750000,119.020000,65,112.600000,56.750000C108.130000,47.290000,108.510000,40.250000,108.530000,39.960000C110.630000,27.700000,122.530000,19.760000,138.710000,19.760000C154.890000,19.760000,166.790000,27.740000,168.900000,40C168.900000,40.260000,169.290000,47.300000,164.790000,56.810000C158.400000,65,146.780000,68.750000,138.710000,68.750000Z" fill="url(&quot;#eke2zlr3h5dq146-fill&quot;)" stroke="none" stroke-width="1"></path> <path id="eke2zlr3h5dq147" d="M138.710000,20.110000C154.770000,20.110000,166.500000,27.930000,168.590000,40.050000C168.590000,40.560000,168.840000,47.530000,164.540000,56.650000C158.170000,64.750000,146.700000,68.440000,138.710000,68.440000C130.720000,68.440000,119.250000,64.750000,112.880000,56.650000C108.580000,47.530000,108.810000,40.560000,108.880000,40.050000C110.970000,27.930000,122.700000,20.110000,138.760000,20.110000M138.760000,19.500000C123.320000,19.500000,110.520000,26.830000,108.270000,39.980000C108.270000,40.060000,107.830000,47.290000,112.410000,56.980000C118.510000,64.790000,129.700000,69.060000,138.760000,69.060000C147.820000,69.060000,159,64.780000,165.060000,57C169.640000,47.320000,169.200000,40.090000,169.200000,40C166.950000,26.850000,154.200000,19.520000,138.710000,19.520000Z" fill="#b4c7dc" stroke="none" stroke-width="1"></path> <g id="eke2zlr3h5dq148" transform="matrix(1 0 0 1 -0.04000091000000 0.08999999892720)"><path id="eke2zlr3h5dq149" d="M 167.29 36.18 C 167.29 36.18 164.87 31.89 158.10999999999999 31.11 C 149.70999999999998 30.11 146.82999709499998 34.1500021410728 138.74999709499997 34.1500021410728 C 130.66999709499996 34.1500021410728 127.70999999999998 30.130000000000003 119.30999999999997 31.110000000000003 C 112.54999999999997 31.890000000000004 110.12999999999997 36.18000000000001 110.12999999999997 36.18000000000001" fill="none" stroke="url(&quot;#eke2zlr3h5dq149-stroke&quot;)" stroke-width="0.610099px" stroke-linejoin="round"></path> <path id="eke2zlr3h5dq150" d="M 168.47 38.08 C 168.47 38.08 166.47 32.69 158.35 31.659999999999997 C 150.23 30.629999999999995 147.039997095 34.770002141072794 138.749997095 34.770002141072794 C 130.459997095 34.770002141072794 127.17000000000002 30.65 119.07000000000001 31.69 C 110.97 32.730000000000004 109 38.08 109 38.08" fill="none" stroke="url(&quot;#eke2zlr3h5dq150-stroke&quot;)" stroke-width="0.610099px" stroke-miterlimit="10"></path></g></g> <g id="eke2zlr3h5dq151" transform="matrix(1 0 0 1 0.03499985363896 -0.00222755200001)"><g id="eke2zlr3h5dq152" transform="matrix(1 0 0 1 -0.04000091000000 -0.11000000107281)"><path id="eke2zlr3h5dq153" d="M138.720000,54.550000C134.670000,54.550000,133.580000,59.180000,127.120000,59.850000C119,60.700000,111.820000,53.220000,111.820000,48.460000C111.820000,44.680000,114.990000,39.940000,119.620000,39.670000C125.450000,39.330000,132.870000,41.270000,138.720000,41.270000C144.570000,41.270000,151.980000,39.330000,157.810000,39.670000C162.440000,39.940000,165.610000,44.670000,165.610000,48.460000C165.610000,53.220000,158.430000,60.700000,150.310000,59.850000C143.850000,59.180000,142.760000,54.550000,138.720000,54.550000Z" fill="url(&quot;#eke2zlr3h5dq153-fill&quot;)" stroke="none" stroke-width="1"></path> <path id="eke2zlr3h5dq154" d="M138.720000,41.920000C132,41.920000,129.580000,40.520000,120.450000,40.520000C115.630000,40.520000,112.120000,45.720000,112.590000,49.060000C113.060000,52.400000,118.870000,58.230000,125.120000,58.410000C131.370000,58.590000,133.120000,52.860000,138.720000,52.860000C144.320000,52.860000,146.050000,58.580000,152.310000,58.410000C158.570000,58.240000,164.360000,52.510000,164.840000,49.060000C165.320000,45.610000,161.840000,40.520000,156.980000,40.520000C147.850000,40.520000,145.430000,41.920000,138.720000,41.920000Z" fill="url(&quot;#eke2zlr3h5dq154-fill&quot;)" stroke="none" stroke-width="1"></path> <path id="eke2zlr3h5dq155" d="M138.720000,43.420000C132.180000,43.420000,129.830000,41.920000,120.940000,41.920000C116.250000,41.920000,113.940000,46.590000,114.360000,49.590000C114.780000,52.590000,118.800000,57.810000,124.880000,57.970000C130.960000,58.130000,133.230000,52.600000,138.720000,52.600000C144.210000,52.600000,146.470000,58.130000,152.550000,57.970000C158.630000,57.810000,162.620000,52.680000,163.070000,49.590000C163.520000,46.500000,161.180000,41.920000,156.490000,41.920000C147.600000,41.920000,145.250000,43.420000,138.720000,43.420000Z" fill="url(&quot;#eke2zlr3h5dq155-fill&quot;)" stroke="none" stroke-width="1"></path> <g id="eke2zlr3h5dq156"><circle id="eke2zlr3h5dq157" r="2.250000" transform="matrix(1 0 0 1 152.22000000000000 48.46000000000000)" fill="#5af3ff" stroke="none" stroke-width="1"></circle> <circle id="eke2zlr3h5dq158" r="2.250000" transform="matrix(1 0 0 1 126.09000000000000 48.46000000000000)" fill="#5af3ff" stroke="none" stroke-width="1"></circle></g></g></g></g></g></g></svg>