<svg id="mujeebk_final" xmlns="http://www.w3.org/2000/svg" xmlns:xlink="http://www.w3.org/1999/xlink" width="370.262" height="119.436" viewBox="0 0 370.262 119.436">
  <defs>
    <radialGradient id="radial-gradient" cx="0.391" cy="0.822" r="0.251" gradientTransform="translate(-0.389 -0.658) scale(1.994 1.994)" gradientUnits="objectBoundingBox">
      <stop offset="0" stop-color="#e7315e"/>
      <stop offset="1" stop-color="#81217d"/>
    </radialGradient>
  </defs>
  <path id="path11" d="M17.53,17.505A59.324,59.324,0,0,1,59.816,0V19.1A40.689,40.689,0,0,0,24.832,80.566L20.5,97.776a1.942,1.942,0,0,0,2.459,2.336L40.419,95.44a40.418,40.418,0,0,0,19.472,4.917v19.078A59.681,59.681,0,0,1,17.53,17.505Z" transform="translate(0 0)" fill="url(#radial-gradient)"/>
  <g id="text13" transform="translate(59.347 37.508)">
    <path id="path1680" d="M73.058,55.942H61.735V26.392l-8.18,19.177H45.7L37.52,26.392v29.55H26.791V11.809H40.01l9.929,22.14,9.9-22.14H73.058Z" transform="translate(-26.791 -11.809)" fill="#0b194f"/>
    <path id="path1682" d="M89.2,39.966q0,8.18-4.979,12.537T69.547,56.861q-9.692,0-14.671-4.357Q49.926,48.147,49.926,40V11.809H61.366V39.344q0,4.594,1.927,6.847t6.254,2.253q4.268,0,6.224-2.164,1.986-2.164,1.986-6.936V11.809H89.2Z" transform="translate(6.952 -11.809)" fill="#0b194f"/>
    <path id="path1684" d="M95.842,42.99A14.327,14.327,0,0,1,94.8,48.443a11.086,11.086,0,0,1-3.082,4.268,15.527,15.527,0,0,1-5.216,2.9,24.383,24.383,0,0,1-7.558,1.008q-3.053,0-5.75-.237a39.235,39.235,0,0,1-4.742-.622V46.813h1.067q1.423.534,2.964,1.008a14.541,14.541,0,0,0,3.942.445,10.942,10.942,0,0,0,4.772-.83,4.975,4.975,0,0,0,2.4-2.312,8.412,8.412,0,0,0,.771-3.171q.089-1.749.089-4.446V19.93H74.353V11.809H95.842Z" transform="translate(33.978 -11.809)" fill="#0b194f"/>
    <path id="path1686" d="M115.856,55.942H83.935V11.809h31.921v8.536h-20.6v7.617h19.117V36.5H95.257V47.406h20.6Z" transform="translate(56.555 -11.809)" fill="#0b194f"/>
    <path id="path1688" d="M132.734,55.942H100.813V11.809h31.921v8.536h-20.6v7.617h19.117V36.5H112.135V47.406h20.6Z" transform="translate(81.172 -11.809)" fill="#0b194f"/>
    <path id="path1690" d="M155.451,42.427a12.261,12.261,0,0,1-1.3,5.72,11.648,11.648,0,0,1-3.527,4.179,16.535,16.535,0,0,1-5.75,2.786,31.418,31.418,0,0,1-7.914.83H117.69V11.809h17.131a60.57,60.57,0,0,1,7.8.356,16.036,16.036,0,0,1,4.92,1.571,8.562,8.562,0,0,1,3.735,3.438,9.525,9.525,0,0,1,1.245,4.89,9.757,9.757,0,0,1-1.69,5.661,11.116,11.116,0,0,1-4.772,3.794v.237a12.359,12.359,0,0,1,6.847,3.557,9.932,9.932,0,0,1,2.549,7.113ZM140.868,24.287a4.765,4.765,0,0,0-.563-2.193,3.346,3.346,0,0,0-1.927-1.63,9.231,9.231,0,0,0-3.112-.5q-1.838-.059-5.187-.059h-1.067v9.336h1.778q2.7,0,4.594-.089a8.24,8.24,0,0,0,2.994-.593,3.683,3.683,0,0,0,2.016-1.749A6.3,6.3,0,0,0,140.868,24.287Zm2.786,17.961a5.381,5.381,0,0,0-.83-3.231,4.826,4.826,0,0,0-2.756-1.719,14.475,14.475,0,0,0-3.675-.415q-2.342-.03-4.89-.03h-2.49v11h.83q4.8,0,6.876-.03a10.076,10.076,0,0,0,3.823-.771,4.622,4.622,0,0,0,2.43-1.956,5.827,5.827,0,0,0,.682-2.845Z" transform="translate(105.789 -11.809)" fill="#0b194f"/>
    <path id="path1692" d="M177.7,55.942h-13.96L150.546,38.277l-2.668,3.231V55.942H136.5V11.809h11.381V31.786l15.768-19.977h13.189l-17.25,20.421Z" transform="translate(133.219 -11.809)" fill="#0b194f"/>
  </g>
</svg>
