<svg xmlns="http://www.w3.org/2000/svg" width="1280" height="1280"><path fill-rule="evenodd" d="M59 1.312h219.891c10.548 0 34.376 1.216 47.634 17.472C340.764 36.242 339 55.36 339 67.924V171s1.509-.119 1.509 1.019l-.007 77.9c0 1.776-1.52 1.557-1.52 1.557S339 450.208 339 623.797c.101 6.407-.959 14.861-2.972 20.673-4.516 13.045-13.829 23.834-25.578 28.973-14.131 6.18-32.595 5.573-32.639 5.557l-86.78.012S189.043 678 185.943 678c-1.578 0-23.819-.01-27.942-.01-4.122 0-5.021 1.025-5.021 1.025s-56.195-.02-80.698-.02c-24.503 0-36.31-1.802-48.699-10.504C12.305 660.569 3.5 644.708 3.5 623V326.5v-57.8s-1.995.3-1.995-.771l-.01-49.305c0-1.576 2.002-1.344 2.002-1.344l.003-12.264s-1.988-.271-1.988-1.533l-.003-48.238c0-1.387 1.995-1.226 1.995-1.226l.001-23.232S2 130.956 2 129.48l-.001-23.737c0-1.277 1.501-1.017 1.501-1.017V79.5c0-10.388-.04-15.231.129-21.51.386-14.286 1.982-23.415 7.494-32.498 6.82-11.239 16.999-18.727 31.476-22.314C47.744 1.945 54.367 1.393 59 1.312zm1.79 20.149c-2.558 0-16.583-.141-26.318 8.648-9.783 8.834-10.359 22.425-10.359 29.09v556.92c0 4.71-.57 21.093 7.394 30.719 8.79 10.627 22.648 11.536 29.534 11.536 2.382 0 211.845-.055 217.338-.055 15.667 0 22.74-1.078 32.329-10.668 9.901-9.9 7.883-35.858 7.883-35.858l.04-546.701c0-7.33.978-23.145-8.948-33.746C300.639 21.688 283 21.5 283 21.5l-22.187.054s-3.942-.47-5.788 1.278c-1.56 1.477-1.883 6.548-1.883 6.548s.326 3.59-2.494 8.41c-2.82 4.82-8.551 7.666-16.132 7.666-1.741 0-115.007.056-126.183.056-8.777 0-12.418-3.063-15.368-6.539-2.712-3.195-3.503-8.707-3.503-8.707l-.227-4.279s-.341-1.721-1.764-2.977c-1.424-1.256-4.713-1.526-4.713-1.526s-18.312-.023-21.968-.023z"/></svg>