<svg xmlns="http://www.w3.org/2000/svg" width="1050" height="980"><path fill-rule="evenodd" d="M162.076 1.841c83.072 0 197.657-.012 344.284-.012 10.249 1.185 14.16 2.165 23.655 4.29 0 1.301-.007 1.581.228 1.581.231 0 .251-.133.261-1.42 4.105.738 14.47 2.932 17.778 3.867 1.881.531 2.75 1.422 2.75 2.166 0 .799-1.04 1.832-2.68 2.211-4.145.957-10.919 2.399-17.861 3.789 0-1.128-.006-1.496-.229-1.496-.243 0-.277.466-.28 1.597a738.515 738.515 0 0 0-18.458 3.584c34.33 0 98.136.115 132.466.115 8.849 0 19.401 2.804 25.595 8.393 5.475 4.94 9.271 15.02 9.271 22.495 0 69.344.106 150.01.106 219.17 0 85.486-.029 221.476-.029 236.032 0 7.081-2.264 16.199-8.166 22.29-5.436 5.611-14.717 9.454-26.049 9.454-20.267 0-161.433-.003-315.19-.003l-291.696.001c-8.656 0-19.777-1.218-26.786-9.254-6.767-7.758-8.025-17.247-8.025-25.182 0-24.998.011-130.893.011-220.924 0-90.702-.073-200.755-.073-203.091-.39-.001-1.183.012-1.467.012-.012-1.508-.001-25.502-.001-29.011.379-.013 1.053.018 1.497-.001 0-6.986 3.212-15.667 7.551-20.435 5.945-6.533 15.285-10.008 24.982-10.008 4.849 0 11.154-.058 13.984-.058-.008-.367.004-1.22.004-1.504 7.666 0 16.824.024 24.49.024 0 .339.006 1.051.006 1.479 1.214.018 3.172-.001 4.984-.001.011-.487.004-1.107.004-1.471l24.027.003c0 .544-.007.849-.007 1.478 17.665 0 36.605-.011 54.27-.011-.833-.222-2.128-1.128-3.177-1.927-1.792-1.364-3.518-4.25-3.518-8.229 0-3.852 1.715-5.851 3.324-7.349 1.239-1.153 4.82-2.644 8.164-2.644zM34.083 44.004h613.834c5.006 0 9.086 4.037 9.086 9.059V508.91c0 5.012-4.072 9.091-9.091 9.091H34.086c-5.286.005-9.087-4.355-9.087-9.093V53.069c0-5.069 4.1-9.065 9.084-9.065z"/></svg>